<svg xmlns="http://www.w3.org/2000/svg" xmlns:xlink="http://www.w3.org/1999/xlink" version="1.1" width="657.1" height="630.8" viewBox="0 24.2 657.1 630.8"><g><g transform="translate(111,112)"><g><g>
<path d="M32,0H0v33h32V0L32,0z" stroke="#000000" stroke-dasharray="none" fill="#FFFFFF"/>
<rect x="1.4" y="1.5" width="29.2" height="30" fill="none"/>
<circle fill="none" cx="16" cy="0" r="0.1"/>
<circle fill="none" cx="23.9" cy="0" r="0.1"/>
<circle fill="none" cx="32" cy="8.3" r="0.1"/>
<circle fill="none" cx="32" cy="16.5" r="0.1"/>
<circle fill="none" cx="32" cy="24.7" r="0.1"/>
<circle fill="none" cx="23.9" cy="33" r="0.1"/>
<circle fill="none" cx="16" cy="33" r="0.1"/>
<circle fill="none" cx="8.1" cy="33" r="0.1"/>
<circle fill="none" cx="0" cy="24.7" r="0.1"/>
<circle fill="none" cx="0" cy="16.5" r="0.1"/>
<circle fill="none" cx="0" cy="8.3" r="0.1"/>
<circle fill="none" cx="8.1" cy="0" r="0.1"/>
</g></g><rect stroke="none" stroke-width="0" fill="#FFFFFF" x="0" y="0" width="0" height="0" transform="translate(31.9,16.4)"/><path stroke="#000000" fill="none" d=""/><text font-family="OpenSansCondensedLight" font-size="14pt" fill="black" transform="translate(31.9,16.4)"/><rect stroke-width="0" fill="none" width="29.2" height="30" transform="translate(1.4,1.5)"/><text font-family="OpenSansCondensedLight" font-size="14pt" fill="black" transform="translate(1.4,1.5)" text-anchor="middle"><tspan x="14.6" y="21.3"> </tspan></text><path stroke="#000000" fill="none" transform="translate(1.4,1.5)" d="M 0 0"/></g><g transform="translate(624,111)"><g><g>
<path d="M32,0H0v33h32V0L32,0z" stroke="#000000" stroke-dasharray="none" fill="#FFFFFF"/>
<rect x="1.4" y="1.5" width="29.2" height="30" fill="none"/>
<circle fill="none" cx="16" cy="0" r="0.1"/>
<circle fill="none" cx="23.9" cy="0" r="0.1"/>
<circle fill="none" cx="32" cy="8.3" r="0.1"/>
<circle fill="none" cx="32" cy="16.5" r="0.1"/>
<circle fill="none" cx="32" cy="24.7" r="0.1"/>
<circle fill="none" cx="23.9" cy="33" r="0.1"/>
<circle fill="none" cx="16" cy="33" r="0.1"/>
<circle fill="none" cx="8.1" cy="33" r="0.1"/>
<circle fill="none" cx="0" cy="24.7" r="0.1"/>
<circle fill="none" cx="0" cy="16.5" r="0.1"/>
<circle fill="none" cx="0" cy="8.3" r="0.1"/>
<circle fill="none" cx="8.1" cy="0" r="0.1"/>
</g></g><rect stroke="none" stroke-width="0" fill="#FFFFFF" x="0" y="0" width="0" height="0" transform="translate(31.9,16.4)"/><path stroke="#000000" fill="none" d=""/><text font-family="OpenSansCondensedLight" font-size="14pt" fill="black" transform="translate(31.9,16.4)"/><rect stroke-width="0" fill="none" width="29.2" height="30" transform="translate(1.4,1.5)"/><text font-family="OpenSansCondensedLight" font-size="14pt" fill="black" transform="translate(1.4,1.5)" text-anchor="middle"><tspan x="14.6" y="21.3"> </tspan></text><path stroke="#000000" fill="none" transform="translate(1.4,1.5)" d="M 0 0"/></g><g transform="translate(326,112)"><g><g>
<path d="M32,0H0v33h32V0L32,0z" stroke="#000000" stroke-dasharray="none" fill="#FFFFFF"/>
<rect x="1.4" y="1.5" width="29.2" height="30" fill="none"/>
<circle fill="none" cx="16" cy="0" r="0.1"/>
<circle fill="none" cx="23.9" cy="0" r="0.1"/>
<circle fill="none" cx="32" cy="8.3" r="0.1"/>
<circle fill="none" cx="32" cy="16.5" r="0.1"/>
<circle fill="none" cx="32" cy="24.7" r="0.1"/>
<circle fill="none" cx="23.9" cy="33" r="0.1"/>
<circle fill="none" cx="16" cy="33" r="0.1"/>
<circle fill="none" cx="8.1" cy="33" r="0.1"/>
<circle fill="none" cx="0" cy="24.7" r="0.1"/>
<circle fill="none" cx="0" cy="16.5" r="0.1"/>
<circle fill="none" cx="0" cy="8.3" r="0.1"/>
<circle fill="none" cx="8.1" cy="0" r="0.1"/>
</g></g><rect stroke="none" stroke-width="0" fill="#FFFFFF" x="0" y="0" width="0" height="0" transform="translate(31.9,16.4)"/><path stroke="#000000" fill="none" d=""/><text font-family="OpenSansCondensedLight" font-size="14pt" fill="black" transform="translate(31.9,16.4)"/><rect stroke-width="0" fill="none" width="29.2" height="30" transform="translate(1.4,1.5)"/><text font-family="OpenSansCondensedLight" font-size="14pt" fill="black" transform="translate(1.4,1.5)" text-anchor="middle"><tspan x="14.6" y="21.3"> </tspan></text><path stroke="#000000" fill="none" transform="translate(1.4,1.5)" d="M 0 0"/></g><g transform="translate(301,329)"><g><g>
<path d="M42.9,0c-9.3,0,-17.2,5.5,-20,13.2C10.1,14.6,0,24.7,0,37.2c0,13.3,11.6,24.2,25.7,24.2c0.7,0,1.5,0,2.2,-0.2c2.5,7.9,10.1,13.7,19.5,13.7c7.6,0,14.4,-4.1,17.7,-10c3.5,3.5,8.6,5.6,14.2,5.6c8.7,0,16.2,-5.3,18.9,-12.6c0.2,0,0.2,0,0.4,0c11.7,0,21.2,-8.9,21.2,-20s-9.5,-20,-21.3,-20c-2.3,0,-4.3,0.4,-6.1,0.9c-1.9,-7.5,-9.1,-13.2,-17.7,-13.2c-5,0,-9.5,1.9,-12.9,5.1C58.2,4.4,51.1,0,42.9,0L42.9,0z" stroke="#000000" stroke-dasharray="none" fill="#FFFFFF"/>
<rect x="10.9" y="23.3" width="96.1" height="28.4" fill="none"/>
<circle fill="none" cx="61.8" cy="10.7" r="0.1"/>
<circle fill="none" cx="78.7" cy="6" r="0.1"/>
<circle fill="none" cx="92.4" cy="18.7" r="0.1"/>
<circle fill="none" cx="119.8" cy="37.2" r="0.1"/>
<circle fill="none" cx="98.2" cy="57.9" r="0.1"/>
<circle fill="none" cx="80.8" cy="70.4" r="0.1"/>
<circle fill="none" cx="65.1" cy="64.9" r="0.1"/>
<circle fill="none" cx="46.8" cy="74.8" r="0.1"/>
<circle fill="none" cx="0" cy="37.2" r="0.1"/>
<circle fill="none" cx="27.9" cy="61.2" r="0.1"/>
<circle fill="none" cx="23" cy="13.2" r="0.1"/>
<circle fill="none" cx="42.9" cy="0" r="0.1"/>
</g></g><rect stroke="none" stroke-width="0" fill="#FFFFFF" x="0" y="0" width="0" height="0" transform="translate(119.7,37.1)"/><path stroke="#000000" fill="none" d=""/><text font-family="OpenSansCondensedLight" font-size="14pt" fill="black" transform="translate(119.7,37.1)"/><rect stroke-width="0" fill="none" width="96.1" height="28.4" transform="translate(10.9,23.3)"/><text font-family="OpenSansCondensedLight" font-size="14pt" fill="black" transform="translate(10.9,23.3)" text-anchor="middle"><tspan x="48.1" y="20.5"> 104</tspan></text><path stroke="#000000" fill="none" transform="translate(10.9,23.3)" d="M 34.1 23 62.1 23"/></g><g transform="translate(292,455)"><g><g>
<g stroke-width="0.5" stroke="#000000" stroke-dasharray="none" fill="#FFFFFF">
    <path d="M0,75.9l9.9,-9.5h59.6l9.9,9.5v22.3H0V75.9z"/>
    <path d="M4.1,79.1H75.4c0.4,0,0.8,0.4,0.8,0.8v14.4c0,0.4,-0.4,0.8,-0.8,0.8H4.1c-0.4,0,-0.8,-0.4,-0.8,-0.8v-14.4C3.3,79.5,3.7,79.1,4.1,79.1"/>
    <path d="M57.1,85.6c0,1,-1.7,1,-1.7,0C55.5,84.4,57.1,84.4,57.1,85.6"/>
    <path d="M64.6,80.9h1.7v12.6h-1.7V80.9z"/>
    <path d="M5.8,80.9h5.1c0.4,0,0.8,0.4,0.8,0.8v3.2c0,0.4,-0.4,0.8,-0.8,0.8h-5.1c-0.4,0,-0.8,-0.4,-0.8,-0.8v-3.1C4.9,81.1,5.4,80.9,5.8,80.9"/>
    <path d="M5.8,88.8h5.1c0.4,0,0.8,0.4,0.8,0.8v3.2c0,0.4,-0.4,0.8,-0.8,0.8h-5.1c-0.4,0,-0.8,-0.4,-0.8,-0.8v-3.2C4.9,89.2,5.4,88.8,5.8,88.8"/>
    <path d="M15.8,80.9h5.1c0.4,0,0.8,0.4,0.8,0.8v3.2c0,0.4,-0.4,0.8,-0.8,0.8h-5.1c-0.4,0,-0.8,-0.4,-0.8,-0.8v-3.1C15,81.1,15.2,80.9,15.8,80.9"/>
    <path d="M25.7,80.9h5.1c0.4,0,0.8,0.4,0.8,0.8v3.2c0,0.4,-0.4,0.8,-0.8,0.8h-5.1c-0.4,0,-0.8,-0.4,-0.8,-0.8v-3.1C24.9,81.1,25.3,80.9,25.7,80.9"/>
    <path d="M35.6,80.9h5.1c0.4,0,0.8,0.4,0.8,0.8v3.2c0,0.4,-0.4,0.8,-0.8,0.8h-5.1c-0.4,0,-0.8,-0.4,-0.8,-0.8v-3.1C34.7,81.1,35.2,80.9,35.6,80.9"/>
    <path d="M45.6,80.9h5.1c0.4,0,0.8,0.4,0.8,0.8v3.2c0,0.4,-0.4,0.8,-0.8,0.8h-5.1c-0.4,0,-0.8,-0.4,-0.8,-0.8v-3.1C44.8,81.1,45,80.9,45.6,80.9"/>
    <path d="M15.8,88.8h5.1c0.4,0,0.8,0.4,0.8,0.8v3.2c0,0.4,-0.4,0.8,-0.8,0.8h-5.1c-0.4,0,-0.8,-0.4,-0.8,-0.8v-3.2C15,89.2,15.2,88.8,15.8,88.8"/>
    <path d="M25.7,88.8h5.1c0.4,0,0.8,0.4,0.8,0.8v3.2c0,0.4,-0.4,0.8,-0.8,0.8h-5.1c-0.4,0,-0.8,-0.4,-0.8,-0.8v-3.2C24.9,89.2,25.3,88.8,25.7,88.8"/>
    <path d="M35.6,88.8h5.1c0.4,0,0.8,0.4,0.8,0.8v3.2c0,0.4,-0.4,0.8,-0.8,0.8h-5.1c-0.4,0,-0.8,-0.4,-0.8,-0.8v-3.2C34.7,89.2,35.2,88.8,35.6,88.8"/>
    <path d="M45.6,88.8h5.1c0.4,0,0.8,0.4,0.8,0.8v3.2c0,0.4,-0.4,0.8,-0.8,0.8h-5.1c-0.4,0,-0.8,-0.4,-0.8,-0.8v-3.2C44.8,89.2,45,88.8,45.6,88.8"/>
    <path d="M6.6,75.9l6.6,-6.3h54.7l6.6,6.3H6.6z"/>
    <path d="M57.1,82.4c0,1,-1.7,1,-1.7,0C55.5,81.3,57.1,81.3,57.1,82.4"/>
    <path d="M67.8,80.9h1.7v12.6h-1.7V80.9z"/>
    <path d="M71.3,80.9h1.7v12.6h-1.7V80.9z"/>
    <path d="M57.1,88.8c0,1,-1.7,1,-1.7,0C55.5,87.8,57.1,87.6,57.1,88.8"/>
    <path d="M57.1,91.9c0,1,-1.7,1,-1.7,0C55.5,90.9,57.1,90.9,57.1,91.9"/>
    <path d="M0,53.9l9.9,-9.5h59.6l9.9,9.5v22.3H0V53.9z"/>
    <path d="M4.1,57H75.4c0.4,0,0.8,0.4,0.8,0.8v14.4c0,0.4,-0.4,0.8,-0.8,0.8H4.1c-0.4,0,-0.8,-0.4,-0.8,-0.8v-14.4C3.3,57.4,3.7,57,4.1,57"/>
    <path d="M57.1,63.3c0,1,-1.7,1,-1.7,0C55.5,62.3,57.1,62.3,57.1,63.3"/>
    <path d="M64.6,58.6h1.7v12.6h-1.7V58.6z"/>
    <path d="M5.8,58.6h5.1c0.4,0,0.8,0.4,0.8,0.8v3.2c0,0.4,-0.4,0.8,-0.8,0.8h-5.1c-0.4,0,-0.8,-0.4,-0.8,-0.8v-3.2C4.9,59,5.4,58.6,5.8,58.6"/>
    <path d="M5.8,66.7h5.1c0.4,0,0.8,0.4,0.8,0.8v3.2c0,0.4,-0.4,0.8,-0.8,0.8h-5.1c-0.4,0,-0.8,-0.4,-0.8,-0.8V67.5C4.9,66.9,5.4,66.7,5.8,66.7"/>
    <path d="M15.8,58.6h5.1c0.4,0,0.8,0.4,0.8,0.8v3.2c0,0.4,-0.4,0.8,-0.8,0.8h-5.1c-0.4,0,-0.8,-0.4,-0.8,-0.8v-3.2C15,59,15.2,58.6,15.8,58.6"/>
    <path d="M25.7,58.6h5.1c0.4,0,0.8,0.4,0.8,0.8v3.2c0,0.4,-0.4,0.8,-0.8,0.8h-5.1c-0.4,0,-0.8,-0.4,-0.8,-0.8v-3.2C24.9,59,25.3,58.6,25.7,58.6"/>
    <path d="M35.6,58.6h5.1c0.4,0,0.8,0.4,0.8,0.8v3.2c0,0.4,-0.4,0.8,-0.8,0.8h-5.1c-0.4,0,-0.8,-0.4,-0.8,-0.8v-3.2C34.7,59,35.2,58.6,35.6,58.6"/>
    <path d="M45.6,58.6h5.1c0.4,0,0.8,0.4,0.8,0.8v3.2c0,0.4,-0.4,0.8,-0.8,0.8h-5.1c-0.4,0,-0.8,-0.4,-0.8,-0.8v-3.2C44.8,59,45,58.6,45.6,58.6"/>
    <path d="M15.8,66.7h5.1c0.4,0,0.8,0.4,0.8,0.8v3.2c0,0.4,-0.4,0.8,-0.8,0.8h-5.1c-0.4,0,-0.8,-0.4,-0.8,-0.8V67.5C15,66.9,15.2,66.7,15.8,66.7"/>
    <path d="M25.7,66.7h5.1c0.4,0,0.8,0.4,0.8,0.8v3.2c0,0.4,-0.4,0.8,-0.8,0.8h-5.1c-0.4,0,-0.8,-0.4,-0.8,-0.8V67.5C24.9,66.9,25.3,66.7,25.7,66.7"/>
    <path d="M35.6,66.7h5.1c0.4,0,0.8,0.4,0.8,0.8v3.2c0,0.4,-0.4,0.8,-0.8,0.8h-5.1c-0.4,0,-0.8,-0.4,-0.8,-0.8V67.5C34.7,66.9,35.2,66.7,35.6,66.7"/>
    <path d="M45.6,66.7h5.1c0.4,0,0.8,0.4,0.8,0.8v3.2c0,0.4,-0.4,0.8,-0.8,0.8h-5.1c-0.4,0,-0.8,-0.4,-0.8,-0.8V67.5C44.8,66.9,45,66.7,45.6,66.7"/>
    <path d="M6.6,53.9l6.6,-6.3h54.7l6.6,6.3H6.6z"/>
    <path d="M57.1,60.2c0,1,-1.7,1,-1.7,0S57.1,59.2,57.1,60.2"/>
    <path d="M67.8,58.6h1.7v12.6h-1.7V58.6z"/>
    <path d="M71.3,58.6h1.7v12.6h-1.7V58.6z"/>
    <path d="M57.1,66.7c0,1,-1.7,1,-1.7,0C55.5,65.7,57.1,65.5,57.1,66.7"/>
    <path d="M57.1,69.8c0,1,-1.7,1,-1.7,0C55.5,68.9,57.1,68.6,57.1,69.8"/>
    <path d="M0,31.6l9.9,-9.5h59.6l9.9,9.5v22.3H0V31.6z"/>
    <path d="M4.1,34.7H75.4c0.4,0,0.8,0.4,0.8,0.8v14.4c0,0.4,-0.4,0.8,-0.8,0.8H4.1c-0.4,0,-0.8,-0.4,-0.8,-0.8v-14.4C3.3,35.1,3.7,34.7,4.1,34.7"/>
    <path d="M57.1,41.2c0,1,-1.7,1,-1.7,0C55.5,40,57.1,40,57.1,41.2"/>
    <path d="M64.6,36.3h1.7v12.6h-1.7V36.3z"/>
    <path d="M5.8,36.3h5.1c0.4,0,0.8,0.4,0.8,0.8v3.2c0,0.4,-0.4,0.8,-0.8,0.8h-5.1c-0.4,0,-0.8,-0.4,-0.8,-0.8v-3.2C4.9,36.7,5.4,36.3,5.8,36.3"/>
    <path d="M5.8,44.4h5.1c0.4,0,0.8,0.4,0.8,0.8v3.2c0,0.4,-0.4,0.8,-0.8,0.8h-5.1c-0.4,0,-0.8,-0.4,-0.8,-0.8v-3.2C4.9,44.8,5.4,44.4,5.8,44.4"/>
    <path d="M15.8,36.3h5.1c0.4,0,0.8,0.4,0.8,0.8v3.2c0,0.4,-0.4,0.8,-0.8,0.8h-5.1c-0.4,0,-0.8,-0.4,-0.8,-0.8v-3.2C15,36.7,15.2,36.3,15.8,36.3"/>
    <path d="M25.7,36.3h5.1c0.4,0,0.8,0.4,0.8,0.8v3.2c0,0.4,-0.4,0.8,-0.8,0.8h-5.1c-0.4,0,-0.8,-0.4,-0.8,-0.8v-3.2C24.9,36.7,25.3,36.3,25.7,36.3"/>
    <path d="M35.6,36.3h5.1c0.4,0,0.8,0.4,0.8,0.8v3.2c0,0.4,-0.4,0.8,-0.8,0.8h-5.1c-0.4,0,-0.8,-0.4,-0.8,-0.8v-3.2C34.7,36.7,35.2,36.3,35.6,36.3"/>
    <path d="M45.6,36.3h5.1c0.4,0,0.8,0.4,0.8,0.8v3.2c0,0.4,-0.4,0.8,-0.8,0.8h-5.1c-0.4,0,-0.8,-0.4,-0.8,-0.8v-3.2C44.8,36.7,45,36.3,45.6,36.3"/>
    <path d="M15.8,44.4h5.1c0.4,0,0.8,0.4,0.8,0.8v3.2c0,0.4,-0.4,0.8,-0.8,0.8h-5.1c-0.4,0,-0.8,-0.4,-0.8,-0.8v-3.2C15,44.8,15.2,44.4,15.8,44.4"/>
    <path d="M25.7,44.4h5.1c0.4,0,0.8,0.4,0.8,0.8v3.2c0,0.4,-0.4,0.8,-0.8,0.8h-5.1c-0.4,0,-0.8,-0.4,-0.8,-0.8v-3.2C24.9,44.8,25.3,44.4,25.7,44.4"/>
    <path d="M35.6,44.4h5.1c0.4,0,0.8,0.4,0.8,0.8v3.2c0,0.4,-0.4,0.8,-0.8,0.8h-5.1c-0.4,0,-0.8,-0.4,-0.8,-0.8v-3.2C34.7,44.8,35.2,44.4,35.6,44.4"/>
    <path d="M45.6,44.4h5.1c0.4,0,0.8,0.4,0.8,0.8v3.2c0,0.4,-0.4,0.8,-0.8,0.8h-5.1c-0.4,0,-0.8,-0.4,-0.8,-0.8v-3.2C44.8,44.8,45,44.4,45.6,44.4"/>
    <path d="M6.6,31.6l6.6,-6.3h54.7l6.6,6.3H6.6z"/>
    <path d="M57.1,37.9c0,1,-1.7,1,-1.7,0C55.5,36.9,57.1,36.9,57.1,37.9"/>
    <path d="M67.8,36.3h1.7v12.6h-1.7V36.3z"/>
    <path d="M71.3,36.3h1.7v12.6h-1.7V36.3z"/>
    <path d="M57.1,44.4c0,1,-1.7,1,-1.7,0C55.5,43.4,57.1,43.2,57.1,44.4"/>
    <path d="M57.1,47.5c0,1,-1.7,1,-1.7,0C55.5,46.6,57.1,46.4,57.1,47.5"/>
    <path d="M0,9.5L9.9,0h59.6l9.9,9.5v22.3H0V9.5z"/>
    <path d="M4.1,12.6H75.4c0.4,0,0.8,0.4,0.8,0.8v14.4c0,0.4,-0.4,0.8,-0.8,0.8H4.1c-0.4,0,-0.8,-0.4,-0.8,-0.8v-14.4C3.3,13,3.7,12.6,4.1,12.6"/>
    <path d="M57.1,18.9c0,1,-1.7,1,-1.7,0C55.5,18,57.1,18,57.1,18.9"/>
    <path d="M64.6,14.2h1.7v12.6h-1.7V14.2z"/>
    <path d="M5.8,14.2h5.1c0.4,0,0.8,0.4,0.8,0.8v3.2c0,0.4,-0.4,0.8,-0.8,0.8h-5.1c-0.4,0,-0.8,-0.4,-0.8,-0.8V15C4.9,14.6,5.4,14.2,5.8,14.2"/>
    <path d="M5.8,22.1h5.1c0.4,0,0.8,0.4,0.8,0.8v3.2c0,0.4,-0.4,0.8,-0.8,0.8h-5.1c-0.4,0,-0.8,-0.4,-0.8,-0.8v-3.1C4.9,22.5,5.4,22.1,5.8,22.1"/>
    <path d="M15.8,14.2h5.1c0.4,0,0.8,0.4,0.8,0.8v3.2c0,0.4,-0.4,0.8,-0.8,0.8h-5.1c-0.4,0,-0.8,-0.4,-0.8,-0.8V15C15,14.6,15.2,14.2,15.8,14.2"/>
    <path d="M25.7,14.2h5.1c0.4,0,0.8,0.4,0.8,0.8v3.2c0,0.4,-0.4,0.8,-0.8,0.8h-5.1c-0.4,0,-0.8,-0.4,-0.8,-0.8V15C24.9,14.6,25.3,14.2,25.7,14.2"/>
    <path d="M35.6,14.2h5.1c0.4,0,0.8,0.4,0.8,0.8v3.2c0,0.4,-0.4,0.8,-0.8,0.8h-5.1c-0.4,0,-0.8,-0.4,-0.8,-0.8V15C34.7,14.6,35.2,14.2,35.6,14.2"/>
    <path d="M45.6,14.2h5.1c0.4,0,0.8,0.4,0.8,0.8v3.2c0,0.4,-0.4,0.8,-0.8,0.8h-5.1c-0.4,0,-0.8,-0.4,-0.8,-0.8V15C44.8,14.6,45,14.2,45.6,14.2"/>
    <path d="M15.8,22.1h5.1c0.4,0,0.8,0.4,0.8,0.8v3.2c0,0.4,-0.4,0.8,-0.8,0.8h-5.1c-0.4,0,-0.8,-0.4,-0.8,-0.8v-3.1C15,22.5,15.2,22.1,15.8,22.1"/>
    <path d="M25.7,22.1h5.1c0.4,0,0.8,0.4,0.8,0.8v3.2c0,0.4,-0.4,0.8,-0.8,0.8h-5.1c-0.4,0,-0.8,-0.4,-0.8,-0.8v-3.1C24.9,22.5,25.3,22.1,25.7,22.1"/>
    <path d="M35.6,22.1h5.1c0.4,0,0.8,0.4,0.8,0.8v3.2c0,0.4,-0.4,0.8,-0.8,0.8h-5.1c-0.4,0,-0.8,-0.4,-0.8,-0.8v-3.1C34.7,22.5,35.2,22.1,35.6,22.1"/>
    <path d="M45.6,22.1h5.1c0.4,0,0.8,0.4,0.8,0.8v3.2c0,0.4,-0.4,0.8,-0.8,0.8h-5.1c-0.4,0,-0.8,-0.4,-0.8,-0.8v-3.1C44.8,22.5,45,22.1,45.6,22.1"/>
    <path d="M6.6,9.5l6.6,-6.3h54.7l6.6,6.3H6.6z"/>
    <path d="M57.1,15.8c0,1,-1.7,1,-1.7,0S57.1,14.8,57.1,15.8"/>
    <path d="M67.8,14.2h1.7v12.6h-1.7V14.2z"/>
    <path d="M71.3,14.2h1.7v12.6h-1.7V14.2z"/>
    <path d="M57.1,22.1c0,1,-1.7,1,-1.7,0C55.5,21.1,57.1,21.1,57.1,22.1"/>
    <path d="M57.1,25.4c0,1,-1.7,1,-1.7,0C55.5,24.5,57.1,24.3,57.1,25.4"/>
</g>
<rect x="3.3" y="14.6" width="73" height="74.5" fill="none"/>
<polygon fill="none" points="69.5,0 9.9,0 0,9.5 0,98.3 79.4,98.3 79.4,9.5"/>
<circle fill="none" cx="39.7" cy="0" r="0.1"/>
<circle fill="none" cx="59.3" cy="0" r="0.1"/>
<circle fill="none" cx="79.3" cy="24.8" r="0.1"/>
<circle fill="none" cx="79.3" cy="49.1" r="0.1"/>
<circle fill="none" cx="79.3" cy="73.5" r="0.1"/>
<circle fill="none" cx="59.3" cy="98.3" r="0.1"/>
<circle fill="none" cx="39.7" cy="98.3" r="0.1"/>
<circle fill="none" cx="20.1" cy="98.3" r="0.1"/>
<circle fill="none" cx="0" cy="73.5" r="0.1"/>
<circle fill="none" cx="0" cy="49.1" r="0.1"/>
<circle fill="none" cx="0" cy="24.8" r="0.1"/>
<circle fill="none" cx="20.1" cy="0" r="0.1"/>
</g></g><rect stroke="none" stroke-width="0" fill="#FFFFFF" x="0" y="0" width="0" height="0" transform="translate(79.2,49)"/><path stroke="#000000" fill="none" d=""/><text font-family="OpenSansCondensedLight" font-size="14pt" fill="black" transform="translate(79.2,49)"/><rect stroke-width="0" fill="none" width="238.6" transform="translate(-79.6,108.4)"/><text font-family="OpenSansCondensedLight" font-size="14pt" fill="black" transform="translate(-79.6,108.4)" text-anchor="middle"><tspan x="119.3" y="16.8"> </tspan></text><path stroke="#000000" fill="none" transform="translate(-79.6,108.4)" d="M 0 0"/></g><g transform="translate(302,465)"><g><g>
<g stroke-width="0.5" stroke="#000000" stroke-dasharray="none" fill="#FFFFFF">
    <path d="M0,75.9l9.9,-9.5h59.6l9.9,9.5v22.3H0V75.9z"/>
    <path d="M4.1,79.1H75.4c0.4,0,0.8,0.4,0.8,0.8v14.4c0,0.4,-0.4,0.8,-0.8,0.8H4.1c-0.4,0,-0.8,-0.4,-0.8,-0.8v-14.4C3.3,79.5,3.7,79.1,4.1,79.1"/>
    <path d="M57.1,85.6c0,1,-1.7,1,-1.7,0C55.5,84.4,57.1,84.4,57.1,85.6"/>
    <path d="M64.6,80.9h1.7v12.6h-1.7V80.9z"/>
    <path d="M5.8,80.9h5.1c0.4,0,0.8,0.4,0.8,0.8v3.2c0,0.4,-0.4,0.8,-0.8,0.8h-5.1c-0.4,0,-0.8,-0.4,-0.8,-0.8v-3.1C4.9,81.1,5.4,80.9,5.8,80.9"/>
    <path d="M5.8,88.8h5.1c0.4,0,0.8,0.4,0.8,0.8v3.2c0,0.4,-0.4,0.8,-0.8,0.8h-5.1c-0.4,0,-0.8,-0.4,-0.8,-0.8v-3.2C4.9,89.2,5.4,88.8,5.8,88.8"/>
    <path d="M15.8,80.9h5.1c0.4,0,0.8,0.4,0.8,0.8v3.2c0,0.4,-0.4,0.8,-0.8,0.8h-5.1c-0.4,0,-0.8,-0.4,-0.8,-0.8v-3.1C15,81.1,15.2,80.9,15.8,80.9"/>
    <path d="M25.7,80.9h5.1c0.4,0,0.8,0.4,0.8,0.8v3.2c0,0.4,-0.4,0.8,-0.8,0.8h-5.1c-0.4,0,-0.8,-0.4,-0.8,-0.8v-3.1C24.9,81.1,25.3,80.9,25.7,80.9"/>
    <path d="M35.6,80.9h5.1c0.4,0,0.8,0.4,0.8,0.8v3.2c0,0.4,-0.4,0.8,-0.8,0.8h-5.1c-0.4,0,-0.8,-0.4,-0.8,-0.8v-3.1C34.7,81.1,35.2,80.9,35.6,80.9"/>
    <path d="M45.6,80.9h5.1c0.4,0,0.8,0.4,0.8,0.8v3.2c0,0.4,-0.4,0.8,-0.8,0.8h-5.1c-0.4,0,-0.8,-0.4,-0.8,-0.8v-3.1C44.8,81.1,45,80.9,45.6,80.9"/>
    <path d="M15.8,88.8h5.1c0.4,0,0.8,0.4,0.8,0.8v3.2c0,0.4,-0.4,0.8,-0.8,0.8h-5.1c-0.4,0,-0.8,-0.4,-0.8,-0.8v-3.2C15,89.2,15.2,88.8,15.8,88.8"/>
    <path d="M25.7,88.8h5.1c0.4,0,0.8,0.4,0.8,0.8v3.2c0,0.4,-0.4,0.8,-0.8,0.8h-5.1c-0.4,0,-0.8,-0.4,-0.8,-0.8v-3.2C24.9,89.2,25.3,88.8,25.7,88.8"/>
    <path d="M35.6,88.8h5.1c0.4,0,0.8,0.4,0.8,0.8v3.2c0,0.4,-0.4,0.8,-0.8,0.8h-5.1c-0.4,0,-0.8,-0.4,-0.8,-0.8v-3.2C34.7,89.2,35.2,88.8,35.6,88.8"/>
    <path d="M45.6,88.8h5.1c0.4,0,0.8,0.4,0.8,0.8v3.2c0,0.4,-0.4,0.8,-0.8,0.8h-5.1c-0.4,0,-0.8,-0.4,-0.8,-0.8v-3.2C44.8,89.2,45,88.8,45.6,88.8"/>
    <path d="M6.6,75.9l6.6,-6.3h54.7l6.6,6.3H6.6z"/>
    <path d="M57.1,82.4c0,1,-1.7,1,-1.7,0C55.5,81.3,57.1,81.3,57.1,82.4"/>
    <path d="M67.8,80.9h1.7v12.6h-1.7V80.9z"/>
    <path d="M71.3,80.9h1.7v12.6h-1.7V80.9z"/>
    <path d="M57.1,88.8c0,1,-1.7,1,-1.7,0C55.5,87.8,57.1,87.6,57.1,88.8"/>
    <path d="M57.1,91.9c0,1,-1.7,1,-1.7,0C55.5,90.9,57.1,90.9,57.1,91.9"/>
    <path d="M0,53.9l9.9,-9.5h59.6l9.9,9.5v22.3H0V53.9z"/>
    <path d="M4.1,57H75.4c0.4,0,0.8,0.4,0.8,0.8v14.4c0,0.4,-0.4,0.8,-0.8,0.8H4.1c-0.4,0,-0.8,-0.4,-0.8,-0.8v-14.4C3.3,57.4,3.7,57,4.1,57"/>
    <path d="M57.1,63.3c0,1,-1.7,1,-1.7,0C55.5,62.3,57.1,62.3,57.1,63.3"/>
    <path d="M64.6,58.6h1.7v12.6h-1.7V58.6z"/>
    <path d="M5.8,58.6h5.1c0.4,0,0.8,0.4,0.8,0.8v3.2c0,0.4,-0.4,0.8,-0.8,0.8h-5.1c-0.4,0,-0.8,-0.4,-0.8,-0.8v-3.2C4.9,59,5.4,58.6,5.8,58.6"/>
    <path d="M5.8,66.7h5.1c0.4,0,0.8,0.4,0.8,0.8v3.2c0,0.4,-0.4,0.8,-0.8,0.8h-5.1c-0.4,0,-0.8,-0.4,-0.8,-0.8V67.5C4.9,66.9,5.4,66.7,5.8,66.7"/>
    <path d="M15.8,58.6h5.1c0.4,0,0.8,0.4,0.8,0.8v3.2c0,0.4,-0.4,0.8,-0.8,0.8h-5.1c-0.4,0,-0.8,-0.4,-0.8,-0.8v-3.2C15,59,15.2,58.6,15.8,58.6"/>
    <path d="M25.7,58.6h5.1c0.4,0,0.8,0.4,0.8,0.8v3.2c0,0.4,-0.4,0.8,-0.8,0.8h-5.1c-0.4,0,-0.8,-0.4,-0.8,-0.8v-3.2C24.9,59,25.3,58.6,25.7,58.6"/>
    <path d="M35.6,58.6h5.1c0.4,0,0.8,0.4,0.8,0.8v3.2c0,0.4,-0.4,0.8,-0.8,0.8h-5.1c-0.4,0,-0.8,-0.4,-0.8,-0.8v-3.2C34.7,59,35.2,58.6,35.6,58.6"/>
    <path d="M45.6,58.6h5.1c0.4,0,0.8,0.4,0.8,0.8v3.2c0,0.4,-0.4,0.8,-0.8,0.8h-5.1c-0.4,0,-0.8,-0.4,-0.8,-0.8v-3.2C44.8,59,45,58.6,45.6,58.6"/>
    <path d="M15.8,66.7h5.1c0.4,0,0.8,0.4,0.8,0.8v3.2c0,0.4,-0.4,0.8,-0.8,0.8h-5.1c-0.4,0,-0.8,-0.4,-0.8,-0.8V67.5C15,66.9,15.2,66.7,15.8,66.7"/>
    <path d="M25.7,66.7h5.1c0.4,0,0.8,0.4,0.8,0.8v3.2c0,0.4,-0.4,0.8,-0.8,0.8h-5.1c-0.4,0,-0.8,-0.4,-0.8,-0.8V67.5C24.9,66.9,25.3,66.7,25.7,66.7"/>
    <path d="M35.6,66.7h5.1c0.4,0,0.8,0.4,0.8,0.8v3.2c0,0.4,-0.4,0.8,-0.8,0.8h-5.1c-0.4,0,-0.8,-0.4,-0.8,-0.8V67.5C34.7,66.9,35.2,66.7,35.6,66.7"/>
    <path d="M45.6,66.7h5.1c0.4,0,0.8,0.4,0.8,0.8v3.2c0,0.4,-0.4,0.8,-0.8,0.8h-5.1c-0.4,0,-0.8,-0.4,-0.8,-0.8V67.5C44.8,66.9,45,66.7,45.6,66.7"/>
    <path d="M6.6,53.9l6.6,-6.3h54.7l6.6,6.3H6.6z"/>
    <path d="M57.1,60.2c0,1,-1.7,1,-1.7,0S57.1,59.2,57.1,60.2"/>
    <path d="M67.8,58.6h1.7v12.6h-1.7V58.6z"/>
    <path d="M71.3,58.6h1.7v12.6h-1.7V58.6z"/>
    <path d="M57.1,66.7c0,1,-1.7,1,-1.7,0C55.5,65.7,57.1,65.5,57.1,66.7"/>
    <path d="M57.1,69.8c0,1,-1.7,1,-1.7,0C55.5,68.9,57.1,68.6,57.1,69.8"/>
    <path d="M0,31.6l9.9,-9.5h59.6l9.9,9.5v22.3H0V31.6z"/>
    <path d="M4.1,34.7H75.4c0.4,0,0.8,0.4,0.8,0.8v14.4c0,0.4,-0.4,0.8,-0.8,0.8H4.1c-0.4,0,-0.8,-0.4,-0.8,-0.8v-14.4C3.3,35.1,3.7,34.7,4.1,34.7"/>
    <path d="M57.1,41.2c0,1,-1.7,1,-1.7,0C55.5,40,57.1,40,57.1,41.2"/>
    <path d="M64.6,36.3h1.7v12.6h-1.7V36.3z"/>
    <path d="M5.8,36.3h5.1c0.4,0,0.8,0.4,0.8,0.8v3.2c0,0.4,-0.4,0.8,-0.8,0.8h-5.1c-0.4,0,-0.8,-0.4,-0.8,-0.8v-3.2C4.9,36.7,5.4,36.3,5.8,36.3"/>
    <path d="M5.8,44.4h5.1c0.4,0,0.8,0.4,0.8,0.8v3.2c0,0.4,-0.4,0.8,-0.8,0.8h-5.1c-0.4,0,-0.8,-0.4,-0.8,-0.8v-3.2C4.9,44.8,5.4,44.4,5.8,44.4"/>
    <path d="M15.8,36.3h5.1c0.4,0,0.8,0.4,0.8,0.8v3.2c0,0.4,-0.4,0.8,-0.8,0.8h-5.1c-0.4,0,-0.8,-0.4,-0.8,-0.8v-3.2C15,36.7,15.2,36.3,15.8,36.3"/>
    <path d="M25.7,36.3h5.1c0.4,0,0.8,0.4,0.8,0.8v3.2c0,0.4,-0.4,0.8,-0.8,0.8h-5.1c-0.4,0,-0.8,-0.4,-0.8,-0.8v-3.2C24.9,36.7,25.3,36.3,25.7,36.3"/>
    <path d="M35.6,36.3h5.1c0.4,0,0.8,0.4,0.8,0.8v3.2c0,0.4,-0.4,0.8,-0.8,0.8h-5.1c-0.4,0,-0.8,-0.4,-0.8,-0.8v-3.2C34.7,36.7,35.2,36.3,35.6,36.3"/>
    <path d="M45.6,36.3h5.1c0.4,0,0.8,0.4,0.8,0.8v3.2c0,0.4,-0.4,0.8,-0.8,0.8h-5.1c-0.4,0,-0.8,-0.4,-0.8,-0.8v-3.2C44.8,36.7,45,36.3,45.6,36.3"/>
    <path d="M15.8,44.4h5.1c0.4,0,0.8,0.4,0.8,0.8v3.2c0,0.4,-0.4,0.8,-0.8,0.8h-5.1c-0.4,0,-0.8,-0.4,-0.8,-0.8v-3.2C15,44.8,15.2,44.4,15.8,44.4"/>
    <path d="M25.7,44.4h5.1c0.4,0,0.8,0.4,0.8,0.8v3.2c0,0.4,-0.4,0.8,-0.8,0.8h-5.1c-0.4,0,-0.8,-0.4,-0.8,-0.8v-3.2C24.9,44.8,25.3,44.4,25.7,44.4"/>
    <path d="M35.6,44.4h5.1c0.4,0,0.8,0.4,0.8,0.8v3.2c0,0.4,-0.4,0.8,-0.8,0.8h-5.1c-0.4,0,-0.8,-0.4,-0.8,-0.8v-3.2C34.7,44.8,35.2,44.4,35.6,44.4"/>
    <path d="M45.6,44.4h5.1c0.4,0,0.8,0.4,0.8,0.8v3.2c0,0.4,-0.4,0.8,-0.8,0.8h-5.1c-0.4,0,-0.8,-0.4,-0.8,-0.8v-3.2C44.8,44.8,45,44.4,45.6,44.4"/>
    <path d="M6.6,31.6l6.6,-6.3h54.7l6.6,6.3H6.6z"/>
    <path d="M57.1,37.9c0,1,-1.7,1,-1.7,0C55.5,36.9,57.1,36.9,57.1,37.9"/>
    <path d="M67.8,36.3h1.7v12.6h-1.7V36.3z"/>
    <path d="M71.3,36.3h1.7v12.6h-1.7V36.3z"/>
    <path d="M57.1,44.4c0,1,-1.7,1,-1.7,0C55.5,43.4,57.1,43.2,57.1,44.4"/>
    <path d="M57.1,47.5c0,1,-1.7,1,-1.7,0C55.5,46.6,57.1,46.4,57.1,47.5"/>
    <path d="M0,9.5L9.9,0h59.6l9.9,9.5v22.3H0V9.5z"/>
    <path d="M4.1,12.6H75.4c0.4,0,0.8,0.4,0.8,0.8v14.4c0,0.4,-0.4,0.8,-0.8,0.8H4.1c-0.4,0,-0.8,-0.4,-0.8,-0.8v-14.4C3.3,13,3.7,12.6,4.1,12.6"/>
    <path d="M57.1,18.9c0,1,-1.7,1,-1.7,0C55.5,18,57.1,18,57.1,18.9"/>
    <path d="M64.6,14.2h1.7v12.6h-1.7V14.2z"/>
    <path d="M5.8,14.2h5.1c0.4,0,0.8,0.4,0.8,0.8v3.2c0,0.4,-0.4,0.8,-0.8,0.8h-5.1c-0.4,0,-0.8,-0.4,-0.8,-0.8V15C4.9,14.6,5.4,14.2,5.8,14.2"/>
    <path d="M5.8,22.1h5.1c0.4,0,0.8,0.4,0.8,0.8v3.2c0,0.4,-0.4,0.8,-0.8,0.8h-5.1c-0.4,0,-0.8,-0.4,-0.8,-0.8v-3.1C4.9,22.5,5.4,22.1,5.8,22.1"/>
    <path d="M15.8,14.2h5.1c0.4,0,0.8,0.4,0.8,0.8v3.2c0,0.4,-0.4,0.8,-0.8,0.8h-5.1c-0.4,0,-0.8,-0.4,-0.8,-0.8V15C15,14.6,15.2,14.2,15.8,14.2"/>
    <path d="M25.7,14.2h5.1c0.4,0,0.8,0.4,0.8,0.8v3.2c0,0.4,-0.4,0.8,-0.8,0.8h-5.1c-0.4,0,-0.8,-0.4,-0.8,-0.8V15C24.9,14.6,25.3,14.2,25.7,14.2"/>
    <path d="M35.6,14.2h5.1c0.4,0,0.8,0.4,0.8,0.8v3.2c0,0.4,-0.4,0.8,-0.8,0.8h-5.1c-0.4,0,-0.8,-0.4,-0.8,-0.8V15C34.7,14.6,35.2,14.2,35.6,14.2"/>
    <path d="M45.6,14.2h5.1c0.4,0,0.8,0.4,0.8,0.8v3.2c0,0.4,-0.4,0.8,-0.8,0.8h-5.1c-0.4,0,-0.8,-0.4,-0.8,-0.8V15C44.8,14.6,45,14.2,45.6,14.2"/>
    <path d="M15.8,22.1h5.1c0.4,0,0.8,0.4,0.8,0.8v3.2c0,0.4,-0.4,0.8,-0.8,0.8h-5.1c-0.4,0,-0.8,-0.4,-0.8,-0.8v-3.1C15,22.5,15.2,22.1,15.8,22.1"/>
    <path d="M25.7,22.1h5.1c0.4,0,0.8,0.4,0.8,0.8v3.2c0,0.4,-0.4,0.8,-0.8,0.8h-5.1c-0.4,0,-0.8,-0.4,-0.8,-0.8v-3.1C24.9,22.5,25.3,22.1,25.7,22.1"/>
    <path d="M35.6,22.1h5.1c0.4,0,0.8,0.4,0.8,0.8v3.2c0,0.4,-0.4,0.8,-0.8,0.8h-5.1c-0.4,0,-0.8,-0.4,-0.8,-0.8v-3.1C34.7,22.5,35.2,22.1,35.6,22.1"/>
    <path d="M45.6,22.1h5.1c0.4,0,0.8,0.4,0.8,0.8v3.2c0,0.4,-0.4,0.8,-0.8,0.8h-5.1c-0.4,0,-0.8,-0.4,-0.8,-0.8v-3.1C44.8,22.5,45,22.1,45.6,22.1"/>
    <path d="M6.6,9.5l6.6,-6.3h54.7l6.6,6.3H6.6z"/>
    <path d="M57.1,15.8c0,1,-1.7,1,-1.7,0S57.1,14.8,57.1,15.8"/>
    <path d="M67.8,14.2h1.7v12.6h-1.7V14.2z"/>
    <path d="M71.3,14.2h1.7v12.6h-1.7V14.2z"/>
    <path d="M57.1,22.1c0,1,-1.7,1,-1.7,0C55.5,21.1,57.1,21.1,57.1,22.1"/>
    <path d="M57.1,25.4c0,1,-1.7,1,-1.7,0C55.5,24.5,57.1,24.3,57.1,25.4"/>
</g>
<rect x="3.3" y="14.6" width="73" height="74.5" fill="none"/>
<polygon fill="none" points="69.5,0 9.9,0 0,9.5 0,98.3 79.4,98.3 79.4,9.5"/>
<circle fill="none" cx="39.7" cy="0" r="0.1"/>
<circle fill="none" cx="59.3" cy="0" r="0.1"/>
<circle fill="none" cx="79.3" cy="24.8" r="0.1"/>
<circle fill="none" cx="79.3" cy="49.1" r="0.1"/>
<circle fill="none" cx="79.3" cy="73.5" r="0.1"/>
<circle fill="none" cx="59.3" cy="98.3" r="0.1"/>
<circle fill="none" cx="39.7" cy="98.3" r="0.1"/>
<circle fill="none" cx="20.1" cy="98.3" r="0.1"/>
<circle fill="none" cx="0" cy="73.5" r="0.1"/>
<circle fill="none" cx="0" cy="49.1" r="0.1"/>
<circle fill="none" cx="0" cy="24.8" r="0.1"/>
<circle fill="none" cx="20.1" cy="0" r="0.1"/>
</g></g><rect stroke="none" stroke-width="0" fill="#FFFFFF" x="0" y="0" width="0" height="0" transform="translate(79.2,49)"/><path stroke="#000000" fill="none" d=""/><text font-family="OpenSansCondensedLight" font-size="14pt" fill="black" transform="translate(79.2,49)"/><rect stroke-width="0" fill="none" width="238.6" transform="translate(-79.6,108.4)"/><text font-family="OpenSansCondensedLight" font-size="14pt" fill="black" transform="translate(-79.6,108.4)" text-anchor="middle"><tspan x="119.3" y="16.8"> </tspan></text><path stroke="#000000" fill="none" transform="translate(-79.6,108.4)" d="M 0 0"/></g><g transform="translate(312,475)"><g><g>
<g stroke-width="0.5" stroke="#000000" stroke-dasharray="none" fill="#FFFFFF">
    <path d="M0,75.9l9.9,-9.5h59.6l9.9,9.5v22.3H0V75.9z"/>
    <path d="M4.1,79.1H75.4c0.4,0,0.8,0.4,0.8,0.8v14.4c0,0.4,-0.4,0.8,-0.8,0.8H4.1c-0.4,0,-0.8,-0.4,-0.8,-0.8v-14.4C3.3,79.5,3.7,79.1,4.1,79.1"/>
    <path d="M57.1,85.6c0,1,-1.7,1,-1.7,0C55.5,84.4,57.1,84.4,57.1,85.6"/>
    <path d="M64.6,80.9h1.7v12.6h-1.7V80.9z"/>
    <path d="M5.8,80.9h5.1c0.4,0,0.8,0.4,0.8,0.8v3.2c0,0.4,-0.4,0.8,-0.8,0.8h-5.1c-0.4,0,-0.8,-0.4,-0.8,-0.8v-3.1C4.9,81.1,5.4,80.9,5.8,80.9"/>
    <path d="M5.8,88.8h5.1c0.4,0,0.8,0.4,0.8,0.8v3.2c0,0.4,-0.4,0.8,-0.8,0.8h-5.1c-0.4,0,-0.8,-0.4,-0.8,-0.8v-3.2C4.9,89.2,5.4,88.8,5.8,88.8"/>
    <path d="M15.8,80.9h5.1c0.4,0,0.8,0.4,0.8,0.8v3.2c0,0.4,-0.4,0.8,-0.8,0.8h-5.1c-0.4,0,-0.8,-0.4,-0.8,-0.8v-3.1C15,81.1,15.2,80.9,15.8,80.9"/>
    <path d="M25.7,80.9h5.1c0.4,0,0.8,0.4,0.8,0.8v3.2c0,0.4,-0.4,0.8,-0.8,0.8h-5.1c-0.4,0,-0.8,-0.4,-0.8,-0.8v-3.1C24.9,81.1,25.3,80.9,25.7,80.9"/>
    <path d="M35.6,80.9h5.1c0.4,0,0.8,0.4,0.8,0.8v3.2c0,0.4,-0.4,0.8,-0.8,0.8h-5.1c-0.4,0,-0.8,-0.4,-0.8,-0.8v-3.1C34.7,81.1,35.2,80.9,35.6,80.9"/>
    <path d="M45.6,80.9h5.1c0.4,0,0.8,0.4,0.8,0.8v3.2c0,0.4,-0.4,0.8,-0.8,0.8h-5.1c-0.4,0,-0.8,-0.4,-0.8,-0.8v-3.1C44.8,81.1,45,80.9,45.6,80.9"/>
    <path d="M15.8,88.8h5.1c0.4,0,0.8,0.4,0.8,0.8v3.2c0,0.4,-0.4,0.8,-0.8,0.8h-5.1c-0.4,0,-0.8,-0.4,-0.8,-0.8v-3.2C15,89.2,15.2,88.8,15.8,88.8"/>
    <path d="M25.7,88.8h5.1c0.4,0,0.8,0.4,0.8,0.8v3.2c0,0.4,-0.4,0.8,-0.8,0.8h-5.1c-0.4,0,-0.8,-0.4,-0.8,-0.8v-3.2C24.9,89.2,25.3,88.8,25.7,88.8"/>
    <path d="M35.6,88.8h5.1c0.4,0,0.8,0.4,0.8,0.8v3.2c0,0.4,-0.4,0.8,-0.8,0.8h-5.1c-0.4,0,-0.8,-0.4,-0.8,-0.8v-3.2C34.7,89.2,35.2,88.8,35.6,88.8"/>
    <path d="M45.6,88.8h5.1c0.4,0,0.8,0.4,0.8,0.8v3.2c0,0.4,-0.4,0.8,-0.8,0.8h-5.1c-0.4,0,-0.8,-0.4,-0.8,-0.8v-3.2C44.8,89.2,45,88.8,45.6,88.8"/>
    <path d="M6.6,75.9l6.6,-6.3h54.7l6.6,6.3H6.6z"/>
    <path d="M57.1,82.4c0,1,-1.7,1,-1.7,0C55.5,81.3,57.1,81.3,57.1,82.4"/>
    <path d="M67.8,80.9h1.7v12.6h-1.7V80.9z"/>
    <path d="M71.3,80.9h1.7v12.6h-1.7V80.9z"/>
    <path d="M57.1,88.8c0,1,-1.7,1,-1.7,0C55.5,87.8,57.1,87.6,57.1,88.8"/>
    <path d="M57.1,91.9c0,1,-1.7,1,-1.7,0C55.5,90.9,57.1,90.9,57.1,91.9"/>
    <path d="M0,53.9l9.9,-9.5h59.6l9.9,9.5v22.3H0V53.9z"/>
    <path d="M4.1,57H75.4c0.4,0,0.8,0.4,0.8,0.8v14.4c0,0.4,-0.4,0.8,-0.8,0.8H4.1c-0.4,0,-0.8,-0.4,-0.8,-0.8v-14.4C3.3,57.4,3.7,57,4.1,57"/>
    <path d="M57.1,63.3c0,1,-1.7,1,-1.7,0C55.5,62.3,57.1,62.3,57.1,63.3"/>
    <path d="M64.6,58.6h1.7v12.6h-1.7V58.6z"/>
    <path d="M5.8,58.6h5.1c0.4,0,0.8,0.4,0.8,0.8v3.2c0,0.4,-0.4,0.8,-0.8,0.8h-5.1c-0.4,0,-0.8,-0.4,-0.8,-0.8v-3.2C4.9,59,5.4,58.6,5.8,58.6"/>
    <path d="M5.8,66.7h5.1c0.4,0,0.8,0.4,0.8,0.8v3.2c0,0.4,-0.4,0.8,-0.8,0.8h-5.1c-0.4,0,-0.8,-0.4,-0.8,-0.8V67.5C4.9,66.9,5.4,66.7,5.8,66.7"/>
    <path d="M15.8,58.6h5.1c0.4,0,0.8,0.4,0.8,0.8v3.2c0,0.4,-0.4,0.8,-0.8,0.8h-5.1c-0.4,0,-0.8,-0.4,-0.8,-0.8v-3.2C15,59,15.2,58.6,15.8,58.6"/>
    <path d="M25.7,58.6h5.1c0.4,0,0.8,0.4,0.8,0.8v3.2c0,0.4,-0.4,0.8,-0.8,0.8h-5.1c-0.4,0,-0.8,-0.4,-0.8,-0.8v-3.2C24.9,59,25.3,58.6,25.7,58.6"/>
    <path d="M35.6,58.6h5.1c0.4,0,0.8,0.4,0.8,0.8v3.2c0,0.4,-0.4,0.8,-0.8,0.8h-5.1c-0.4,0,-0.8,-0.4,-0.8,-0.8v-3.2C34.7,59,35.2,58.6,35.6,58.6"/>
    <path d="M45.6,58.6h5.1c0.4,0,0.8,0.4,0.8,0.8v3.2c0,0.4,-0.4,0.8,-0.8,0.8h-5.1c-0.4,0,-0.8,-0.4,-0.8,-0.8v-3.2C44.8,59,45,58.6,45.6,58.6"/>
    <path d="M15.8,66.7h5.1c0.4,0,0.8,0.4,0.8,0.8v3.2c0,0.4,-0.4,0.8,-0.8,0.8h-5.1c-0.4,0,-0.8,-0.4,-0.8,-0.8V67.5C15,66.9,15.2,66.7,15.8,66.7"/>
    <path d="M25.7,66.7h5.1c0.4,0,0.8,0.4,0.8,0.8v3.2c0,0.4,-0.4,0.8,-0.8,0.8h-5.1c-0.4,0,-0.8,-0.4,-0.8,-0.8V67.5C24.9,66.9,25.3,66.7,25.7,66.7"/>
    <path d="M35.6,66.7h5.1c0.4,0,0.8,0.4,0.8,0.8v3.2c0,0.4,-0.4,0.8,-0.8,0.8h-5.1c-0.4,0,-0.8,-0.4,-0.8,-0.8V67.5C34.7,66.9,35.2,66.7,35.6,66.7"/>
    <path d="M45.6,66.7h5.1c0.4,0,0.8,0.4,0.8,0.8v3.2c0,0.4,-0.4,0.8,-0.8,0.8h-5.1c-0.4,0,-0.8,-0.4,-0.8,-0.8V67.5C44.8,66.9,45,66.7,45.6,66.7"/>
    <path d="M6.6,53.9l6.6,-6.3h54.7l6.6,6.3H6.6z"/>
    <path d="M57.1,60.2c0,1,-1.7,1,-1.7,0S57.1,59.2,57.1,60.2"/>
    <path d="M67.8,58.6h1.7v12.6h-1.7V58.6z"/>
    <path d="M71.3,58.6h1.7v12.6h-1.7V58.6z"/>
    <path d="M57.1,66.7c0,1,-1.7,1,-1.7,0C55.5,65.7,57.1,65.5,57.1,66.7"/>
    <path d="M57.1,69.8c0,1,-1.7,1,-1.7,0C55.5,68.9,57.1,68.6,57.1,69.8"/>
    <path d="M0,31.6l9.9,-9.5h59.6l9.9,9.5v22.3H0V31.6z"/>
    <path d="M4.1,34.7H75.4c0.4,0,0.8,0.4,0.8,0.8v14.4c0,0.4,-0.4,0.8,-0.8,0.8H4.1c-0.4,0,-0.8,-0.4,-0.8,-0.8v-14.4C3.3,35.1,3.7,34.7,4.1,34.7"/>
    <path d="M57.1,41.2c0,1,-1.7,1,-1.7,0C55.5,40,57.1,40,57.1,41.2"/>
    <path d="M64.6,36.3h1.7v12.6h-1.7V36.3z"/>
    <path d="M5.8,36.3h5.1c0.4,0,0.8,0.4,0.8,0.8v3.2c0,0.4,-0.4,0.8,-0.8,0.8h-5.1c-0.4,0,-0.8,-0.4,-0.8,-0.8v-3.2C4.9,36.7,5.4,36.3,5.8,36.3"/>
    <path d="M5.8,44.4h5.1c0.4,0,0.8,0.4,0.8,0.8v3.2c0,0.4,-0.4,0.8,-0.8,0.8h-5.1c-0.4,0,-0.8,-0.4,-0.8,-0.8v-3.2C4.9,44.8,5.4,44.4,5.8,44.4"/>
    <path d="M15.8,36.3h5.1c0.4,0,0.8,0.4,0.8,0.8v3.2c0,0.4,-0.4,0.8,-0.8,0.8h-5.1c-0.4,0,-0.8,-0.4,-0.8,-0.8v-3.2C15,36.7,15.2,36.3,15.8,36.3"/>
    <path d="M25.7,36.3h5.1c0.4,0,0.8,0.4,0.8,0.8v3.2c0,0.4,-0.4,0.8,-0.8,0.8h-5.1c-0.4,0,-0.8,-0.4,-0.8,-0.8v-3.2C24.9,36.7,25.3,36.3,25.7,36.3"/>
    <path d="M35.6,36.3h5.1c0.4,0,0.8,0.4,0.8,0.8v3.2c0,0.4,-0.4,0.8,-0.8,0.8h-5.1c-0.4,0,-0.8,-0.4,-0.8,-0.8v-3.2C34.7,36.7,35.2,36.3,35.6,36.3"/>
    <path d="M45.6,36.3h5.1c0.4,0,0.8,0.4,0.8,0.8v3.2c0,0.4,-0.4,0.8,-0.8,0.8h-5.1c-0.4,0,-0.8,-0.4,-0.8,-0.8v-3.2C44.8,36.7,45,36.3,45.6,36.3"/>
    <path d="M15.8,44.4h5.1c0.4,0,0.8,0.4,0.8,0.8v3.2c0,0.4,-0.4,0.8,-0.8,0.8h-5.1c-0.4,0,-0.8,-0.4,-0.8,-0.8v-3.2C15,44.8,15.2,44.4,15.8,44.4"/>
    <path d="M25.7,44.4h5.1c0.4,0,0.8,0.4,0.8,0.8v3.2c0,0.4,-0.4,0.8,-0.8,0.8h-5.1c-0.4,0,-0.8,-0.4,-0.8,-0.8v-3.2C24.9,44.8,25.3,44.4,25.7,44.4"/>
    <path d="M35.6,44.4h5.1c0.4,0,0.8,0.4,0.8,0.8v3.2c0,0.4,-0.4,0.8,-0.8,0.8h-5.1c-0.4,0,-0.8,-0.4,-0.8,-0.8v-3.2C34.7,44.8,35.2,44.4,35.6,44.4"/>
    <path d="M45.6,44.4h5.1c0.4,0,0.8,0.4,0.8,0.8v3.2c0,0.4,-0.4,0.8,-0.8,0.8h-5.1c-0.4,0,-0.8,-0.4,-0.8,-0.8v-3.2C44.8,44.8,45,44.4,45.6,44.4"/>
    <path d="M6.6,31.6l6.6,-6.3h54.7l6.6,6.3H6.6z"/>
    <path d="M57.1,37.9c0,1,-1.7,1,-1.7,0C55.5,36.9,57.1,36.9,57.1,37.9"/>
    <path d="M67.8,36.3h1.7v12.6h-1.7V36.3z"/>
    <path d="M71.3,36.3h1.7v12.6h-1.7V36.3z"/>
    <path d="M57.1,44.4c0,1,-1.7,1,-1.7,0C55.5,43.4,57.1,43.2,57.1,44.4"/>
    <path d="M57.1,47.5c0,1,-1.7,1,-1.7,0C55.5,46.6,57.1,46.4,57.1,47.5"/>
    <path d="M0,9.5L9.9,0h59.6l9.9,9.5v22.3H0V9.5z"/>
    <path d="M4.1,12.6H75.4c0.4,0,0.8,0.4,0.8,0.8v14.4c0,0.4,-0.4,0.8,-0.8,0.8H4.1c-0.4,0,-0.8,-0.4,-0.8,-0.8v-14.4C3.3,13,3.7,12.6,4.1,12.6"/>
    <path d="M57.1,18.9c0,1,-1.7,1,-1.7,0C55.5,18,57.1,18,57.1,18.9"/>
    <path d="M64.6,14.2h1.7v12.6h-1.7V14.2z"/>
    <path d="M5.8,14.2h5.1c0.4,0,0.8,0.4,0.8,0.8v3.2c0,0.4,-0.4,0.8,-0.8,0.8h-5.1c-0.4,0,-0.8,-0.4,-0.8,-0.8V15C4.9,14.6,5.4,14.2,5.8,14.2"/>
    <path d="M5.8,22.1h5.1c0.4,0,0.8,0.4,0.8,0.8v3.2c0,0.4,-0.4,0.8,-0.8,0.8h-5.1c-0.4,0,-0.8,-0.4,-0.8,-0.8v-3.1C4.9,22.5,5.4,22.1,5.8,22.1"/>
    <path d="M15.8,14.2h5.1c0.4,0,0.8,0.4,0.8,0.8v3.2c0,0.4,-0.4,0.8,-0.8,0.8h-5.1c-0.4,0,-0.8,-0.4,-0.8,-0.8V15C15,14.6,15.2,14.2,15.8,14.2"/>
    <path d="M25.7,14.2h5.1c0.4,0,0.8,0.4,0.8,0.8v3.2c0,0.4,-0.4,0.8,-0.8,0.8h-5.1c-0.4,0,-0.8,-0.4,-0.8,-0.8V15C24.9,14.6,25.3,14.2,25.7,14.2"/>
    <path d="M35.6,14.2h5.1c0.4,0,0.8,0.4,0.8,0.8v3.2c0,0.4,-0.4,0.8,-0.8,0.8h-5.1c-0.4,0,-0.8,-0.4,-0.8,-0.8V15C34.7,14.6,35.2,14.2,35.6,14.2"/>
    <path d="M45.6,14.2h5.1c0.4,0,0.8,0.4,0.8,0.8v3.2c0,0.4,-0.4,0.8,-0.8,0.8h-5.1c-0.4,0,-0.8,-0.4,-0.8,-0.8V15C44.8,14.6,45,14.2,45.6,14.2"/>
    <path d="M15.8,22.1h5.1c0.4,0,0.8,0.4,0.8,0.8v3.2c0,0.4,-0.4,0.8,-0.8,0.8h-5.1c-0.4,0,-0.8,-0.4,-0.8,-0.8v-3.1C15,22.5,15.2,22.1,15.8,22.1"/>
    <path d="M25.7,22.1h5.1c0.4,0,0.8,0.4,0.8,0.8v3.2c0,0.4,-0.4,0.8,-0.8,0.8h-5.1c-0.4,0,-0.8,-0.4,-0.8,-0.8v-3.1C24.9,22.5,25.3,22.1,25.7,22.1"/>
    <path d="M35.6,22.1h5.1c0.4,0,0.8,0.4,0.8,0.8v3.2c0,0.4,-0.4,0.8,-0.8,0.8h-5.1c-0.4,0,-0.8,-0.4,-0.8,-0.8v-3.1C34.7,22.5,35.2,22.1,35.6,22.1"/>
    <path d="M45.6,22.1h5.1c0.4,0,0.8,0.4,0.8,0.8v3.2c0,0.4,-0.4,0.8,-0.8,0.8h-5.1c-0.4,0,-0.8,-0.4,-0.8,-0.8v-3.1C44.8,22.5,45,22.1,45.6,22.1"/>
    <path d="M6.6,9.5l6.6,-6.3h54.7l6.6,6.3H6.6z"/>
    <path d="M57.1,15.8c0,1,-1.7,1,-1.7,0S57.1,14.8,57.1,15.8"/>
    <path d="M67.8,14.2h1.7v12.6h-1.7V14.2z"/>
    <path d="M71.3,14.2h1.7v12.6h-1.7V14.2z"/>
    <path d="M57.1,22.1c0,1,-1.7,1,-1.7,0C55.5,21.1,57.1,21.1,57.1,22.1"/>
    <path d="M57.1,25.4c0,1,-1.7,1,-1.7,0C55.5,24.5,57.1,24.3,57.1,25.4"/>
</g>
<rect x="3.3" y="14.6" width="73" height="74.5" fill="none"/>
<polygon fill="none" points="69.5,0 9.9,0 0,9.5 0,98.3 79.4,98.3 79.4,9.5"/>
<circle fill="none" cx="39.7" cy="0" r="0.1"/>
<circle fill="none" cx="59.3" cy="0" r="0.1"/>
<circle fill="none" cx="79.3" cy="24.8" r="0.1"/>
<circle fill="none" cx="79.3" cy="49.1" r="0.1"/>
<circle fill="none" cx="79.3" cy="73.5" r="0.1"/>
<circle fill="none" cx="59.3" cy="98.3" r="0.1"/>
<circle fill="none" cx="39.7" cy="98.3" r="0.1"/>
<circle fill="none" cx="20.1" cy="98.3" r="0.1"/>
<circle fill="none" cx="0" cy="73.5" r="0.1"/>
<circle fill="none" cx="0" cy="49.1" r="0.1"/>
<circle fill="none" cx="0" cy="24.8" r="0.1"/>
<circle fill="none" cx="20.1" cy="0" r="0.1"/>
</g></g><rect stroke="none" stroke-width="0" fill="#FFFFFF" x="0" y="0" width="0" height="0" transform="translate(79.2,49)"/><path stroke="#000000" fill="none" d=""/><text font-family="OpenSansCondensedLight" font-size="14pt" fill="black" transform="translate(79.2,49)"/><rect stroke-width="0" fill="none" width="238.6" transform="translate(-79.6,108.4)"/><text font-family="OpenSansCondensedLight" font-size="14pt" fill="black" transform="translate(-79.6,108.4)" text-anchor="middle"><tspan x="119.3" y="16.8"> </tspan></text><path stroke="#000000" fill="none" transform="translate(-79.6,108.4)" d="M 0 0"/></g><g transform="translate(292,579)"><g><g>
<g fill="#FFFFFF">
    <path d="M55.8,20c-0.2,-4.1,-5.7,-7.6,-14.9,-7.6H14.4C5.2,12.4,0,9.3,0,5.4V0h113v5.4c0,3.9,-5.2,7,-14.6,7H70.7C61.6,12.4,55.9,15.8,55.8,20"/>
</g>
<g stroke="#000000" stroke-dasharray="none">
    <path fill="none" stroke-linejoin="round" d="M113,0v5.4c0,3.9,-5.2,7,-14.6,7H70.7c-9.1,0,-14.8,3.4,-14.9,7.6"/>
    <path fill="none" stroke-linejoin="round" d="M55.8,20c-0.2,-4.1,-5.7,-7.6,-14.9,-7.6H14.4C5.2,12.4,0,9.3,0,5.4V0"/>
</g>
<rect x="2.4" y="1.3" fill="none" width="108.1" height="17.2"/>
<circle fill="none" cx="57.5" cy="16.4" r="0.1"/>
<circle fill="none" cx="68.3" cy="12.4" r="0.1"/>
<circle fill="none" cx="89.5" cy="12.4" r="0.1"/>
<circle fill="none" cx="108.5" cy="10.7" r="0.1"/>
<circle fill="none" cx="113" cy="5" r="0.1"/>
<circle fill="none" cx="113" cy="0" r="0.1"/>
<circle fill="none" cx="0" cy="0" r="0.1"/>
<circle fill="none" cx="0" cy="5" r="0.1"/>
<circle fill="none" cx="4.9" cy="10.8" r="0.1"/>
<circle fill="none" cx="16.8" cy="12.4" r="0.1"/>
<circle fill="none" cx="41.4" cy="12.3" r="0.1"/>
<circle fill="none" cx="54.1" cy="16.5" r="0.1"/>
</g></g><rect stroke="none" stroke-width="0" fill="#FFFFFF" x="0" y="0" width="0" height="0" transform="translate(108.4,10.6)"/><path stroke="#000000" fill="none" d=""/><text font-family="OpenSansCondensedLight" font-size="14pt" fill="black" transform="translate(108.4,10.6)"/><rect stroke-width="0" fill="none" width="339.6" transform="translate(-113.3,30)"/><text font-family="OpenSansCondensedLight" font-size="14pt" fill="black" transform="translate(-113.3,30)" text-anchor="middle"><tspan x="169.8" y="16.8"> 106</tspan></text><path stroke="#000000" fill="none" transform="translate(-113.3,30)" d="M 155.8 19 183.8 19"/></g><g transform="translate(196.6,247)"><g><g>
<path d="M382,0H0v40h382V0L382,0z" stroke="#000000" stroke-dasharray="5,5" fill="#FFFFFF"/>
<rect x="16.7" y="1.8" width="348.6" height="36.4" fill="none"/>
<circle fill="none" cx="191" cy="0" r="0.1"/>
<circle fill="none" cx="285.7" cy="0" r="0.1"/>
<circle fill="none" cx="382" cy="10.1" r="0.1"/>
<circle fill="none" cx="382" cy="20" r="0.1"/>
<circle fill="none" cx="382" cy="29.9" r="0.1"/>
<circle fill="none" cx="285.7" cy="40" r="0.1"/>
<circle fill="none" cx="191" cy="40" r="0.1"/>
<circle fill="none" cx="96.4" cy="40" r="0.1"/>
<circle fill="none" cx="0" cy="29.9" r="0.1"/>
<circle fill="none" cx="0" cy="20" r="0.1"/>
<circle fill="none" cx="0" cy="10.1" r="0.1"/>
<circle fill="none" cx="96.4" cy="0" r="0.1"/>
</g></g><rect stroke="none" stroke-width="0" fill="#FFFFFF" x="0" y="0" width="0" height="0" transform="translate(381.9,19.9)"/><path stroke="#000000" fill="none" d=""/><text font-family="OpenSansCondensedLight" font-size="14pt" fill="black" transform="translate(381.9,19.9)"/><rect stroke-width="0" fill="none" width="348.6" height="36.4" transform="translate(16.7,1.8)"/><text font-family="OpenSansCondensedLight" font-size="14pt" fill="black" transform="translate(16.7,1.8)" text-anchor="middle"><tspan x="174.3" y="24.5"> 108</tspan></text><path stroke="#000000" fill="none" transform="translate(16.7,1.8)" d="M 160.3 27 188.3 27"/></g><g><path stroke="black" stroke-dasharray="none" d="M 148 143 319 336" fill="none"/><path fill="black" stroke="black" d="M 8 0 L 0 4 L 8 8 z" transform="translate(146,134.4) scale(1,1) rotate(48.6)"/><path fill="black" stroke="black" d="M 8 0 L 0 4 L 8 8 z" transform="translate(321,344.6) scale(1,1) rotate(-131.4)"/><g><g label-idx="0" cursor="move" transform="translate(233.5, 239.5)"><rect fill="white" rx="3" ry="3" x="0" y="0" width="0" height="0"/><text text-anchor="middle" font-size="14pt" font-family="OpenSansCondensedLight" y="0.8em" display="none" xml:space="preserve" transform="translate(0,0)"/></g></g></g><g><path stroke="black" stroke-dasharray="none" d="M 344 153 344 321" fill="none"/><path fill="black" stroke="black" d="M 8 0 L 0 4 L 8 8 z" transform="translate(348,145) scale(1,1) rotate(-270)"/><path fill="black" stroke="black" d="M 8 0 L 0 4 L 8 8 z" transform="translate(340,329) scale(1,1) rotate(-90)"/><g><g label-idx="0" cursor="move" transform="translate(344, 237)"><rect fill="white" rx="3" ry="3" x="0" y="0" width="0" height="0"/><text text-anchor="middle" font-size="14pt" font-family="OpenSansCondensedLight" y="0.8em" display="none" xml:space="preserve" transform="translate(0,0)"/></g></g></g><g><path stroke="black" stroke-dasharray="none" d="M 619 142 426 360" fill="none"/><path fill="black" stroke="black" d="M 8 0 L 0 4 L 8 8 z" transform="translate(627,138.6) scale(1,1) rotate(-228.6)"/><path fill="black" stroke="black" d="M 8 0 L 0 4 L 8 8 z" transform="translate(418,363.4) scale(1,1) rotate(-48.6)"/><g><g label-idx="0" cursor="move" transform="translate(522.5, 251)"><rect fill="white" rx="3" ry="3" x="0" y="0" width="0" height="0"/><text text-anchor="middle" font-size="14pt" font-family="OpenSansCondensedLight" y="0.8em" display="none" xml:space="preserve" transform="translate(0,0)"/></g></g></g><g transform="translate(108,82)"><g><g>
<g fill="#FFFFFF">
    <path d="M277.8,0c0.8,4.5,27.5,8.4,72.4,8.4h128.3c44.9,0,70,3.3,70,7.7v5.9H0v-5.9c0,-4.3,25.2,-7.7,70.8,-7.7h134.6C249.5,8.4,277,4.6,277.8,0"/>
</g>
<g stroke="#000000" stroke-dasharray="none">
    <path fill="none" stroke-linejoin="round" d="M0,22v-5.9c0,-4.3,25.2,-7.7,70.8,-7.7h134.6c44.1,0,71.6,-3.8,72.4,-8.4"/>
    <path fill="none" stroke-linejoin="round" d="M277.8,0c0.8,4.5,27.5,8.4,72.4,8.4h128.3c44.9,0,70,3.3,70,7.7v5.9"/>
</g>
<rect x="11.8" y="1.5" fill="none" width="524.9" height="18.9"/>
<circle fill="none" cx="286.2" cy="3.9" r="0.1"/>
<circle fill="none" cx="348" cy="8.4" r="0.1"/>
<circle fill="none" cx="467.5" cy="8.4" r="0.1"/>
<circle fill="none" cx="525.4" cy="10.1" r="0.1"/>
<circle fill="none" cx="549" cy="16.5" r="0.1"/>
<circle fill="none" cx="549" cy="22" r="0.1"/>
<circle fill="none" cx="0.5" cy="22" r="0.1"/>
<circle fill="none" cx="0.5" cy="16.5" r="0.1"/>
<circle fill="none" cx="22.2" cy="10.3" r="0.1"/>
<circle fill="none" cx="114.6" cy="8.4" r="0.1"/>
<circle fill="none" cx="217.7" cy="8.3" r="0.1"/>
<circle fill="none" cx="270.1" cy="3.9" r="0.1"/>
</g></g><rect stroke="none" stroke-width="1" fill="#FFFFFF" x="0" y="0" width="40" height="20" transform="translate(350.9,-57.1)"/><path stroke="#000000" fill="none" d="M348,8.4 C375.3,-2.9 339.5,-25.7 366.8 -37.1"/><text font-family="OpenSansCondensedLight" font-size="14pt" fill="black" transform="translate(350.9,-57.1)" text-anchor="middle"><tspan x="20" y="16.3">102</tspan></text><rect stroke-width="0" fill="none" width="1647.3" transform="translate(-549.1,32.1)"/><text font-family="OpenSansCondensedLight" font-size="14pt" fill="black" transform="translate(-549.1,32.1)" text-anchor="middle"><tspan x="823.6" y="16.8"> </tspan></text><path stroke="#000000" fill="none" transform="translate(-549.1,32.1)" d="M 0 0"/></g><g><path stroke="black" stroke-dasharray="none" d="M 348 475 348 412" fill="none"/><path fill="black" stroke="black" d="" transform="translate(348,475) scale(1,1) rotate(-90)"/><path fill="black" stroke="black" d="M 8 0 L 0 4 L 8 8 z" transform="translate(352,404) scale(1,1) rotate(-270)"/><g><g label-idx="0" cursor="move" transform="translate(348, 443.5)"><rect fill="white" rx="3" ry="3" x="0" y="0" width="0" height="0"/><text text-anchor="middle" font-size="14pt" font-family="OpenSansCondensedLight" y="0.8em" display="none" xml:space="preserve" transform="translate(0,0)"/></g></g></g></g><defs/></svg>