<svg xmlns="http://www.w3.org/2000/svg" xmlns:xlink="http://www.w3.org/1999/xlink" version="1.1" width="664" height="867"><g><g model-id="119e321b-0233-4ce2-975c-e8fdaee79174" transform="translate(321,179)"><g><g>
<path d="M28,0H0v29h28V0L28,0z" stroke="none" stroke-dasharray="none" fill="#FFFFFF"/>
<rect x="1.2" y="1.3" width="25.6" height="26.4" fill="none"/>
<circle fill="none" cx="14" cy="0" r="0.1"/>
<circle fill="none" cx="20.9" cy="0" r="0.1"/>
<circle fill="none" cx="28" cy="7.3" r="0.1"/>
<circle fill="none" cx="28" cy="14.5" r="0.1"/>
<circle fill="none" cx="28" cy="21.7" r="0.1"/>
<circle fill="none" cx="20.9" cy="29" r="0.1"/>
<circle fill="none" cx="14" cy="29" r="0.1"/>
<circle fill="none" cx="7.1" cy="29" r="0.1"/>
<circle fill="none" cx="0" cy="21.7" r="0.1"/>
<circle fill="none" cx="0" cy="14.5" r="0.1"/>
<circle fill="none" cx="0" cy="7.3" r="0.1"/>
<circle fill="none" cx="7.1" cy="0" r="0.1"/>
</g></g><rect stroke="none" stroke-width="0" fill="#FFFFFF" x="0" y="0" width="0" height="0" transform="translate(27.9,14.4)"/><path stroke="#000000" fill="none" d=""/><text font-family="OpenSansCondensedLight" font-size="14pt" fill="black" transform="translate(27.9,14.4)"/><rect stroke-width="0" fill="none" width="25.6" height="26.4" transform="translate(1.2,1.3)"/><text font-family="OpenSansCondensedLight" font-size="14pt" fill="black" transform="translate(1.2,1.3)" text-anchor="middle"><tspan x="12.8" y="19.5"> </tspan></text><path stroke="#000000" fill="none" transform="translate(1.2,1.3)" d="M 0 0"/></g><g model-id="f4546544-a30b-b974-8201-47652c5423ec" transform="translate(322,464)"><g><g>
<path d="M28,0H0v29h28V0L28,0z" stroke="none" stroke-dasharray="none" fill="#FFFFFF"/>
<rect x="1.2" y="1.3" width="25.6" height="26.4" fill="none"/>
<circle fill="none" cx="14" cy="0" r="0.1"/>
<circle fill="none" cx="20.9" cy="0" r="0.1"/>
<circle fill="none" cx="28" cy="7.3" r="0.1"/>
<circle fill="none" cx="28" cy="14.5" r="0.1"/>
<circle fill="none" cx="28" cy="21.7" r="0.1"/>
<circle fill="none" cx="20.9" cy="29" r="0.1"/>
<circle fill="none" cx="14" cy="29" r="0.1"/>
<circle fill="none" cx="7.1" cy="29" r="0.1"/>
<circle fill="none" cx="0" cy="21.7" r="0.1"/>
<circle fill="none" cx="0" cy="14.5" r="0.1"/>
<circle fill="none" cx="0" cy="7.3" r="0.1"/>
<circle fill="none" cx="7.1" cy="0" r="0.1"/>
</g></g><rect stroke="none" stroke-width="0" fill="#FFFFFF" x="0" y="0" width="0" height="0" transform="translate(27.9,14.4)"/><path stroke="#000000" fill="none" d=""/><text font-family="OpenSansCondensedLight" font-size="14pt" fill="black" transform="translate(27.9,14.4)"/><rect stroke-width="0" fill="none" width="25.6" height="26.4" transform="translate(1.2,1.3)"/><text font-family="OpenSansCondensedLight" font-size="14pt" fill="black" transform="translate(1.2,1.3)" text-anchor="middle"><tspan x="12.8" y="19.5"> </tspan></text><path stroke="#000000" fill="none" transform="translate(1.2,1.3)" d="M 0 0"/></g><g model-id="50dc0072-733b-a579-4fb1-d1949b842460" transform="translate(596,14.3)"><polygon fill="#000000" points="0,0 4.2,11.2 11.8,2" transform="translate(-5.9,27.3)"/>
<rect fill="none" width="1" height="1" transform="translate(33.3,-0.5)"/>
<g><g>
<rect x="0" y="0" width="28.3" height="28.3" opacity="0"/>
<path fill="none" stroke="#000000" stroke-width="1" d="M28.3,0C16.7,2.2,7,13.4,0,28.3"/>
</g></g><rect stroke="none" stroke-width="0" fill="#FFFFFF" x="0" y="0" width="0" height="0"/><path stroke="#000000" fill="none"/><text font-family="OpenSansCondensedLight" font-size="14pt" fill="black" transform="translate(0,0)"/><rect stroke-width="0" fill="none" width="1" height="1" transform="translate(33.3,-0.5)"/><text font-family="OpenSansCondensedLight" font-size="14pt" fill="black" text-decoration="none" transform="translate(33.3,-0.5)"><tspan x="0" y="6.8">500</tspan></text><path stroke="#000000" fill="none" transform="translate(33.3,-0.5)"/></g><g model-id="a89d78ee-38a7-2307-0698-6ef3203ad372" transform="translate(320,25)"><g><g>
<path d="M94.5,0H0v94.5h94.5V0L94.5,0z" stroke="#000000" stroke-dasharray="none" fill="#FFFFFF"/>
<rect x="4.1" y="4.3" width="86.2" height="85.9" fill="none"/>
<circle fill="none" cx="47.2" cy="0" r="0.1"/>
<circle fill="none" cx="70.7" cy="0" r="0.1"/>
<circle fill="none" cx="94.5" cy="23.8" r="0.1"/>
<circle fill="none" cx="94.5" cy="47.2" r="0.1"/>
<circle fill="none" cx="94.5" cy="70.7" r="0.1"/>
<circle fill="none" cx="70.7" cy="94.5" r="0.1"/>
<circle fill="none" cx="47.2" cy="94.5" r="0.1"/>
<circle fill="none" cx="23.8" cy="94.5" r="0.1"/>
<circle fill="none" cx="0" cy="70.7" r="0.1"/>
<circle fill="none" cx="0" cy="47.2" r="0.1"/>
<circle fill="none" cx="0" cy="23.8" r="0.1"/>
<circle fill="none" cx="23.8" cy="0" r="0.1"/>
</g></g><rect stroke="none" stroke-width="1" fill="#FFFFFF" x="0" y="0" width="40" height="20" transform="translate(-72.1,-16.3)"/><path stroke="#000000" fill="none" d="M0,23.8 C-6.2,0.5 -28.5,27 -34.8 3.7"/><text font-family="OpenSansCondensedLight" font-size="14pt" fill="black" transform="translate(-72.1,-16.3)" text-anchor="middle"><tspan x="20" y="16.3">502</tspan></text><rect stroke-width="0" fill="none" width="86.2" height="85.9" transform="translate(4.1,4.3)"/><text font-family="OpenSansCondensedLight" font-size="14pt" fill="black" transform="translate(4.1,4.3)" text-anchor="middle"><tspan x="43.1" y="49.2">CPU</tspan></text><path stroke="#000000" fill="none" transform="translate(4.1,4.3)" d="M 0 0"/></g><g model-id="362aeb50-0b46-3cd1-4ae8-b06b2495a68f" transform="translate(64,200)"><g><g>
<path d="M94.5,0H0v94.5h94.5V0L94.5,0z" stroke="#000000" stroke-dasharray="none" fill="#FFFFFF"/>
<rect x="4.1" y="4.3" width="86.2" height="85.9" fill="none"/>
<circle fill="none" cx="47.2" cy="0" r="0.1"/>
<circle fill="none" cx="70.7" cy="0" r="0.1"/>
<circle fill="none" cx="94.5" cy="23.8" r="0.1"/>
<circle fill="none" cx="94.5" cy="47.2" r="0.1"/>
<circle fill="none" cx="94.5" cy="70.7" r="0.1"/>
<circle fill="none" cx="70.7" cy="94.5" r="0.1"/>
<circle fill="none" cx="47.2" cy="94.5" r="0.1"/>
<circle fill="none" cx="23.8" cy="94.5" r="0.1"/>
<circle fill="none" cx="0" cy="70.7" r="0.1"/>
<circle fill="none" cx="0" cy="47.2" r="0.1"/>
<circle fill="none" cx="0" cy="23.8" r="0.1"/>
<circle fill="none" cx="23.8" cy="0" r="0.1"/>
</g></g><rect stroke="none" stroke-width="1" fill="#FFFFFF" x="0" y="0" width="40" height="20" transform="translate(27.1,-70.1)"/><path stroke="#000000" fill="none" d="M47.2,0 C68.5,-21.3 25.9,-28.8 47.2 -50.1"/><text font-family="OpenSansCondensedLight" font-size="14pt" fill="black" transform="translate(27.1,-70.1)" text-anchor="middle"><tspan x="20" y="16.3">504</tspan></text><rect stroke-width="0" fill="none" width="86.2" height="85.9" transform="translate(4.1,4.3)"/><text font-family="OpenSansCondensedLight" font-size="14pt" fill="black" transform="translate(4.1,4.3)" text-anchor="middle"><tspan x="43.1" y="38.7">INPUT</tspan><tspan x="43.1" y="59.7">DEVICES</tspan></text><path stroke="#000000" fill="none" transform="translate(4.1,4.3)" d="M 0 0"/></g><g model-id="0b10358b-06c5-d561-378a-d400274784d5" transform="translate(320,200)"><g><g>
<path d="M94.5,0H0v94.5h94.5V0L94.5,0z" stroke="#000000" stroke-dasharray="none" fill="#FFFFFF"/>
<rect x="4.1" y="4.3" width="86.2" height="85.9" fill="none"/>
<circle fill="none" cx="47.2" cy="0" r="0.1"/>
<circle fill="none" cx="70.7" cy="0" r="0.1"/>
<circle fill="none" cx="94.5" cy="23.8" r="0.1"/>
<circle fill="none" cx="94.5" cy="47.2" r="0.1"/>
<circle fill="none" cx="94.5" cy="70.7" r="0.1"/>
<circle fill="none" cx="70.7" cy="94.5" r="0.1"/>
<circle fill="none" cx="47.2" cy="94.5" r="0.1"/>
<circle fill="none" cx="23.8" cy="94.5" r="0.1"/>
<circle fill="none" cx="0" cy="70.7" r="0.1"/>
<circle fill="none" cx="0" cy="47.2" r="0.1"/>
<circle fill="none" cx="0" cy="23.8" r="0.1"/>
<circle fill="none" cx="23.8" cy="0" r="0.1"/>
</g></g><rect stroke="none" stroke-width="1" fill="#FFFFFF" x="0" y="0" width="40" height="20" transform="translate(80.6,-62.1)"/><path stroke="#000000" fill="none" d="M70.7,0 C98.8,-7.6 66.7,-34.5 94.8 -42.1"/><text font-family="OpenSansCondensedLight" font-size="14pt" fill="black" transform="translate(80.6,-62.1)" text-anchor="middle"><tspan x="20" y="16.3">506</tspan></text><rect stroke-width="0" fill="none" width="86.2" height="85.9" transform="translate(4.1,4.3)"/><text font-family="OpenSansCondensedLight" font-size="14pt" fill="black" transform="translate(4.1,4.3)" text-anchor="middle"><tspan x="43.1" y="49.2">MEMORY</tspan></text><path stroke="#000000" fill="none" transform="translate(4.1,4.3)" d="M 0 0"/></g><g model-id="3b838080-475f-c82c-1e8a-125ea0cb9e47" transform="translate(551.5,200)"><g><g>
<path d="M94.5,0H0v94.5h94.5V0L94.5,0z" stroke="#000000" stroke-dasharray="none" fill="#FFFFFF"/>
<rect x="4.1" y="4.3" width="86.2" height="85.9" fill="none"/>
<circle fill="none" cx="47.2" cy="0" r="0.1"/>
<circle fill="none" cx="70.7" cy="0" r="0.1"/>
<circle fill="none" cx="94.5" cy="23.8" r="0.1"/>
<circle fill="none" cx="94.5" cy="47.2" r="0.1"/>
<circle fill="none" cx="94.5" cy="70.7" r="0.1"/>
<circle fill="none" cx="70.7" cy="94.5" r="0.1"/>
<circle fill="none" cx="47.2" cy="94.5" r="0.1"/>
<circle fill="none" cx="23.8" cy="94.5" r="0.1"/>
<circle fill="none" cx="0" cy="70.7" r="0.1"/>
<circle fill="none" cx="0" cy="47.2" r="0.1"/>
<circle fill="none" cx="0" cy="23.8" r="0.1"/>
<circle fill="none" cx="23.8" cy="0" r="0.1"/>
</g></g><rect stroke="none" stroke-width="1" fill="#FFFFFF" x="0" y="0" width="40" height="20" transform="translate(-26.3,-62.1)"/><path stroke="#000000" fill="none" d="M23.8,0 C31.4,-28.2 -8,-13.9 -0.5 -42.1"/><text font-family="OpenSansCondensedLight" font-size="14pt" fill="black" transform="translate(-26.3,-62.1)" text-anchor="middle"><tspan x="20" y="16.3">508</tspan></text><rect stroke-width="0" fill="none" width="86.2" height="85.9" transform="translate(4.1,4.3)"/><text font-family="OpenSansCondensedLight" font-size="14pt" fill="black" transform="translate(4.1,4.3)" text-anchor="middle"><tspan x="43.1" y="38.7">OUTPUT</tspan><tspan x="43.1" y="59.7">DEVICES</tspan></text><path stroke="#000000" fill="none" transform="translate(4.1,4.3)" d="M 0 0"/></g><g model-id="82175138-59da-4e04-b670-199634a5c3f0" transform="translate(320,377)"><g><g>
<path d="M94.5,0H0v94.5h94.5V0L94.5,0z" stroke="#000000" stroke-dasharray="none" fill="#FFFFFF"/>
<rect x="4.1" y="4.3" width="86.2" height="85.9" fill="none"/>
<circle fill="none" cx="47.2" cy="0" r="0.1"/>
<circle fill="none" cx="70.7" cy="0" r="0.1"/>
<circle fill="none" cx="94.5" cy="23.8" r="0.1"/>
<circle fill="none" cx="94.5" cy="47.2" r="0.1"/>
<circle fill="none" cx="94.5" cy="70.7" r="0.1"/>
<circle fill="none" cx="70.7" cy="94.5" r="0.1"/>
<circle fill="none" cx="47.2" cy="94.5" r="0.1"/>
<circle fill="none" cx="23.8" cy="94.5" r="0.1"/>
<circle fill="none" cx="0" cy="70.7" r="0.1"/>
<circle fill="none" cx="0" cy="47.2" r="0.1"/>
<circle fill="none" cx="0" cy="23.8" r="0.1"/>
<circle fill="none" cx="23.8" cy="0" r="0.1"/>
</g></g><rect stroke="none" stroke-width="1" fill="#FFFFFF" x="0" y="0" width="40" height="20" transform="translate(27.1,144.4)"/><path stroke="#000000" fill="none" d="M47.2,94.5 C26,115.6 68.4,123.3 47.2 144.4"/><text font-family="OpenSansCondensedLight" font-size="14pt" fill="black" transform="translate(27.1,144.4)" text-anchor="middle"><tspan x="20" y="16.3">510</tspan></text><rect stroke-width="0" fill="none" width="86.2" height="85.9" transform="translate(4.1,4.3)"/><text font-family="OpenSansCondensedLight" font-size="14pt" fill="black" transform="translate(4.1,4.3)" text-anchor="middle"><tspan x="43.1" y="38.7">STORAGE</tspan><tspan x="43.1" y="59.7">DEVICES</tspan></text><path stroke="#000000" fill="none" transform="translate(4.1,4.3)" d="M 0 0"/></g><g model-id="1b16b806-be07-c3a2-8fe3-1b5c111e966b" transform="translate(551.5,377)"><g><g>
<path d="M94.5,0H0v94.5h94.5V0L94.5,0z" stroke="#000000" stroke-dasharray="none" fill="#FFFFFF"/>
<rect x="4.1" y="4.3" width="86.2" height="85.9" fill="none"/>
<circle fill="none" cx="47.2" cy="0" r="0.1"/>
<circle fill="none" cx="70.7" cy="0" r="0.1"/>
<circle fill="none" cx="94.5" cy="23.8" r="0.1"/>
<circle fill="none" cx="94.5" cy="47.2" r="0.1"/>
<circle fill="none" cx="94.5" cy="70.7" r="0.1"/>
<circle fill="none" cx="70.7" cy="94.5" r="0.1"/>
<circle fill="none" cx="47.2" cy="94.5" r="0.1"/>
<circle fill="none" cx="23.8" cy="94.5" r="0.1"/>
<circle fill="none" cx="0" cy="70.7" r="0.1"/>
<circle fill="none" cx="0" cy="47.2" r="0.1"/>
<circle fill="none" cx="0" cy="23.8" r="0.1"/>
<circle fill="none" cx="23.8" cy="0" r="0.1"/>
</g></g><rect stroke="none" stroke-width="1" fill="#FFFFFF" x="0" y="0" width="40" height="20" transform="translate(27.1,144.4)"/><path stroke="#000000" fill="none" d="M47.2,94.5 C26,115.6 68.4,123.3 47.2 144.4"/><text font-family="OpenSansCondensedLight" font-size="14pt" fill="black" transform="translate(27.1,144.4)" text-anchor="middle"><tspan x="20" y="16.3">512</tspan></text><rect stroke-width="0" fill="none" width="86.2" height="85.9" transform="translate(4.1,4.3)"/><text font-family="OpenSansCondensedLight" font-size="14pt" fill="black" transform="translate(4.1,4.3)" text-anchor="middle"><tspan x="43.1" y="38.7">NETWORK</tspan><tspan x="43.1" y="59.7">INTERFACE</tspan></text><path stroke="#000000" fill="none" transform="translate(4.1,4.3)" d="M 0 0"/></g><g model-id="0d95bf5d-abb2-a721-056a-7d87db7f2d1a"><path stroke="black" stroke-dasharray="none" d="M 158 247 L 270.6 247 C 273.6 253.8 277.6 253.8 280.6 247 L 312 247"/><path fill="black" stroke="black" d="" transform="translate(158,247) scale(1,1) rotate(0)"/><path fill="black" stroke="black" d="M 8 0 L 0 4 L 8 8 z" transform="translate(320,251) scale(1,1) rotate(-180)"/><g><g label-idx="0" cursor="move" transform="translate(237.5, 247)"><rect fill="white" rx="3" ry="3" x="0" y="0" width="0" height="0"/><text text-anchor="middle" font-size="14pt" font-family="OpenSansCondensedLight" y="0.8em" display="none" xml:space="preserve" transform="translate(0,0)"/></g></g></g><g model-id="ea094619-3521-ed77-a1bf-fb6616538ed4"><path stroke="black" stroke-dasharray="none" d="M 414 247 544 247"/><path fill="black" stroke="black" d="" transform="translate(414,247) scale(1,1) rotate(0)"/><path fill="black" stroke="black" d="M 8 0 L 0 4 L 8 8 z" transform="translate(552,251) scale(1,1) rotate(-180)"/><g><g label-idx="0" cursor="move" transform="translate(479, 247)"><rect fill="white" rx="3" ry="3" x="0" y="0" width="0" height="0"/><text text-anchor="middle" font-size="14pt" font-family="OpenSansCondensedLight" y="0.8em" display="none" xml:space="preserve" transform="translate(0,0)"/></g></g></g><g model-id="146c7e4c-1246-20d3-d1b1-8915deb69bea"><path stroke="black" stroke-dasharray="none" d="M 367 119 367 192"/><path fill="black" stroke="black" d="" transform="translate(367,119) scale(1,1) rotate(-270)"/><path fill="black" stroke="black" d="M 8 0 L 0 4 L 8 8 z" transform="translate(363,200) scale(1,1) rotate(-90)"/><g><g label-idx="0" cursor="move" transform="translate(367, 155.5)"><rect fill="white" rx="3" ry="3" x="0" y="0" width="0" height="0"/><text text-anchor="middle" font-size="14pt" font-family="OpenSansCondensedLight" y="0.8em" display="none" xml:space="preserve" transform="translate(0,0)"/></g></g></g><g model-id="1c9c2868-d48f-7a8f-fdec-c51f732d0191"><path stroke="black" stroke-dasharray="none" d="M 367 294 367 369"/><path fill="black" stroke="black" d="" transform="translate(367,294) scale(1,1) rotate(-270)"/><path fill="black" stroke="black" d="M 8 0 L 0 4 L 8 8 z" transform="translate(363,377) scale(1,1) rotate(-90)"/><g><g label-idx="0" cursor="move" transform="translate(367, 331.5)"><rect fill="white" rx="3" ry="3" x="0" y="0" width="0" height="0"/><text text-anchor="middle" font-size="14pt" font-family="OpenSansCondensedLight" y="0.8em" display="none" xml:space="preserve" transform="translate(0,0)"/></g></g></g><g model-id="2e99fda0-c791-ac14-9f7f-71e9d3fff0e8"><path stroke="black" stroke-dasharray="none" d="M 367 377 367 303"/><path fill="black" stroke="black" d="" transform="translate(367,377) scale(1,1) rotate(-90)"/><path fill="black" stroke="black" d="M 8 0 L 0 4 L 8 8 z" transform="translate(371,295) scale(1,1) rotate(-270)"/><g><g label-idx="0" cursor="move" transform="translate(367, 340)"><rect fill="white" rx="3" ry="3" x="0" y="0" width="0" height="0"/><text text-anchor="middle" font-size="14pt" font-family="OpenSansCondensedLight" y="0.8em" display="none" xml:space="preserve" transform="translate(0,0)"/></g></g></g><g model-id="5bbfa980-ee3d-3ad7-53ed-ee0601aa7488"><path stroke="black" stroke-dasharray="none" d="M 367 200 367 123"/><path fill="black" stroke="black" d="" transform="translate(367,200) scale(1,1) rotate(-90)"/><path fill="black" stroke="black" d="M 8 0 L 0 4 L 8 8 z" transform="translate(371,115) scale(1,1) rotate(-270)"/><g><g label-idx="0" cursor="move" transform="translate(367, 161.5)"><rect fill="white" rx="3" ry="3" x="0" y="0" width="0" height="0"/><text text-anchor="middle" font-size="14pt" font-family="OpenSansCondensedLight" y="0.8em" display="none" xml:space="preserve" transform="translate(0,0)"/></g></g></g><g model-id="75acd700-825f-39f8-dc6e-db3631d8b71f"><path stroke="black" stroke-dasharray="none" d="M 414 271 546 396"/><path fill="black" stroke="black" d="" transform="translate(414,271) scale(1,1) rotate(43.3)"/><path fill="black" stroke="black" d="M 8 0 L 0 4 L 8 8 z" transform="translate(549.3,403.9) scale(1,1) rotate(-136.7)"/><g><g label-idx="0" cursor="move" transform="translate(480, 333.5)"><rect fill="white" rx="3" ry="3" x="0" y="0" width="0" height="0"/><text text-anchor="middle" font-size="14pt" font-family="OpenSansCondensedLight" y="0.8em" display="none" xml:space="preserve" transform="translate(0,0)"/></g></g></g><g model-id="7fdc5a52-5e69-5ff7-e01b-c8002da77ec8"><path stroke="black" stroke-dasharray="none" d="M 552 401 420 276"/><path fill="black" stroke="black" d="" transform="translate(552,401) scale(1,1) rotate(-136.7)"/><path fill="black" stroke="black" d="M 8 0 L 0 4 L 8 8 z" transform="translate(416.7,268.1) scale(1,1) rotate(43.3)"/><g><g label-idx="0" cursor="move" transform="translate(486, 338.5)"><rect fill="white" rx="3" ry="3" x="0" y="0" width="0" height="0"/><text text-anchor="middle" font-size="14pt" font-family="OpenSansCondensedLight" y="0.8em" display="none" xml:space="preserve" transform="translate(0,0)"/></g></g></g><g model-id="809c3e72-a74d-4091-b662-3f0f88588552"><path stroke="black" stroke-dasharray="5,5" d="M 321 201 160 364"/><path fill="black" stroke="black" d="" transform="translate(321,201) scale(1,1) rotate(-225.4)"/><path fill="black" stroke="black" d="" transform="translate(160,364) scale(1,1) rotate(-45.4)"/><g><g label-idx="0" cursor="move" transform="translate(240.5, 282.5)"><rect fill="white" rx="3" ry="3" x="0" y="0" width="0" height="0"/><text text-anchor="middle" font-size="14pt" font-family="OpenSansCondensedLight" y="0.8em" display="none" xml:space="preserve" transform="translate(0,0)"/></g></g></g><g model-id="c6508b78-3bb6-4cc6-8340-dc07be9d1339"><path stroke="black" stroke-dasharray="5,5" d="M 322 471 158 437"/><path fill="black" stroke="black" d="" transform="translate(322,471) scale(1,1) rotate(-168.3)"/><path fill="black" stroke="black" d="" transform="translate(158,437) scale(1,1) rotate(11.7)"/><g><g label-idx="0" cursor="move" transform="translate(240, 454)"><rect fill="white" rx="3" ry="3" x="0" y="0" width="0" height="0"/><text text-anchor="middle" font-size="14pt" font-family="OpenSansCondensedLight" y="0.8em" display="none" xml:space="preserve" transform="translate(0,0)"/></g></g></g><g model-id="0aeeb9be-4139-4f39-9af8-842809839b17" transform="translate(76.5,364)"><g><g>
<path d="M83,0H0v72h83V0L83,0z" stroke="#000000" stroke-dasharray="none" fill="#FFFFFF"/>
<rect x="3.6" y="3.3" width="75.7" height="65.4" fill="none"/>
<circle fill="none" cx="41.5" cy="0" r="0.1"/>
<circle fill="none" cx="62.1" cy="0" r="0.1"/>
<circle fill="none" cx="83" cy="18.2" r="0.1"/>
<circle fill="none" cx="83" cy="36" r="0.1"/>
<circle fill="none" cx="83" cy="53.8" r="0.1"/>
<circle fill="none" cx="62.1" cy="72" r="0.1"/>
<circle fill="none" cx="41.5" cy="72" r="0.1"/>
<circle fill="none" cx="20.9" cy="72" r="0.1"/>
<circle fill="none" cx="0" cy="53.8" r="0.1"/>
<circle fill="none" cx="0" cy="36" r="0.1"/>
<circle fill="none" cx="0" cy="18.2" r="0.1"/>
<circle fill="none" cx="20.9" cy="0" r="0.1"/>
</g></g><rect stroke="none" stroke-width="0" fill="#FFFFFF" x="0" y="0" width="0" height="0" transform="translate(82.9,35.9)"/><path stroke="#000000" fill="none" d=""/><text font-family="OpenSansCondensedLight" font-size="14pt" fill="black" transform="translate(82.9,35.9)"/><rect stroke-width="0" fill="none" width="75.7" height="65.4" transform="translate(3.6,3.3)"/><text font-family="OpenSansCondensedLight" font-size="14pt" fill="black" transform="translate(3.6,3.3)" text-anchor="middle"><tspan x="37.9" y="39"> 514</tspan></text><path stroke="#000000" fill="none" transform="translate(3.6,3.3)" d="M 23.9 41 51.9 41"/></g></g><defs/></svg>