<svg xmlns="http://www.w3.org/2000/svg" xmlns:xlink="http://www.w3.org/1999/xlink" version="1.1" id="v-2678" width="664" height="867"><g id="v-2679" class="viewport"><g id="j_95" model-id="119e321b-0233-4ce2-975c-e8fdaee79174" class="element tp Element" transform="translate(321,179)"><g class="rotatable" id="v-2681"><g class="scalable" id="v-2691">
<path class="ui-fill ui-stroke js-perimeter" d="M27.999391145814734,0H0v28.999369401022403h27.999391145814734V0L27.999391145814734,0z" id="v-2688" stroke="none" stroke-dasharray="none" fill="#FFFFFF"/>
<rect class="ui-interior-label" x="1.224897376439789" y="1.32215969913476" width="25.552635840519375" height="26.355050002752883" id="v-2689" fill="none"/>
<circle class="js-number-connector-1 js-link-connector" fill="none" cx="13.999695572907367" cy="0" r="0.1" id="v-2692"/>
<circle class="js-number-connector-2 js-link-connector" fill="none" cx="20.938754407676694" cy="0" r="0.1" id="v-2693"/>
<circle class="js-number-connector-3 js-link-connector" fill="none" cx="27.999391145814734" cy="7.3128023359286844" r="0.1" id="v-2694"/>
<circle class="js-number-connector-4 js-link-connector" fill="none" cx="27.999391145814734" cy="14.499684700511201" r="0.1" id="v-2690"/>
<circle class="js-number-connector-5 js-link-connector" fill="none" cx="27.999391145814734" cy="21.686567065093715" r="0.1" id="v-2695"/>
<circle class="js-number-connector-6 js-link-connector" fill="none" cx="20.938754407676694" cy="28.999369401022403" r="0.1" id="v-2696"/>
<circle class="js-number-connector-7 js-link-connector" fill="none" cx="13.999695572907367" cy="28.999369401022403" r="0.1" id="v-2697"/>
<circle class="js-number-connector-8 js-link-connector" fill="none" cx="7.063676185722258" cy="28.999369401022403" r="0.1" id="v-2698"/>
<circle class="js-number-connector-9 js-link-connector" fill="none" cx="0" cy="21.686567065093715" r="0.1" id="v-2699"/>
<circle class="js-number-connector-10 js-link-connector" fill="none" cx="0" cy="14.499684700511201" r="0.1" id="v-2700"/>
<circle class="js-number-connector-11 js-link-connector" fill="none" cx="0" cy="7.3128023359286844" r="0.1" id="v-2701"/>
<circle class="js-number-connector-12 js-link-connector" fill="none" cx="7.063676185722258" cy="0" r="0.1" id="v-2702"/>
</g></g><rect class="ui-number-box" id="v-2682" stroke="none" stroke-width="0" fill="#FFFFFF" x="0" y="0" width="0" height="0" transform="translate(27.899391174316406,14.399683952331543)"/><path class="ui-number-leadline" id="v-2683" stroke="#000000" fill="none" d=""/><text class="ui-number-label" id="v-2684" font-family="OpenSansCondensedLight" font-size="14pt" fill="black" transform="translate(27.899391174316406,14.399683952331543)"/><rect class="ui-label-box" id="v-2685" stroke-width="0" fill="none" width="25.552635192871094" height="26.355048298835754" transform="translate(1.2248973846435547,1.3221596479415894)"/><text class="ui-label" id="v-2686" font-family="OpenSansCondensedLight" font-size="14pt" fill="black" transform="translate(1.2248973846435547,1.3221596479415894)" text-anchor="middle"><tspan x="12.776317596435547" y="19.47753581665039"> </tspan></text><path class="ui-number-underline" id="v-2687" stroke="#000000" fill="none" transform="translate(1.2248973846435547,1.3221596479415894)" d="M 0 0"/></g><g id="j_103" model-id="f4546544-a30b-b974-8201-47652c5423ec" class="element tp Element" transform="translate(322,464)"><g class="rotatable" id="v-2849"><g class="scalable" id="v-2859">
<path class="ui-fill ui-stroke js-perimeter" d="M27.999391145814734,0H0v28.999369401022403h27.999391145814734V0L27.999391145814734,0z" id="v-2856" stroke="none" stroke-dasharray="none" fill="#FFFFFF"/>
<rect class="ui-interior-label" x="1.224897376439789" y="1.32215969913476" width="25.552635840519375" height="26.355050002752883" id="v-2857" fill="none"/>
<circle class="js-number-connector-1 js-link-connector" fill="none" cx="13.999695572907367" cy="0" r="0.1" id="v-2860"/>
<circle class="js-number-connector-2 js-link-connector" fill="none" cx="20.938754407676694" cy="0" r="0.1" id="v-2861"/>
<circle class="js-number-connector-3 js-link-connector" fill="none" cx="27.999391145814734" cy="7.3128023359286844" r="0.1" id="v-2862"/>
<circle class="js-number-connector-4 js-link-connector" fill="none" cx="27.999391145814734" cy="14.499684700511201" r="0.1" id="v-2858"/>
<circle class="js-number-connector-5 js-link-connector" fill="none" cx="27.999391145814734" cy="21.686567065093715" r="0.1" id="v-2863"/>
<circle class="js-number-connector-6 js-link-connector" fill="none" cx="20.938754407676694" cy="28.999369401022403" r="0.1" id="v-2864"/>
<circle class="js-number-connector-7 js-link-connector" fill="none" cx="13.999695572907367" cy="28.999369401022403" r="0.1" id="v-2865"/>
<circle class="js-number-connector-8 js-link-connector" fill="none" cx="7.063676185722258" cy="28.999369401022403" r="0.1" id="v-2866"/>
<circle class="js-number-connector-9 js-link-connector" fill="none" cx="0" cy="21.686567065093715" r="0.1" id="v-2867"/>
<circle class="js-number-connector-10 js-link-connector" fill="none" cx="0" cy="14.499684700511201" r="0.1" id="v-2868"/>
<circle class="js-number-connector-11 js-link-connector" fill="none" cx="0" cy="7.3128023359286844" r="0.1" id="v-2869"/>
<circle class="js-number-connector-12 js-link-connector" fill="none" cx="7.063676185722258" cy="0" r="0.1" id="v-2870"/>
</g></g><rect class="ui-number-box" id="v-2850" stroke="none" stroke-width="0" fill="#FFFFFF" x="0" y="0" width="0" height="0" transform="translate(27.899391174316406,14.399683952331543)"/><path class="ui-number-leadline" id="v-2851" stroke="#000000" fill="none" d=""/><text class="ui-number-label" id="v-2852" font-family="OpenSansCondensedLight" font-size="14pt" fill="black" transform="translate(27.899391174316406,14.399683952331543)"/><rect class="ui-label-box" id="v-2853" stroke-width="0" fill="none" width="25.552635192871094" height="26.355048298835754" transform="translate(1.2248973846435547,1.3221596479415894)"/><text class="ui-label" id="v-2854" font-family="OpenSansCondensedLight" font-size="14pt" fill="black" transform="translate(1.2248973846435547,1.3221596479415894)" text-anchor="middle"><tspan x="12.776317596435547" y="19.47753581665039"> </tspan></text><path class="ui-number-underline" id="v-2855" stroke="#000000" fill="none" transform="translate(1.2248973846435547,1.3221596479415894)" d="M 0 0"/></g><g id="j_96" model-id="50dc0072-733b-a579-4fb1-d1949b842460" class="element tp Element" transform="translate(595.9972915649414,14.3125)"><polygon class="ui-arrowhead" fill="#000000" points="0,0 4.2,11.2 11.8,2" id="v-2703" transform="translate(-5.900000095367432,27.34645652770996)"/>
<rect class="ui-label-anchor" fill="none" width="1" height="1" id="v-2705" transform="translate(33.346458435058594,-0.5)"/>
<g class="rotatable" id="v-2707"><g class="scalable" id="v-2715">
<rect x="0" y="0" width="28.346457481384277" height="28.346456915242126" opacity="0" id="v-2716"/>
<path class="ui-stem" fill="none" stroke="#000000" stroke-width="1" d="M28.346457481384277,0C16.68079997942998,2.22616153784624,6.9775895338792076,13.35696922707744,0,28.346456915242126" id="v-2714"/>
</g></g><rect class="ui-number-box" id="v-2708" stroke="none" stroke-width="0" fill="#FFFFFF" x="0" y="0" width="0" height="0"/><path class="ui-number-leadline" id="v-2709" stroke="#000000" fill="none"/><text class="ui-number-label" id="v-2710" font-family="OpenSansCondensedLight" font-size="14pt" fill="black" transform="translate(0,0)"/><rect class="ui-label-box" id="v-2711" stroke-width="0" fill="none" width="1" height="1" transform="translate(33.346458435058594,-0.5)"/><text class="ui-label" id="v-2712" font-family="OpenSansCondensedLight" font-size="14pt" fill="black" text-decoration="none" transform="translate(33.346458435058594,-0.5)"><tspan x="0" y="6.800011250000001">500</tspan></text><path class="ui-number-underline" id="v-2713" stroke="#000000" fill="none" transform="translate(33.346458435058594,-0.5)"/></g><g id="j_97" model-id="a89d78ee-38a7-2307-0698-6ef3203ad372" class="element tp Element" transform="translate(320,25)"><g class="rotatable" id="v-2717"><g class="scalable" id="v-2727">
<path class="ui-fill ui-stroke js-perimeter" d="M94.48613697851009,0H0v94.48613697851009h94.48613697851009V0L94.48613697851009,0z" id="v-2724" stroke="#000000" stroke-dasharray="none" fill="#FFFFFF"/>
<rect class="ui-interior-label" x="4.133512071465432" y="4.307878585646357" width="86.22936968935457" height="85.87037980721738" id="v-2725" fill="none"/>
<circle class="js-number-connector-1 js-link-connector" fill="none" cx="47.243068489255045" cy="0" r="0.1" id="v-2728"/>
<circle class="js-number-connector-2 js-link-connector" fill="none" cx="70.6594656583756" cy="0" r="0.1" id="v-2729"/>
<circle class="js-number-connector-3 js-link-connector" fill="none" cx="94.48613697851009" cy="23.82667132013449" r="0.1" id="v-2730"/>
<circle class="js-number-connector-4 js-link-connector" fill="none" cx="94.48613697851009" cy="47.243068489255045" r="0.1" id="v-2731"/>
<circle class="js-number-connector-5 js-link-connector" fill="none" cx="94.48613697851009" cy="70.6594656583756" r="0.1" id="v-2732"/>
<circle class="js-number-connector-6 js-link-connector" fill="none" cx="70.6594656583756" cy="94.48613697851009" r="0.1" id="v-2733"/>
<circle class="js-number-connector-7 js-link-connector" fill="none" cx="47.243068489255045" cy="94.48613697851009" r="0.1" id="v-2734"/>
<circle class="js-number-connector-8 js-link-connector" fill="none" cx="23.83692817390984" cy="94.48613697851009" r="0.1" id="v-2735"/>
<circle class="js-number-connector-9 js-link-connector" fill="none" cx="0" cy="70.6594656583756" r="0.1" id="v-2736"/>
<circle class="js-number-connector-10 js-link-connector" fill="none" cx="0" cy="47.243068489255045" r="0.1" id="v-2737"/>
<circle class="js-number-connector-11 js-link-connector" fill="none" cx="0" cy="23.82667132013449" r="0.1" id="v-2726"/>
<circle class="js-number-connector-12 js-link-connector" fill="none" cx="23.83692817390984" cy="0" r="0.1" id="v-2738"/>
</g></g><rect class="ui-number-box" id="v-2718" stroke="none" stroke-width="1" fill="#FFFFFF" x="0" y="0" width="40" height="20" transform="translate(-72.06152422855644,-16.27332878112793)"/><path class="ui-number-leadline" id="v-2719" stroke="#000000" fill="none" d="M0,23.826671600341797 C-6.221975157168594,0.5492805572659059 -28.54336131099492,27.004062261947965 -34.76533646816351 3.7266712188720703"/><text class="ui-number-label" id="v-2720" font-family="OpenSansCondensedLight" font-size="14pt" fill="black" transform="translate(-72.0615234375,-16.27332878112793)" text-anchor="middle"><tspan x="20" y="16.30001125">502</tspan></text><rect class="ui-label-box" id="v-2721" stroke-width="0" fill="none" width="86.22937250137329" height="85.87037467956543" transform="translate(4.133512020111084,4.307878494262695)"/><text class="ui-label" id="v-2722" font-family="OpenSansCondensedLight" font-size="14pt" fill="black" transform="translate(4.133512020111084,4.307878494262695)" text-anchor="middle"><tspan x="43.11468505859375" y="49.235199543457036">CPU</tspan></text><path class="ui-number-underline" id="v-2723" stroke="#000000" fill="none" transform="translate(4.133512020111084,4.307878494262695)" d="M 0 0"/></g><g id="j_98" model-id="362aeb50-0b46-3cd1-4ae8-b06b2495a68f" class="element tp Element" transform="translate(64,200)"><g class="rotatable" id="v-2739"><g class="scalable" id="v-2749">
<path class="ui-fill ui-stroke js-perimeter" d="M94.48613697851009,0H0v94.48613697851009h94.48613697851009V0L94.48613697851009,0z" id="v-2746" stroke="#000000" stroke-dasharray="none" fill="#FFFFFF"/>
<rect class="ui-interior-label" x="4.133512071465432" y="4.307878585646357" width="86.22936968935457" height="85.87037980721738" id="v-2747" fill="none"/>
<circle class="js-number-connector-1 js-link-connector" fill="none" cx="47.243068489255045" cy="0" r="0.1" id="v-2748"/>
<circle class="js-number-connector-2 js-link-connector" fill="none" cx="70.6594656583756" cy="0" r="0.1" id="v-2750"/>
<circle class="js-number-connector-3 js-link-connector" fill="none" cx="94.48613697851009" cy="23.82667132013449" r="0.1" id="v-2751"/>
<circle class="js-number-connector-4 js-link-connector" fill="none" cx="94.48613697851009" cy="47.243068489255045" r="0.1" id="v-2752"/>
<circle class="js-number-connector-5 js-link-connector" fill="none" cx="94.48613697851009" cy="70.6594656583756" r="0.1" id="v-2753"/>
<circle class="js-number-connector-6 js-link-connector" fill="none" cx="70.6594656583756" cy="94.48613697851009" r="0.1" id="v-2754"/>
<circle class="js-number-connector-7 js-link-connector" fill="none" cx="47.243068489255045" cy="94.48613697851009" r="0.1" id="v-2755"/>
<circle class="js-number-connector-8 js-link-connector" fill="none" cx="23.83692817390984" cy="94.48613697851009" r="0.1" id="v-2756"/>
<circle class="js-number-connector-9 js-link-connector" fill="none" cx="0" cy="70.6594656583756" r="0.1" id="v-2757"/>
<circle class="js-number-connector-10 js-link-connector" fill="none" cx="0" cy="47.243068489255045" r="0.1" id="v-2758"/>
<circle class="js-number-connector-11 js-link-connector" fill="none" cx="0" cy="23.82667132013449" r="0.1" id="v-2759"/>
<circle class="js-number-connector-12 js-link-connector" fill="none" cx="23.83692817390984" cy="0" r="0.1" id="v-2760"/>
</g></g><rect class="ui-number-box" id="v-2740" stroke="none" stroke-width="1" fill="#FFFFFF" x="0" y="0" width="40" height="20" transform="translate(27.14307022094727,-70.10000000149012)"/><path class="ui-number-leadline" id="v-2741" stroke="#000000" fill="none" d="M47.24307060241699,0 C68.4633318836363,-21.290997108964735 25.93944634874493,-28.809001365156362 47.159707629964245 -50.099998474121094"/><text class="ui-number-label" id="v-2742" font-family="OpenSansCondensedLight" font-size="14pt" fill="black" transform="translate(27.143070220947266,-70.0999984741211)" text-anchor="middle"><tspan x="19.999998092651367" y="16.30001125">504</tspan></text><rect class="ui-label-box" id="v-2743" stroke-width="0" fill="none" width="86.22937250137329" height="85.87037467956543" transform="translate(4.133512020111084,4.307878494262695)"/><text class="ui-label" id="v-2744" font-family="OpenSansCondensedLight" font-size="14pt" fill="black" transform="translate(4.133512020111084,4.307878494262695)" text-anchor="middle"><tspan x="43.11468505859375" y="38.73518079345703">INPUT</tspan><tspan x="43.11468505859375" y="59.73521829345703">DEVICES</tspan></text><path class="ui-number-underline" id="v-2745" stroke="#000000" fill="none" transform="translate(4.133512020111084,4.307878494262695)" d="M 0 0"/></g><g id="j_99" model-id="0b10358b-06c5-d561-378a-d400274784d5" class="element tp Element" transform="translate(320,200)"><g class="rotatable" id="v-2761"><g class="scalable" id="v-2771">
<path class="ui-fill ui-stroke js-perimeter" d="M94.48613697851009,0H0v94.48613697851009h94.48613697851009V0L94.48613697851009,0z" id="v-2768" stroke="#000000" stroke-dasharray="none" fill="#FFFFFF"/>
<rect class="ui-interior-label" x="4.133512071465432" y="4.307878585646357" width="86.22936968935457" height="85.87037980721738" id="v-2769" fill="none"/>
<circle class="js-number-connector-1 js-link-connector" fill="none" cx="47.243068489255045" cy="0" r="0.1" id="v-2772"/>
<circle class="js-number-connector-2 js-link-connector" fill="none" cx="70.6594656583756" cy="0" r="0.1" id="v-2770"/>
<circle class="js-number-connector-3 js-link-connector" fill="none" cx="94.48613697851009" cy="23.82667132013449" r="0.1" id="v-2773"/>
<circle class="js-number-connector-4 js-link-connector" fill="none" cx="94.48613697851009" cy="47.243068489255045" r="0.1" id="v-2774"/>
<circle class="js-number-connector-5 js-link-connector" fill="none" cx="94.48613697851009" cy="70.6594656583756" r="0.1" id="v-2775"/>
<circle class="js-number-connector-6 js-link-connector" fill="none" cx="70.6594656583756" cy="94.48613697851009" r="0.1" id="v-2776"/>
<circle class="js-number-connector-7 js-link-connector" fill="none" cx="47.243068489255045" cy="94.48613697851009" r="0.1" id="v-2777"/>
<circle class="js-number-connector-8 js-link-connector" fill="none" cx="23.83692817390984" cy="94.48613697851009" r="0.1" id="v-2778"/>
<circle class="js-number-connector-9 js-link-connector" fill="none" cx="0" cy="70.6594656583756" r="0.1" id="v-2779"/>
<circle class="js-number-connector-10 js-link-connector" fill="none" cx="0" cy="47.243068489255045" r="0.1" id="v-2780"/>
<circle class="js-number-connector-11 js-link-connector" fill="none" cx="0" cy="23.82667132013449" r="0.1" id="v-2781"/>
<circle class="js-number-connector-12 js-link-connector" fill="none" cx="23.83692817390984" cy="0" r="0.1" id="v-2782"/>
</g></g><rect class="ui-number-box" id="v-2762" stroke="none" stroke-width="1" fill="#FFFFFF" x="0" y="0" width="40" height="20" transform="translate(80.55946350097656,-62.06152422855643)"/><path class="ui-number-leadline" id="v-2763" stroke="#000000" fill="none" d="M70.65946197509766,0 C98.75351571564771,-7.596332399081713 66.72220450025506,-34.46519103841829 94.81625824080511 -42.0615234375"/><text class="ui-number-label" id="v-2764" font-family="OpenSansCondensedLight" font-size="14pt" fill="black" transform="translate(80.55946350097656,-62.0615234375)" text-anchor="middle"><tspan x="20" y="16.30001125">506</tspan></text><rect class="ui-label-box" id="v-2765" stroke-width="0" fill="none" width="86.22937250137329" height="85.87037467956543" transform="translate(4.133512020111084,4.307878494262695)"/><text class="ui-label" id="v-2766" font-family="OpenSansCondensedLight" font-size="14pt" fill="black" transform="translate(4.133512020111084,4.307878494262695)" text-anchor="middle"><tspan x="43.11468505859375" y="49.235199543457036">MEMORY</tspan></text><path class="ui-number-underline" id="v-2767" stroke="#000000" fill="none" transform="translate(4.133512020111084,4.307878494262695)" d="M 0 0"/></g><g id="j_100" model-id="3b838080-475f-c82c-1e8a-125ea0cb9e47" class="element tp Element" transform="translate(551.5118083953857,200)"><g class="rotatable" id="v-2783"><g class="scalable" id="v-2793">
<path class="ui-fill ui-stroke js-perimeter" d="M94.48613697851009,0H0v94.48613697851009h94.48613697851009V0L94.48613697851009,0z" id="v-2790" stroke="#000000" stroke-dasharray="none" fill="#FFFFFF"/>
<rect class="ui-interior-label" x="4.133512071465432" y="4.307878585646357" width="86.22936968935457" height="85.87037980721738" id="v-2791" fill="none"/>
<circle class="js-number-connector-1 js-link-connector" fill="none" cx="47.243068489255045" cy="0" r="0.1" id="v-2794"/>
<circle class="js-number-connector-2 js-link-connector" fill="none" cx="70.6594656583756" cy="0" r="0.1" id="v-2795"/>
<circle class="js-number-connector-3 js-link-connector" fill="none" cx="94.48613697851009" cy="23.82667132013449" r="0.1" id="v-2796"/>
<circle class="js-number-connector-4 js-link-connector" fill="none" cx="94.48613697851009" cy="47.243068489255045" r="0.1" id="v-2797"/>
<circle class="js-number-connector-5 js-link-connector" fill="none" cx="94.48613697851009" cy="70.6594656583756" r="0.1" id="v-2798"/>
<circle class="js-number-connector-6 js-link-connector" fill="none" cx="70.6594656583756" cy="94.48613697851009" r="0.1" id="v-2799"/>
<circle class="js-number-connector-7 js-link-connector" fill="none" cx="47.243068489255045" cy="94.48613697851009" r="0.1" id="v-2800"/>
<circle class="js-number-connector-8 js-link-connector" fill="none" cx="23.83692817390984" cy="94.48613697851009" r="0.1" id="v-2801"/>
<circle class="js-number-connector-9 js-link-connector" fill="none" cx="0" cy="70.6594656583756" r="0.1" id="v-2802"/>
<circle class="js-number-connector-10 js-link-connector" fill="none" cx="0" cy="47.243068489255045" r="0.1" id="v-2803"/>
<circle class="js-number-connector-11 js-link-connector" fill="none" cx="0" cy="23.82667132013449" r="0.1" id="v-2804"/>
<circle class="js-number-connector-12 js-link-connector" fill="none" cx="23.83692817390984" cy="0" r="0.1" id="v-2792"/>
</g></g><rect class="ui-number-box" id="v-2784" stroke="none" stroke-width="1" fill="#FFFFFF" x="0" y="0" width="40" height="20" transform="translate(-26.263072967529283,-62.061524228556436)"/><path class="ui-number-leadline" id="v-2785" stroke="#000000" fill="none" d="M23.83692741394043,0 C31.364705956813054,-28.16260759675915 -8.009230383312818,-13.898915840740866 -0.48145184044014044 -42.0615234375"/><text class="ui-number-label" id="v-2786" font-family="OpenSansCondensedLight" font-size="14pt" fill="black" transform="translate(-26.263072967529297,-62.0615234375)" text-anchor="middle"><tspan x="20" y="16.30001125">508</tspan></text><rect class="ui-label-box" id="v-2787" stroke-width="0" fill="none" width="86.22937250137329" height="85.87037467956543" transform="translate(4.133512020111084,4.307878494262695)"/><text class="ui-label" id="v-2788" font-family="OpenSansCondensedLight" font-size="14pt" fill="black" transform="translate(4.133512020111084,4.307878494262695)" text-anchor="middle"><tspan x="43.11468505859375" y="38.73518079345703">OUTPUT</tspan><tspan x="43.11468505859375" y="59.73521829345703">DEVICES</tspan></text><path class="ui-number-underline" id="v-2789" stroke="#000000" fill="none" transform="translate(4.133512020111084,4.307878494262695)" d="M 0 0"/></g><g id="j_101" model-id="82175138-59da-4e04-b670-199634a5c3f0" class="element tp Element" transform="translate(320,377)"><g class="rotatable" id="v-2805"><g class="scalable" id="v-2815">
<path class="ui-fill ui-stroke js-perimeter" d="M94.48613697851009,0H0v94.48613697851009h94.48613697851009V0L94.48613697851009,0z" id="v-2812" stroke="#000000" stroke-dasharray="none" fill="#FFFFFF"/>
<rect class="ui-interior-label" x="4.133512071465432" y="4.307878585646357" width="86.22936968935457" height="85.87037980721738" id="v-2813" fill="none"/>
<circle class="js-number-connector-1 js-link-connector" fill="none" cx="47.243068489255045" cy="0" r="0.1" id="v-2816"/>
<circle class="js-number-connector-2 js-link-connector" fill="none" cx="70.6594656583756" cy="0" r="0.1" id="v-2817"/>
<circle class="js-number-connector-3 js-link-connector" fill="none" cx="94.48613697851009" cy="23.82667132013449" r="0.1" id="v-2818"/>
<circle class="js-number-connector-4 js-link-connector" fill="none" cx="94.48613697851009" cy="47.243068489255045" r="0.1" id="v-2819"/>
<circle class="js-number-connector-5 js-link-connector" fill="none" cx="94.48613697851009" cy="70.6594656583756" r="0.1" id="v-2820"/>
<circle class="js-number-connector-6 js-link-connector" fill="none" cx="70.6594656583756" cy="94.48613697851009" r="0.1" id="v-2821"/>
<circle class="js-number-connector-7 js-link-connector" fill="none" cx="47.243068489255045" cy="94.48613697851009" r="0.1" id="v-2814"/>
<circle class="js-number-connector-8 js-link-connector" fill="none" cx="23.83692817390984" cy="94.48613697851009" r="0.1" id="v-2822"/>
<circle class="js-number-connector-9 js-link-connector" fill="none" cx="0" cy="70.6594656583756" r="0.1" id="v-2823"/>
<circle class="js-number-connector-10 js-link-connector" fill="none" cx="0" cy="47.243068489255045" r="0.1" id="v-2824"/>
<circle class="js-number-connector-11 js-link-connector" fill="none" cx="0" cy="23.82667132013449" r="0.1" id="v-2825"/>
<circle class="js-number-connector-12 js-link-connector" fill="none" cx="23.83692817390984" cy="0" r="0.1" id="v-2826"/>
</g></g><rect class="ui-number-box" id="v-2806" stroke="none" stroke-width="1" fill="#FFFFFF" x="0" y="0" width="40" height="20" transform="translate(27.143070220947255,144.38613891601562)"/><path class="ui-number-leadline" id="v-2807" stroke="#000000" fill="none" d="M47.24307060241699,94.48613739013672 C26.036948582914743,115.62157072283613 68.36588520560018,123.25070558331619 47.15976318609795 144.38613891601562"/><text class="ui-number-label" id="v-2808" font-family="OpenSansCondensedLight" font-size="14pt" fill="black" transform="translate(27.143070220947266,144.38613891601562)" text-anchor="middle"><tspan x="19.999998092651367" y="16.30001125">510</tspan></text><rect class="ui-label-box" id="v-2809" stroke-width="0" fill="none" width="86.22937250137329" height="85.87037467956543" transform="translate(4.133512020111084,4.307878494262695)"/><text class="ui-label" id="v-2810" font-family="OpenSansCondensedLight" font-size="14pt" fill="black" transform="translate(4.133512020111084,4.307878494262695)" text-anchor="middle"><tspan x="43.11468505859375" y="38.73518079345703">STORAGE</tspan><tspan x="43.11468505859375" y="59.73521829345703">DEVICES</tspan></text><path class="ui-number-underline" id="v-2811" stroke="#000000" fill="none" transform="translate(4.133512020111084,4.307878494262695)" d="M 0 0"/></g><g id="j_102" model-id="1b16b806-be07-c3a2-8fe3-1b5c111e966b" class="element tp Element" transform="translate(551.5118083953857,377)"><g class="rotatable" id="v-2827"><g class="scalable" id="v-2837">
<path class="ui-fill ui-stroke js-perimeter" d="M94.48613697851009,0H0v94.48613697851009h94.48613697851009V0L94.48613697851009,0z" id="v-2834" stroke="#000000" stroke-dasharray="none" fill="#FFFFFF"/>
<rect class="ui-interior-label" x="4.133512071465432" y="4.307878585646357" width="86.22936968935457" height="85.87037980721738" id="v-2835" fill="none"/>
<circle class="js-number-connector-1 js-link-connector" fill="none" cx="47.243068489255045" cy="0" r="0.1" id="v-2838"/>
<circle class="js-number-connector-2 js-link-connector" fill="none" cx="70.6594656583756" cy="0" r="0.1" id="v-2839"/>
<circle class="js-number-connector-3 js-link-connector" fill="none" cx="94.48613697851009" cy="23.82667132013449" r="0.1" id="v-2840"/>
<circle class="js-number-connector-4 js-link-connector" fill="none" cx="94.48613697851009" cy="47.243068489255045" r="0.1" id="v-2841"/>
<circle class="js-number-connector-5 js-link-connector" fill="none" cx="94.48613697851009" cy="70.6594656583756" r="0.1" id="v-2842"/>
<circle class="js-number-connector-6 js-link-connector" fill="none" cx="70.6594656583756" cy="94.48613697851009" r="0.1" id="v-2843"/>
<circle class="js-number-connector-7 js-link-connector" fill="none" cx="47.243068489255045" cy="94.48613697851009" r="0.1" id="v-2836"/>
<circle class="js-number-connector-8 js-link-connector" fill="none" cx="23.83692817390984" cy="94.48613697851009" r="0.1" id="v-2844"/>
<circle class="js-number-connector-9 js-link-connector" fill="none" cx="0" cy="70.6594656583756" r="0.1" id="v-2845"/>
<circle class="js-number-connector-10 js-link-connector" fill="none" cx="0" cy="47.243068489255045" r="0.1" id="v-2846"/>
<circle class="js-number-connector-11 js-link-connector" fill="none" cx="0" cy="23.82667132013449" r="0.1" id="v-2847"/>
<circle class="js-number-connector-12 js-link-connector" fill="none" cx="23.83692817390984" cy="0" r="0.1" id="v-2848"/>
</g></g><rect class="ui-number-box" id="v-2828" stroke="none" stroke-width="1" fill="#FFFFFF" x="0" y="0" width="40" height="20" transform="translate(27.143070220947255,144.38613891601562)"/><path class="ui-number-leadline" id="v-2829" stroke="#000000" fill="none" d="M47.24307060241699,94.48613739013672 C26.036948582914743,115.62157072283613 68.36588520560018,123.25070558331619 47.15976318609795 144.38613891601562"/><text class="ui-number-label" id="v-2830" font-family="OpenSansCondensedLight" font-size="14pt" fill="black" transform="translate(27.143070220947266,144.38613891601562)" text-anchor="middle"><tspan x="19.999998092651367" y="16.30001125">512</tspan></text><rect class="ui-label-box" id="v-2831" stroke-width="0" fill="none" width="86.22937250137329" height="85.87037467956543" transform="translate(4.133512020111084,4.307878494262695)"/><text class="ui-label" id="v-2832" font-family="OpenSansCondensedLight" font-size="14pt" fill="black" transform="translate(4.133512020111084,4.307878494262695)" text-anchor="middle"><tspan x="43.11468505859375" y="38.73518079345703">NETWORK</tspan><tspan x="43.11468505859375" y="59.73521829345703">INTERFACE</tspan></text><path class="ui-number-underline" id="v-2833" stroke="#000000" fill="none" transform="translate(4.133512020111084,4.307878494262695)" d="M 0 0"/></g><g id="j_114" model-id="0d95bf5d-abb2-a721-056a-7d87db7f2d1a" class="tp Link link"><path class="connection" stroke="black" id="v-3019" stroke-dasharray="none" d="M 158 247 L 270.5644171779141 247 C 273.5644171779141 253.75 277.5644171779141 253.75 280.5644171779141 247 L 312 247"/><path class="marker-source" fill="black" stroke="black" id="v-3020" d="" transform="translate(158,247) scale(1,1) rotate(0)"/><path class="marker-target" fill="black" stroke="black" id="v-3021" d="M 8 0 L 0 4 L 8 8 z" transform="translate(320,251) scale(1,1) rotate(-180)"/><g class="labels" id="v-3023"><g class="js-link-label" id="v-3031" label-idx="0" cursor="move" transform="translate(237.48231506347656, 247)"><rect fill="white" rx="3" ry="3" x="0" y="0" width="0" height="0"/><text class="ui-link-label" text-anchor="middle" font-size="14pt" font-family="OpenSansCondensedLight" id="v-3032" y="0.8em" display="none" xml:space="preserve" transform="translate(0,0)"/></g></g></g><g id="j_105" model-id="ea094619-3521-ed77-a1bf-fb6616538ed4" class="tp Link link"><path class="connection" stroke="black" id="v-2893" stroke-dasharray="none" d="M 414 247 544 247"/><path class="marker-source" fill="black" stroke="black" id="v-2894" d="" transform="translate(414,247) scale(1,1) rotate(0)"/><path class="marker-target" fill="black" stroke="black" id="v-2895" d="M 8 0 L 0 4 L 8 8 z" transform="translate(552,251) scale(1,1) rotate(-180)"/><g class="labels" id="v-2897"><g class="js-link-label" id="v-2905" label-idx="0" cursor="move" transform="translate(479, 247)"><rect fill="white" rx="3" ry="3" x="0" y="0" width="0" height="0"/><text class="ui-link-label" text-anchor="middle" font-size="14pt" font-family="OpenSansCondensedLight" id="v-2906" y="0.8em" display="none" xml:space="preserve" transform="translate(0,0)"/></g></g></g><g id="j_113" model-id="146c7e4c-1246-20d3-d1b1-8915deb69bea" class="tp Link link"><path class="connection" stroke="black" id="v-3005" stroke-dasharray="none" d="M 367 119 367 192"/><path class="marker-source" fill="black" stroke="black" id="v-3006" d="" transform="translate(367,119) scale(1,1) rotate(-270)"/><path class="marker-target" fill="black" stroke="black" id="v-3007" d="M 8 0 L 0 4 L 8 8 z" transform="translate(363,200) scale(1,1) rotate(-90)"/><g class="labels" id="v-3009"><g class="js-link-label" id="v-3017" label-idx="0" cursor="move" transform="translate(367, 155.5)"><rect fill="white" rx="3" ry="3" x="0" y="0" width="0" height="0"/><text class="ui-link-label" text-anchor="middle" font-size="14pt" font-family="OpenSansCondensedLight" id="v-3018" y="0.8em" display="none" xml:space="preserve" transform="translate(0,0)"/></g></g></g><g id="j_112" model-id="1c9c2868-d48f-7a8f-fdec-c51f732d0191" class="tp Link link"><path class="connection" stroke="black" id="v-2991" stroke-dasharray="none" d="M 367 294 367 369"/><path class="marker-source" fill="black" stroke="black" id="v-2992" d="" transform="translate(367,294) scale(1,1) rotate(-270)"/><path class="marker-target" fill="black" stroke="black" id="v-2993" d="M 8 0 L 0 4 L 8 8 z" transform="translate(363,377) scale(1,1) rotate(-90)"/><g class="labels" id="v-2995"><g class="js-link-label" id="v-3003" label-idx="0" cursor="move" transform="translate(367, 331.5)"><rect fill="white" rx="3" ry="3" x="0" y="0" width="0" height="0"/><text class="ui-link-label" text-anchor="middle" font-size="14pt" font-family="OpenSansCondensedLight" id="v-3004" y="0.8em" display="none" xml:space="preserve" transform="translate(0,0)"/></g></g></g><g id="j_111" model-id="2e99fda0-c791-ac14-9f7f-71e9d3fff0e8" class="tp Link link"><path class="connection" stroke="black" id="v-2977" stroke-dasharray="none" d="M 367 377 367 303"/><path class="marker-source" fill="black" stroke="black" id="v-2978" d="" transform="translate(367,377) scale(1,1) rotate(-90)"/><path class="marker-target" fill="black" stroke="black" id="v-2979" d="M 8 0 L 0 4 L 8 8 z" transform="translate(371,295) scale(1,1) rotate(-270)"/><g class="labels" id="v-2981"><g class="js-link-label" id="v-2989" label-idx="0" cursor="move" transform="translate(367, 340)"><rect fill="white" rx="3" ry="3" x="0" y="0" width="0" height="0"/><text class="ui-link-label" text-anchor="middle" font-size="14pt" font-family="OpenSansCondensedLight" id="v-2990" y="0.8em" display="none" xml:space="preserve" transform="translate(0,0)"/></g></g></g><g id="j_110" model-id="5bbfa980-ee3d-3ad7-53ed-ee0601aa7488" class="tp Link link"><path class="connection" stroke="black" id="v-2963" stroke-dasharray="none" d="M 367 200 367 123"/><path class="marker-source" fill="black" stroke="black" id="v-2964" d="" transform="translate(367,200) scale(1,1) rotate(-90)"/><path class="marker-target" fill="black" stroke="black" id="v-2965" d="M 8 0 L 0 4 L 8 8 z" transform="translate(371,115) scale(1,1) rotate(-270)"/><g class="labels" id="v-2967"><g class="js-link-label" id="v-2975" label-idx="0" cursor="move" transform="translate(367, 161.5)"><rect fill="white" rx="3" ry="3" x="0" y="0" width="0" height="0"/><text class="ui-link-label" text-anchor="middle" font-size="14pt" font-family="OpenSansCondensedLight" id="v-2976" y="0.8em" display="none" xml:space="preserve" transform="translate(0,0)"/></g></g></g><g id="j_109" model-id="75acd700-825f-39f8-dc6e-db3631d8b71f" class="tp Link link"><path class="connection" stroke="black" id="v-2949" stroke-dasharray="none" d="M 414 271 546 396"/><path class="marker-source" fill="black" stroke="black" id="v-2950" d="" transform="translate(414,271) scale(1,1) rotate(43.290191650390625)"/><path class="marker-target" fill="black" stroke="black" id="v-2951" d="M 8 0 L 0 4 L 8 8 z" transform="translate(549.2572255171731,403.91156829714095) scale(1,1) rotate(-136.70980834960938)"/><g class="labels" id="v-2953"><g class="js-link-label" id="v-2961" label-idx="0" cursor="move" transform="translate(480, 333.5)"><rect fill="white" rx="3" ry="3" x="0" y="0" width="0" height="0"/><text class="ui-link-label" text-anchor="middle" font-size="14pt" font-family="OpenSansCondensedLight" id="v-2962" y="0.8em" display="none" xml:space="preserve" transform="translate(0,0)"/></g></g></g><g id="j_108" model-id="7fdc5a52-5e69-5ff7-e01b-c8002da77ec8" class="tp Link link"><path class="connection" stroke="black" id="v-2935" stroke-dasharray="none" d="M 552 401 420 276"/><path class="marker-source" fill="black" stroke="black" id="v-2936" d="" transform="translate(552,401) scale(1,1) rotate(-136.70980834960938)"/><path class="marker-target" fill="black" stroke="black" id="v-2937" d="M 8 0 L 0 4 L 8 8 z" transform="translate(416.742774482827,268.08843170285905) scale(1,1) rotate(43.290191650390625)"/><g class="labels" id="v-2939"><g class="js-link-label" id="v-2947" label-idx="0" cursor="move" transform="translate(486, 338.5)"><rect fill="white" rx="3" ry="3" x="0" y="0" width="0" height="0"/><text class="ui-link-label" text-anchor="middle" font-size="14pt" font-family="OpenSansCondensedLight" id="v-2948" y="0.8em" display="none" xml:space="preserve" transform="translate(0,0)"/></g></g></g><g id="j_107" model-id="809c3e72-a74d-4091-b662-3f0f88588552" class="tp Link link"><path class="connection" stroke="black" id="v-2921" stroke-dasharray="5,5" d="M 321 201 160 364"/><path class="marker-source" fill="black" stroke="black" id="v-2922" d="" transform="translate(321,201) scale(1,1) rotate(-225.35366821289062)"/><path class="marker-target" fill="black" stroke="black" id="v-2923" d="" transform="translate(160,364) scale(1,1) rotate(-45.35367202758789)"/><g class="labels" id="v-2925"><g class="js-link-label" id="v-2933" label-idx="0" cursor="move" transform="translate(240.5, 282.5)"><rect fill="white" rx="3" ry="3" x="0" y="0" width="0" height="0"/><text class="ui-link-label" text-anchor="middle" font-size="14pt" font-family="OpenSansCondensedLight" id="v-2934" y="0.8em" display="none" xml:space="preserve" transform="translate(0,0)"/></g></g></g><g id="j_106" model-id="c6508b78-3bb6-4cc6-8340-dc07be9d1339" class="tp Link link"><path class="connection" stroke="black" id="v-2907" stroke-dasharray="5,5" d="M 322 471 158 437"/><path class="marker-source" fill="black" stroke="black" id="v-2908" d="" transform="translate(322,471) scale(1,1) rotate(-168.2875213623047)"/><path class="marker-target" fill="black" stroke="black" id="v-2909" d="" transform="translate(158,437) scale(1,1) rotate(11.71246337890625)"/><g class="labels" id="v-2911"><g class="js-link-label" id="v-2919" label-idx="0" cursor="move" transform="translate(240, 454)"><rect fill="white" rx="3" ry="3" x="0" y="0" width="0" height="0"/><text class="ui-link-label" text-anchor="middle" font-size="14pt" font-family="OpenSansCondensedLight" id="v-2920" y="0.8em" display="none" xml:space="preserve" transform="translate(0,0)"/></g></g></g><g id="j_104" model-id="0aeeb9be-4139-4f39-9af8-842809839b17" class="element tp Element" transform="translate(76.48819160461426,364.0312500000001)"><g class="rotatable" id="v-2871"><g class="scalable" id="v-2881">
<path class="ui-fill ui-stroke js-perimeter" d="M82.99819518223653,0H0v71.99843437495217h82.99819518223653V0L82.99819518223653,0z" id="v-2878" stroke="#000000" stroke-dasharray="none" fill="#FFFFFF"/>
<rect class="ui-interior-label" x="3.6309457944465175" y="3.282603390955266" width="75.74531338439671" height="65.43322759304164" id="v-2879" fill="none"/>
<circle class="js-number-connector-1 js-link-connector" fill="none" cx="41.499097591118264" cy="0" r="0.1" id="v-2882"/>
<circle class="js-number-connector-2 js-link-connector" fill="none" cx="62.068450565613055" cy="0" r="0.1" id="v-2883"/>
<circle class="js-number-connector-3 js-link-connector" fill="none" cx="82.99819518223653" cy="18.15592304092639" r="0.1" id="v-2884"/>
<circle class="js-number-connector-4 js-link-connector" fill="none" cx="82.99819518223653" cy="35.999217187476084" r="0.1" id="v-2880"/>
<circle class="js-number-connector-5 js-link-connector" fill="none" cx="82.99819518223653" cy="53.84251133402578" r="0.1" id="v-2885"/>
<circle class="js-number-connector-6 js-link-connector" fill="none" cx="62.068450565613055" cy="71.99843437495217" r="0.1" id="v-2886"/>
<circle class="js-number-connector-7 js-link-connector" fill="none" cx="41.499097591118264" cy="71.99843437495217" r="0.1" id="v-2887"/>
<circle class="js-number-connector-8 js-link-connector" fill="none" cx="20.938754407676694" cy="71.99843437495217" r="0.1" id="v-2888"/>
<circle class="js-number-connector-9 js-link-connector" fill="none" cx="0" cy="53.84251133402578" r="0.1" id="v-2889"/>
<circle class="js-number-connector-10 js-link-connector" fill="none" cx="0" cy="35.999217187476084" r="0.1" id="v-2890"/>
<circle class="js-number-connector-11 js-link-connector" fill="none" cx="0" cy="18.15592304092639" r="0.1" id="v-2891"/>
<circle class="js-number-connector-12 js-link-connector" fill="none" cx="20.938754407676694" cy="0" r="0.1" id="v-2892"/>
</g></g><rect class="ui-number-box" id="v-2872" stroke="none" stroke-width="0" fill="#FFFFFF" x="0" y="0" width="0" height="0" transform="translate(82.898193359375,35.89921951293945)"/><path class="ui-number-leadline" id="v-2873" stroke="#000000" fill="none" d=""/><text class="ui-number-label" id="v-2874" font-family="OpenSansCondensedLight" font-size="14pt" fill="black" transform="translate(82.898193359375,35.89921951293945)"/><rect class="ui-label-box" id="v-2875" stroke-width="0" fill="none" width="75.74531316757202" height="65.43322443962097" transform="translate(3.6309456825256348,3.2826035022735596)"/><text class="ui-label" id="v-2876" font-family="OpenSansCondensedLight" font-size="14pt" fill="black" transform="translate(3.6309456825256348,3.2826035022735596)" text-anchor="middle"><tspan x="37.872657775878906" y="39.01662501953125"> 514</tspan></text><path class="ui-number-underline" id="v-2877" stroke="#000000" fill="none" transform="translate(3.6309456825256348,3.2826035022735596)" d="M 23.87767791748047 41 51.867637634277344 41"/></g></g><defs id="v-2680"/></svg>