<svg xmlns="http://www.w3.org/2000/svg" xmlns:xlink="http://www.w3.org/1999/xlink" version="1.1" width="649.3" height="542.7" viewBox="63.9 8 649.3 542.7"><g><g transform="translate(321,179)"><g><g>
<path d="M28,0H0v29h28V0L28,0z" stroke="none" stroke-dasharray="none" fill="#FFFFFF"/>
<rect x="1.2" y="1.3" width="25.6" height="26.4" fill="none"/>
<circle fill="none" cx="14" cy="0" r="0.1"/>
<circle fill="none" cx="20.9" cy="0" r="0.1"/>
<circle fill="none" cx="28" cy="7.3" r="0.1"/>
<circle fill="none" cx="28" cy="14.5" r="0.1"/>
<circle fill="none" cx="28" cy="21.7" r="0.1"/>
<circle fill="none" cx="20.9" cy="29" r="0.1"/>
<circle fill="none" cx="14" cy="29" r="0.1"/>
<circle fill="none" cx="7.1" cy="29" r="0.1"/>
<circle fill="none" cx="0" cy="21.7" r="0.1"/>
<circle fill="none" cx="0" cy="14.5" r="0.1"/>
<circle fill="none" cx="0" cy="7.3" r="0.1"/>
<circle fill="none" cx="7.1" cy="0" r="0.1"/>
</g></g><rect stroke="none" stroke-width="0" fill="#FFFFFF" x="0" y="0" width="0" height="0" transform="translate(27.9,14.4)"/><path stroke="#000000" fill="none" d=""/><text font-family="OpenSansCondensedLight" font-size="14pt" fill="black" transform="translate(27.9,14.4)"/><rect stroke-width="0" fill="none" width="25.6" height="26.4" transform="translate(1.2,1.3)"/><text font-family="OpenSansCondensedLight" font-size="14pt" fill="black" transform="translate(1.2,1.3)" text-anchor="middle"><tspan x="12.8" y="19.5"> </tspan></text><path stroke="#000000" fill="none" transform="translate(1.2,1.3)" d="M 0 0"/></g><g transform="translate(322,464)"><g><g>
<path d="M28,0H0v29h28V0L28,0z" stroke="none" stroke-dasharray="none" fill="#FFFFFF"/>
<rect x="1.2" y="1.3" width="25.6" height="26.4" fill="none"/>
<circle fill="none" cx="14" cy="0" r="0.1"/>
<circle fill="none" cx="20.9" cy="0" r="0.1"/>
<circle fill="none" cx="28" cy="7.3" r="0.1"/>
<circle fill="none" cx="28" cy="14.5" r="0.1"/>
<circle fill="none" cx="28" cy="21.7" r="0.1"/>
<circle fill="none" cx="20.9" cy="29" r="0.1"/>
<circle fill="none" cx="14" cy="29" r="0.1"/>
<circle fill="none" cx="7.1" cy="29" r="0.1"/>
<circle fill="none" cx="0" cy="21.7" r="0.1"/>
<circle fill="none" cx="0" cy="14.5" r="0.1"/>
<circle fill="none" cx="0" cy="7.3" r="0.1"/>
<circle fill="none" cx="7.1" cy="0" r="0.1"/>
</g></g><rect stroke="none" stroke-width="0" fill="#FFFFFF" x="0" y="0" width="0" height="0" transform="translate(27.9,14.4)"/><path stroke="#000000" fill="none" d=""/><text font-family="OpenSansCondensedLight" font-size="14pt" fill="black" transform="translate(27.9,14.4)"/><rect stroke-width="0" fill="none" width="25.6" height="26.4" transform="translate(1.2,1.3)"/><text font-family="OpenSansCondensedLight" font-size="14pt" fill="black" transform="translate(1.2,1.3)" text-anchor="middle"><tspan x="12.8" y="19.5"> </tspan></text><path stroke="#000000" fill="none" transform="translate(1.2,1.3)" d="M 0 0"/></g><g transform="translate(320,25)"><g><g>
<path d="M94.5,0H0v94.5h94.5V0L94.5,0z" stroke="#000000" stroke-dasharray="none" fill="#FFFFFF"/>
<rect x="4.1" y="4.3" width="86.2" height="85.9" fill="none"/>
<circle fill="none" cx="47.2" cy="0" r="0.1"/>
<circle fill="none" cx="70.7" cy="0" r="0.1"/>
<circle fill="none" cx="94.5" cy="23.8" r="0.1"/>
<circle fill="none" cx="94.5" cy="47.2" r="0.1"/>
<circle fill="none" cx="94.5" cy="70.7" r="0.1"/>
<circle fill="none" cx="70.7" cy="94.5" r="0.1"/>
<circle fill="none" cx="47.2" cy="94.5" r="0.1"/>
<circle fill="none" cx="23.8" cy="94.5" r="0.1"/>
<circle fill="none" cx="0" cy="70.7" r="0.1"/>
<circle fill="none" cx="0" cy="47.2" r="0.1"/>
<circle fill="none" cx="0" cy="23.8" r="0.1"/>
<circle fill="none" cx="23.8" cy="0" r="0.1"/>
</g></g><rect stroke="none" stroke-width="1" fill="#FFFFFF" x="0" y="0" width="40" height="20" transform="translate(-72.1,-16.3)"/><path stroke="#000000" fill="none" d="M0,23.8 C-6.2,0.5 -28.5,27 -34.8 3.7"/><text font-family="OpenSansCondensedLight" font-size="14pt" fill="black" transform="translate(-72.1,-16.3)" text-anchor="middle"><tspan x="20" y="16.3">502</tspan></text><rect stroke-width="0" fill="none" width="86.2" height="85.9" transform="translate(4.1,4.3)"/><text font-family="OpenSansCondensedLight" font-size="14pt" fill="black" transform="translate(4.1,4.3)" text-anchor="middle"><tspan x="43.1" y="49.2">CPU</tspan></text><path stroke="#000000" fill="none" transform="translate(4.1,4.3)" d="M 0 0"/></g><g transform="translate(64,200)"><g><g>
<path d="M94.5,0H0v94.5h94.5V0L94.5,0z" stroke="#000000" stroke-dasharray="none" fill="#FFFFFF"/>
<rect x="4.1" y="4.3" width="86.2" height="85.9" fill="none"/>
<circle fill="none" cx="47.2" cy="0" r="0.1"/>
<circle fill="none" cx="70.7" cy="0" r="0.1"/>
<circle fill="none" cx="94.5" cy="23.8" r="0.1"/>
<circle fill="none" cx="94.5" cy="47.2" r="0.1"/>
<circle fill="none" cx="94.5" cy="70.7" r="0.1"/>
<circle fill="none" cx="70.7" cy="94.5" r="0.1"/>
<circle fill="none" cx="47.2" cy="94.5" r="0.1"/>
<circle fill="none" cx="23.8" cy="94.5" r="0.1"/>
<circle fill="none" cx="0" cy="70.7" r="0.1"/>
<circle fill="none" cx="0" cy="47.2" r="0.1"/>
<circle fill="none" cx="0" cy="23.8" r="0.1"/>
<circle fill="none" cx="23.8" cy="0" r="0.1"/>
</g></g><rect stroke="none" stroke-width="1" fill="#FFFFFF" x="0" y="0" width="40" height="20" transform="translate(27.1,-70.1)"/><path stroke="#000000" fill="none" d="M47.2,0 C68.5,-21.3 25.9,-28.8 47.2 -50.1"/><text font-family="OpenSansCondensedLight" font-size="14pt" fill="black" transform="translate(27.1,-70.1)" text-anchor="middle"><tspan x="20" y="16.3">504</tspan></text><rect stroke-width="0" fill="none" width="86.2" height="85.9" transform="translate(4.1,4.3)"/><text font-family="OpenSansCondensedLight" font-size="14pt" fill="black" transform="translate(4.1,4.3)" text-anchor="middle"><tspan x="43.1" y="38.7">INPUT</tspan><tspan x="43.1" y="59.7">DEVICES</tspan></text><path stroke="#000000" fill="none" transform="translate(4.1,4.3)" d="M 0 0"/></g><g transform="translate(320,200)"><g><g>
<path d="M94.5,0H0v94.5h94.5V0L94.5,0z" stroke="#000000" stroke-dasharray="none" fill="#FFFFFF"/>
<rect x="4.1" y="4.3" width="86.2" height="85.9" fill="none"/>
<circle fill="none" cx="47.2" cy="0" r="0.1"/>
<circle fill="none" cx="70.7" cy="0" r="0.1"/>
<circle fill="none" cx="94.5" cy="23.8" r="0.1"/>
<circle fill="none" cx="94.5" cy="47.2" r="0.1"/>
<circle fill="none" cx="94.5" cy="70.7" r="0.1"/>
<circle fill="none" cx="70.7" cy="94.5" r="0.1"/>
<circle fill="none" cx="47.2" cy="94.5" r="0.1"/>
<circle fill="none" cx="23.8" cy="94.5" r="0.1"/>
<circle fill="none" cx="0" cy="70.7" r="0.1"/>
<circle fill="none" cx="0" cy="47.2" r="0.1"/>
<circle fill="none" cx="0" cy="23.8" r="0.1"/>
<circle fill="none" cx="23.8" cy="0" r="0.1"/>
</g></g><rect stroke="none" stroke-width="1" fill="#FFFFFF" x="0" y="0" width="40" height="20" transform="translate(80.6,-62.1)"/><path stroke="#000000" fill="none" d="M70.7,0 C98.8,-7.6 66.7,-34.5 94.8 -42.1"/><text font-family="OpenSansCondensedLight" font-size="14pt" fill="black" transform="translate(80.6,-62.1)" text-anchor="middle"><tspan x="20" y="16.3">506</tspan></text><rect stroke-width="0" fill="none" width="86.2" height="85.9" transform="translate(4.1,4.3)"/><text font-family="OpenSansCondensedLight" font-size="14pt" fill="black" transform="translate(4.1,4.3)" text-anchor="middle"><tspan x="43.1" y="49.2">MEMORY</tspan></text><path stroke="#000000" fill="none" transform="translate(4.1,4.3)" d="M 0 0"/></g><g transform="translate(551.5,200)"><g><g>
<path d="M94.5,0H0v94.5h94.5V0L94.5,0z" stroke="#000000" stroke-dasharray="none" fill="#FFFFFF"/>
<rect x="4.1" y="4.3" width="86.2" height="85.9" fill="none"/>
<circle fill="none" cx="47.2" cy="0" r="0.1"/>
<circle fill="none" cx="70.7" cy="0" r="0.1"/>
<circle fill="none" cx="94.5" cy="23.8" r="0.1"/>
<circle fill="none" cx="94.5" cy="47.2" r="0.1"/>
<circle fill="none" cx="94.5" cy="70.7" r="0.1"/>
<circle fill="none" cx="70.7" cy="94.5" r="0.1"/>
<circle fill="none" cx="47.2" cy="94.5" r="0.1"/>
<circle fill="none" cx="23.8" cy="94.5" r="0.1"/>
<circle fill="none" cx="0" cy="70.7" r="0.1"/>
<circle fill="none" cx="0" cy="47.2" r="0.1"/>
<circle fill="none" cx="0" cy="23.8" r="0.1"/>
<circle fill="none" cx="23.8" cy="0" r="0.1"/>
</g></g><rect stroke="none" stroke-width="1" fill="#FFFFFF" x="0" y="0" width="40" height="20" transform="translate(-26.3,-62.1)"/><path stroke="#000000" fill="none" d="M23.8,0 C31.4,-28.2 -8,-13.9 -0.5 -42.1"/><text font-family="OpenSansCondensedLight" font-size="14pt" fill="black" transform="translate(-26.3,-62.1)" text-anchor="middle"><tspan x="20" y="16.3">508</tspan></text><rect stroke-width="0" fill="none" width="86.2" height="85.9" transform="translate(4.1,4.3)"/><text font-family="OpenSansCondensedLight" font-size="14pt" fill="black" transform="translate(4.1,4.3)" text-anchor="middle"><tspan x="43.1" y="38.7">OUTPUT</tspan><tspan x="43.1" y="59.7">DEVICES</tspan></text><path stroke="#000000" fill="none" transform="translate(4.1,4.3)" d="M 0 0"/></g><g transform="translate(320,377)"><g><g>
<path d="M94.5,0H0v94.5h94.5V0L94.5,0z" stroke="#000000" stroke-dasharray="none" fill="#FFFFFF"/>
<rect x="4.1" y="4.3" width="86.2" height="85.9" fill="none"/>
<circle fill="none" cx="47.2" cy="0" r="0.1"/>
<circle fill="none" cx="70.7" cy="0" r="0.1"/>
<circle fill="none" cx="94.5" cy="23.8" r="0.1"/>
<circle fill="none" cx="94.5" cy="47.2" r="0.1"/>
<circle fill="none" cx="94.5" cy="70.7" r="0.1"/>
<circle fill="none" cx="70.7" cy="94.5" r="0.1"/>
<circle fill="none" cx="47.2" cy="94.5" r="0.1"/>
<circle fill="none" cx="23.8" cy="94.5" r="0.1"/>
<circle fill="none" cx="0" cy="70.7" r="0.1"/>
<circle fill="none" cx="0" cy="47.2" r="0.1"/>
<circle fill="none" cx="0" cy="23.8" r="0.1"/>
<circle fill="none" cx="23.8" cy="0" r="0.1"/>
</g></g><rect stroke="none" stroke-width="1" fill="#FFFFFF" x="0" y="0" width="40" height="20" transform="translate(27.1,144.4)"/><path stroke="#000000" fill="none" d="M47.2,94.5 C26,115.6 68.4,123.3 47.2 144.4"/><text font-family="OpenSansCondensedLight" font-size="14pt" fill="black" transform="translate(27.1,144.4)" text-anchor="middle"><tspan x="20" y="16.3">510</tspan></text><rect stroke-width="0" fill="none" width="86.2" height="85.9" transform="translate(4.1,4.3)"/><text font-family="OpenSansCondensedLight" font-size="14pt" fill="black" transform="translate(4.1,4.3)" text-anchor="middle"><tspan x="43.1" y="38.7">STORAGE</tspan><tspan x="43.1" y="59.7">DEVICES</tspan></text><path stroke="#000000" fill="none" transform="translate(4.1,4.3)" d="M 0 0"/></g><g transform="translate(551.5,377)"><g><g>
<path d="M94.5,0H0v94.5h94.5V0L94.5,0z" stroke="#000000" stroke-dasharray="none" fill="#FFFFFF"/>
<rect x="4.1" y="4.3" width="86.2" height="85.9" fill="none"/>
<circle fill="none" cx="47.2" cy="0" r="0.1"/>
<circle fill="none" cx="70.7" cy="0" r="0.1"/>
<circle fill="none" cx="94.5" cy="23.8" r="0.1"/>
<circle fill="none" cx="94.5" cy="47.2" r="0.1"/>
<circle fill="none" cx="94.5" cy="70.7" r="0.1"/>
<circle fill="none" cx="70.7" cy="94.5" r="0.1"/>
<circle fill="none" cx="47.2" cy="94.5" r="0.1"/>
<circle fill="none" cx="23.8" cy="94.5" r="0.1"/>
<circle fill="none" cx="0" cy="70.7" r="0.1"/>
<circle fill="none" cx="0" cy="47.2" r="0.1"/>
<circle fill="none" cx="0" cy="23.8" r="0.1"/>
<circle fill="none" cx="23.8" cy="0" r="0.1"/>
</g></g><rect stroke="none" stroke-width="1" fill="#FFFFFF" x="0" y="0" width="40" height="20" transform="translate(27.1,144.4)"/><path stroke="#000000" fill="none" d="M47.2,94.5 C26,115.6 68.4,123.3 47.2 144.4"/><text font-family="OpenSansCondensedLight" font-size="14pt" fill="black" transform="translate(27.1,144.4)" text-anchor="middle"><tspan x="20" y="16.3">512</tspan></text><rect stroke-width="0" fill="none" width="86.2" height="85.9" transform="translate(4.1,4.3)"/><text font-family="OpenSansCondensedLight" font-size="14pt" fill="black" transform="translate(4.1,4.3)" text-anchor="middle"><tspan x="43.1" y="38.7">NETWORK</tspan><tspan x="43.1" y="59.7">INTERFACE</tspan></text><path stroke="#000000" fill="none" transform="translate(4.1,4.3)" d="M 0 0"/></g><g><path stroke="black" stroke-dasharray="none" d="M 158 247 L 270.6 247 C 273.6 253.8 277.6 253.8 280.6 247 L 312 247" fill="none"/><path fill="black" stroke="black" d="" transform="translate(158,247) scale(1,1) rotate(0)"/><path fill="black" stroke="black" d="M 8 0 L 0 4 L 8 8 z" transform="translate(320,251) scale(1,1) rotate(-180)"/><g><g label-idx="0" cursor="move" transform="translate(237.5, 247)"><rect fill="white" rx="3" ry="3" x="0" y="0" width="0" height="0"/><text text-anchor="middle" font-size="14pt" font-family="OpenSansCondensedLight" y="0.8em" display="none" xml:space="preserve" transform="translate(0,0)"/></g></g></g><g><path stroke="black" stroke-dasharray="none" d="M 414 247 544 247" fill="none"/><path fill="black" stroke="black" d="" transform="translate(414,247) scale(1,1) rotate(0)"/><path fill="black" stroke="black" d="M 8 0 L 0 4 L 8 8 z" transform="translate(552,251) scale(1,1) rotate(-180)"/><g><g label-idx="0" cursor="move" transform="translate(479, 247)"><rect fill="white" rx="3" ry="3" x="0" y="0" width="0" height="0"/><text text-anchor="middle" font-size="14pt" font-family="OpenSansCondensedLight" y="0.8em" display="none" xml:space="preserve" transform="translate(0,0)"/></g></g></g><g><path stroke="black" stroke-dasharray="none" d="M 367 119 367 192" fill="none"/><path fill="black" stroke="black" d="" transform="translate(367,119) scale(1,1) rotate(-270)"/><path fill="black" stroke="black" d="M 8 0 L 0 4 L 8 8 z" transform="translate(363,200) scale(1,1) rotate(-90)"/><g><g label-idx="0" cursor="move" transform="translate(367, 155.5)"><rect fill="white" rx="3" ry="3" x="0" y="0" width="0" height="0"/><text text-anchor="middle" font-size="14pt" font-family="OpenSansCondensedLight" y="0.8em" display="none" xml:space="preserve" transform="translate(0,0)"/></g></g></g><g><path stroke="black" stroke-dasharray="none" d="M 367 294 367 369" fill="none"/><path fill="black" stroke="black" d="" transform="translate(367,294) scale(1,1) rotate(-270)"/><path fill="black" stroke="black" d="M 8 0 L 0 4 L 8 8 z" transform="translate(363,377) scale(1,1) rotate(-90)"/><g><g label-idx="0" cursor="move" transform="translate(367, 331.5)"><rect fill="white" rx="3" ry="3" x="0" y="0" width="0" height="0"/><text text-anchor="middle" font-size="14pt" font-family="OpenSansCondensedLight" y="0.8em" display="none" xml:space="preserve" transform="translate(0,0)"/></g></g></g><g><path stroke="black" stroke-dasharray="none" d="M 367 377 367 303" fill="none"/><path fill="black" stroke="black" d="" transform="translate(367,377) scale(1,1) rotate(-90)"/><path fill="black" stroke="black" d="M 8 0 L 0 4 L 8 8 z" transform="translate(371,295) scale(1,1) rotate(-270)"/><g><g label-idx="0" cursor="move" transform="translate(367, 340)"><rect fill="white" rx="3" ry="3" x="0" y="0" width="0" height="0"/><text text-anchor="middle" font-size="14pt" font-family="OpenSansCondensedLight" y="0.8em" display="none" xml:space="preserve" transform="translate(0,0)"/></g></g></g><g><path stroke="black" stroke-dasharray="none" d="M 367 200 367 123" fill="none"/><path fill="black" stroke="black" d="" transform="translate(367,200) scale(1,1) rotate(-90)"/><path fill="black" stroke="black" d="M 8 0 L 0 4 L 8 8 z" transform="translate(371,115) scale(1,1) rotate(-270)"/><g><g label-idx="0" cursor="move" transform="translate(367, 161.5)"><rect fill="white" rx="3" ry="3" x="0" y="0" width="0" height="0"/><text text-anchor="middle" font-size="14pt" font-family="OpenSansCondensedLight" y="0.8em" display="none" xml:space="preserve" transform="translate(0,0)"/></g></g></g><g><path stroke="black" stroke-dasharray="none" d="M 414 271 546 396" fill="none"/><path fill="black" stroke="black" d="" transform="translate(414,271) scale(1,1) rotate(43.3)"/><path fill="black" stroke="black" d="M 8 0 L 0 4 L 8 8 z" transform="translate(549.3,403.9) scale(1,1) rotate(-136.7)"/><g><g label-idx="0" cursor="move" transform="translate(480, 333.5)"><rect fill="white" rx="3" ry="3" x="0" y="0" width="0" height="0"/><text text-anchor="middle" font-size="14pt" font-family="OpenSansCondensedLight" y="0.8em" display="none" xml:space="preserve" transform="translate(0,0)"/></g></g></g><g><path stroke="black" stroke-dasharray="none" d="M 552 401 420 276" fill="none"/><path fill="black" stroke="black" d="" transform="translate(552,401) scale(1,1) rotate(-136.7)"/><path fill="black" stroke="black" d="M 8 0 L 0 4 L 8 8 z" transform="translate(416.7,268.1) scale(1,1) rotate(43.3)"/><g><g label-idx="0" cursor="move" transform="translate(486, 338.5)"><rect fill="white" rx="3" ry="3" x="0" y="0" width="0" height="0"/><text text-anchor="middle" font-size="14pt" font-family="OpenSansCondensedLight" y="0.8em" display="none" xml:space="preserve" transform="translate(0,0)"/></g></g></g><g><path stroke="black" stroke-dasharray="5,5" d="M 321 201 160 364" fill="none"/><path fill="black" stroke="black" d="" transform="translate(321,201) scale(1,1) rotate(-225.4)"/><path fill="black" stroke="black" d="" transform="translate(160,364) scale(1,1) rotate(-45.4)"/><g><g label-idx="0" cursor="move" transform="translate(240.5, 282.5)"><rect fill="white" rx="3" ry="3" x="0" y="0" width="0" height="0"/><text text-anchor="middle" font-size="14pt" font-family="OpenSansCondensedLight" y="0.8em" display="none" xml:space="preserve" transform="translate(0,0)"/></g></g></g><g><path stroke="black" stroke-dasharray="5,5" d="M 322 471 158 437" fill="none"/><path fill="black" stroke="black" d="" transform="translate(322,471) scale(1,1) rotate(-168.3)"/><path fill="black" stroke="black" d="" transform="translate(158,437) scale(1,1) rotate(11.7)"/><g><g label-idx="0" cursor="move" transform="translate(240, 454)"><rect fill="white" rx="3" ry="3" x="0" y="0" width="0" height="0"/><text text-anchor="middle" font-size="14pt" font-family="OpenSansCondensedLight" y="0.8em" display="none" xml:space="preserve" transform="translate(0,0)"/></g></g></g><g transform="translate(76.5,364)"><g><g>
<path d="M83,0H0v72h83V0L83,0z" stroke="#000000" stroke-dasharray="none" fill="#FFFFFF"/>
<rect x="3.6" y="3.3" width="75.7" height="65.4" fill="none"/>
<circle fill="none" cx="41.5" cy="0" r="0.1"/>
<circle fill="none" cx="62.1" cy="0" r="0.1"/>
<circle fill="none" cx="83" cy="18.2" r="0.1"/>
<circle fill="none" cx="83" cy="36" r="0.1"/>
<circle fill="none" cx="83" cy="53.8" r="0.1"/>
<circle fill="none" cx="62.1" cy="72" r="0.1"/>
<circle fill="none" cx="41.5" cy="72" r="0.1"/>
<circle fill="none" cx="20.9" cy="72" r="0.1"/>
<circle fill="none" cx="0" cy="53.8" r="0.1"/>
<circle fill="none" cx="0" cy="36" r="0.1"/>
<circle fill="none" cx="0" cy="18.2" r="0.1"/>
<circle fill="none" cx="20.9" cy="0" r="0.1"/>
</g></g><rect stroke="none" stroke-width="0" fill="#FFFFFF" x="0" y="0" width="0" height="0" transform="translate(82.9,35.9)"/><path stroke="#000000" fill="none" d=""/><text font-family="OpenSansCondensedLight" font-size="14pt" fill="black" transform="translate(82.9,35.9)"/><rect stroke-width="0" fill="none" width="75.7" height="65.4" transform="translate(3.6,3.3)"/><text font-family="OpenSansCondensedLight" font-size="14pt" fill="black" transform="translate(3.6,3.3)" text-anchor="middle"><tspan x="37.9" y="39"> 514</tspan></text><path stroke="#000000" fill="none" transform="translate(3.6,3.3)" d="M 23.9 41 51.9 41"/></g></g><defs/></svg>