<svg xmlns="http://www.w3.org/2000/svg" xmlns:xlink="http://www.w3.org/1999/xlink" version="1.1" id="v-3033" width="664" height="867"><g id="v-3034" class="viewport"><g id="j_115" model-id="fd7e7dbc-ac64-4d3c-a4bc-95b0731ac2f3" class="element tp Element" transform="translate(-19,51.00000000000102)"><g class="rotatable" id="v-3036"><g class="scalable" id="v-3046">
<path class="ui-fill ui-stroke js-perimeter" d="M682.985148306838,0H0v473.9896929684351h682.985148306838V0L682.985148306838,0z" id="v-3043" stroke="#000000" stroke-dasharray="none" fill="#FFFFFF"/>
<rect class="ui-interior-label" x="29.878746718156282" y="21.610472323788834" width="623.3017956812405" height="430.76874832085747" id="v-3044" fill="none"/>
<circle class="js-number-connector-1 js-link-connector" fill="none" cx="341.492574153419" cy="0" r="0.1" id="v-3047"/>
<circle class="js-number-connector-2 js-link-connector" fill="none" cx="510.7560450158279" cy="0" r="0.1" id="v-3045"/>
<circle class="js-number-connector-3 js-link-connector" fill="none" cx="682.985148306838" cy="119.52649335276539" r="0.1" id="v-3048"/>
<circle class="js-number-connector-4 js-link-connector" fill="none" cx="682.985148306838" cy="236.99484648421756" r="0.1" id="v-3049"/>
<circle class="js-number-connector-5 js-link-connector" fill="none" cx="682.985148306838" cy="354.4631996156697" r="0.1" id="v-3050"/>
<circle class="js-number-connector-6 js-link-connector" fill="none" cx="510.7560450158279" cy="473.9896929684351" r="0.1" id="v-3051"/>
<circle class="js-number-connector-7 js-link-connector" fill="none" cx="341.492574153419" cy="473.9896929684351" r="0.1" id="v-3052"/>
<circle class="js-number-connector-8 js-link-connector" fill="none" cx="172.30324410172508" cy="473.9896929684351" r="0.1" id="v-3053"/>
<circle class="js-number-connector-9 js-link-connector" fill="none" cx="0" cy="354.4631996156697" r="0.1" id="v-3054"/>
<circle class="js-number-connector-10 js-link-connector" fill="none" cx="0" cy="236.99484648421756" r="0.1" id="v-3055"/>
<circle class="js-number-connector-11 js-link-connector" fill="none" cx="0" cy="119.52649335276539" r="0.1" id="v-3056"/>
<circle class="js-number-connector-12 js-link-connector" fill="none" cx="172.30324410172508" cy="0" r="0.1" id="v-3057"/>
</g></g><rect class="ui-number-box" id="v-3037" stroke="none" stroke-width="0" fill="#FFFFFF" x="0" y="0" width="0" height="0" transform="translate(510.6560363769531,-0.10000000149011612)"/><path class="ui-number-leadline" id="v-3038" stroke="#000000" fill="none" d=""/><text class="ui-number-label" id="v-3039" font-family="OpenSansCondensedLight" font-size="14pt" fill="black" transform="translate(510.6560363769531,-0.10000000149011612)"/><rect class="ui-label-box" id="v-3040" stroke-width="0" fill="none" width="623.3017959594727" height="430.7687397003174" transform="translate(29.878746032714844,21.610471725463867)"/><text class="ui-label" id="v-3041" font-family="OpenSansCondensedLight" font-size="14pt" fill="black" transform="translate(29.878746032714844,21.610471725463867)" text-anchor="middle"><tspan x="311.6509094238281" y="221.68438014648436"> </tspan></text><path class="ui-number-underline" id="v-3042" stroke="#000000" fill="none" transform="translate(29.878746032714844,21.610471725463867)" d="M 0 0"/></g><g id="j_121" model-id="a877bef7-b2ee-4fa7-af7e-8edb13fdbeda" class="element tp Element" transform="translate(572.6508340835571,13.326771259307897)"><polygon class="ui-arrowhead" fill="#000000" points="0,0 4.2,11.2 11.8,2" id="v-3188" transform="translate(-5.900000095367432,19)"/>
<rect class="ui-label-anchor" fill="none" width="1" height="1" id="v-3190" transform="translate(33,-0.5)"/>
<g class="rotatable" id="v-3192"><g class="scalable" id="v-3200">
<rect x="0" y="0" width="28" height="19.999999600555267" opacity="0" id="v-3201"/>
<path class="ui-stem" fill="none" stroke="#000000" stroke-width="1" d="M28,0C16.476923076923075,1.5706805969022462,6.892307692307693,9.424083581413477,0,19.999999600555267" id="v-3199"/>
</g></g><rect class="ui-number-box" id="v-3193" stroke="none" stroke-width="0" fill="#FFFFFF" x="0" y="0" width="0" height="0"/><path class="ui-number-leadline" id="v-3194" stroke="#000000" fill="none"/><text class="ui-number-label" id="v-3195" font-family="OpenSansCondensedLight" font-size="14pt" fill="black" transform="translate(0,0)"/><rect class="ui-label-box" id="v-3196" stroke-width="0" fill="none" width="1" height="1" transform="translate(33,-0.5)"/><text class="ui-label" id="v-3197" font-family="OpenSansCondensedLight" font-size="14pt" fill="black" text-decoration="none" transform="translate(33,-0.5)"><tspan x="0" y="6.800011250000001">600</tspan></text><path class="ui-number-underline" id="v-3198" stroke="#000000" fill="none" transform="translate(33,-0.5)"/></g><g id="j_116" model-id="a2a80621-ebb3-47a6-a520-9c24d87f9c9a" class="element tp Element" transform="translate(66.99999999999987,4.000000000000014)"><g class="rotatable" id="v-3058"><g class="scalable" id="v-3068">
<g class="ui-fill ui-stroke" id="v-3065" stroke="#000000" stroke-dasharray="none" fill="#FFFFFF">
    <ellipse id="v-3070" cx="9.467051163726078" cy="5.483107410419696" rx="1.2414840245781247" ry="1.1914888399573182"/>
    <polygon class="js-perimeter" points="18.99882424342542,43.0065355692651 9.467051163726078,46.998870213103125 0,43.0065355692651 9.467051163726078,6.674596250377014" id="v-3072"/>
</g>
<g class="ui-stroke" fill="none" id="v-3066" stroke="#000000" stroke-dasharray="none">
    <line x1="9.467051163726078" y1="6.674596250377014" x2="9.467051163726078" y2="46.998870213103125" id="v-3073"/>
    <ellipse id="v-3074" cx="9.467051163726078" cy="5.483107410419696" rx="1.2414840245781247" ry="1.1914888399573182"/>
    <line x1="9.467051163726078" y1="6.674596250377014" x2="0" y2="43.0065355692651" id="v-3076"/>
    <line x1="9.467051163726078" y1="6.674596250377014" x2="18.99882424342542" y2="43.0065355692651" id="v-3077"/>
    <polygon points="9.467051163726078,13.473423564635835 7.8784223171095205,12.75062464750533 9.467051163726078,12.02217886383474 11.049796199799612,12.784505846745821" id="v-3078"/>
    <polygon points="9.467051163726078,15.455473720204644 7.401833663124553,14.563268806871674 9.467051163726078,13.608948361597804 11.52638485378458,14.597150006112168" id="v-3079"/>
    <polygon points="9.467051163726078,18.069972928262644 6.813452608822124,16.878484088305324 9.467051163726078,15.68699524834801 12.150068771345152,16.91236528754582" id="v-3080"/>
    <polygon points="9.467051163726078,21.339508654970167 6.0250219960568705,19.916498286869484 9.467051163726078,18.329728789106422 12.938499384110408,19.950379486109977" id="v-3081"/>
    <polygon points="9.467051163726078,25.66500842467304 5.024774203742742,23.750720667585217 9.467051163726078,21.734789312775913 13.938747176424537,23.778955000285627" id="v-3082"/>
    <polygon points="9.467051163726078,31.080353436611748 3.753871126449495,28.669141423996702 9.467051163726078,26.060289082478782 15.209650253717783,28.60137902551572" id="v-3083"/>
    <polygon points="9.467051163726078,38.08246794631352 2.100520363859671,34.97669134926838 9.467051163726078,31.645040090619958 16.863001016307607,34.88069461808699" id="v-3084"/>
    <polygon points="9.467051163726078,46.998870213103125 0,43.0065355692651 9.467051163726078,38.81091372998411 18.99882424342542,43.0065355692651" id="v-3085"/>
    <path class="js-perimeter" d="M12.114765908087007,10.373293834130774c1.823981268337529,-0.959967311813953,3.0654652929156536,-2.7726114711802996,3.0654652929156536,-4.856305224470586C15.18023120100266,2.4789744110960314,12.632541235873143,0,9.467051163726078,0S3.7185682631913495,2.4789744110960314,3.7185682631913495,5.5169886096601894c0,2.145809285231189,1.2414840245781247,3.9979815103781102,3.0654652929156536,4.856305224470586" id="v-3086"/>
    <path d="M11.702899170075307,8.684880738646235c1.0649697082873961,-0.7284457836705879,1.7533755418212376,-1.8182910259064289,1.7533755418212376,-3.173538995526127c0,-2.0836937532902864,-1.7533755418212376,-3.8342223807157305,-3.9951073587134913,-3.8342223807157305S5.471943805012587,3.4332948563699026,5.471943805012587,5.5169886096601894c0,1.3552479696196984,0.759011560050133,2.4789744110960314,1.823981268337529,3.173538995526127" id="v-3087"/>
    <path d="M11.291032432063608,7.1037581074232525c0.4118667380117001,-0.3952806578057454,0.6531029702756959,-0.959967311813953,0.6531029702756959,-1.5867694977630635c0,-1.2874855711387134,-1.0649697082873961,-2.3095684148935693,-2.406478512096933,-2.3095684148935693S7.060572651629144,4.229503038521476,7.060572651629144,5.5169886096601894c0,0.6268021859491105,0.24123623226399574,1.1914888399573182,0.6531029702756959,1.682766228944459" id="v-3088"/>
</g>
<rect class="ui-interior-label" x="1.170878298061833" y="17.222942947250335" width="17.1042372485716" height="15.96369170881203" id="v-3067" fill="none"/>
<circle class="js-number-connector-1 js-link-connector" fill="none" cx="9.431748300467932" cy="0" r="0.1" id="v-3089"/>
<circle class="js-number-connector-2 js-link-connector" fill="none" cx="15.18023120100266" cy="5.5169886096601894" r="0.1" id="v-3090"/>
<circle class="js-number-connector-3 js-link-connector" fill="none" cx="11.532268664327603" cy="14.597150006112168" r="0.1" id="v-3069"/>
<circle class="js-number-connector-4 js-link-connector" fill="none" cx="13.938747176424537" cy="23.778955000285627" r="0.1" id="v-3091"/>
<circle class="js-number-connector-5 js-link-connector" fill="none" cx="16.863001016307607" cy="34.88069461808699" r="0.1" id="v-3092"/>
<circle class="js-number-connector-6 js-link-connector" fill="none" cx="18.99882424342542" cy="43.0065355692651" r="0.1" id="v-3093"/>
<circle class="js-number-connector-7 js-link-connector" fill="none" cx="9.467051163726078" cy="46.998870213103125" r="0.1" id="v-3094"/>
<circle class="js-number-connector-8 js-link-connector" fill="none" cx="0" cy="43.0065355692651" r="0.1" id="v-3095"/>
<circle class="js-number-connector-9 js-link-connector" fill="none" cx="2.100520363859671" cy="34.97669134926838" r="0.1" id="v-3096"/>
<circle class="js-number-connector-10 js-link-connector" fill="none" cx="5.024774203742742" cy="23.716839468344723" r="0.1" id="v-3097"/>
<circle class="js-number-connector-11 js-link-connector" fill="none" cx="7.401833663124553" cy="14.568915673411757" r="0.1" id="v-3098"/>
<circle class="js-number-connector-12 js-link-connector" fill="none" cx="3.7185682631913495" cy="5.5169886096601894" r="0.1" id="v-3099"/>
</g></g><rect class="ui-number-box" id="v-3059" stroke="none" stroke-width="1" fill="#FFFFFF" x="0" y="0" width="40" height="20" transform="translate(51.432268142700195,4.497149467468262)"/><path class="ui-number-leadline" id="v-3060" stroke="#000000" fill="none" d="M11.532268047332764,14.59714937210083 C28.488664119715008,31.497024445413444 34.475870162969336,-2.369336337414424 51.43226623535156 14.530538735898208"/><text class="ui-number-label" id="v-3061" font-family="OpenSansCondensedLight" font-size="14pt" fill="black" transform="translate(51.43226623535156,4.497149467468262)" text-anchor="middle"><tspan x="20" y="16.30001172683716">602</tspan></text><rect class="ui-label-box" id="v-3062" stroke-width="0" fill="none" width="57.59647636860609" transform="translate(-19.298826027661562,57.098873138427734)"/><text class="ui-label" id="v-3063" font-family="OpenSansCondensedLight" font-size="14pt" fill="black" transform="translate(-19.298826217651367,57.098873138427734)" text-anchor="middle"><tspan x="28.79823875427246" y="16.80003"> </tspan></text><path class="ui-number-underline" id="v-3064" stroke="#000000" fill="none" transform="translate(-19.298826217651367,57.098873138427734)" d="M 0 0"/></g><g id="j_117" model-id="9b551e9d-e83e-4bf3-ad34-521334c89553" class="element tp Element" transform="translate(217.9999999999995,150.0000000000002)"><g class="rotatable" id="v-3100"><g class="scalable" id="v-3110">
<path class="ui-fill ui-stroke js-perimeter" d="M93.9979559895209,0H0v215.99530312485652h93.9979559895209V0L93.9979559895209,0z" id="v-3107" stroke="#000000" stroke-dasharray="none" fill="#FFFFFF"/>
<rect class="ui-interior-label" x="4.112155478047863" y="9.847810172865799" width="85.78384889317219" height="196.29968277912494" id="v-3108" fill="none"/>
<circle class="js-number-connector-1 js-link-connector" fill="none" cx="46.99897799476045" cy="0" r="0.1" id="v-3111"/>
<circle class="js-number-connector-2 js-link-connector" fill="none" cx="70.29438979720032" cy="0" r="0.1" id="v-3109"/>
<circle class="js-number-connector-3 js-link-connector" fill="none" cx="93.9979559895209" cy="54.46776912277917" r="0.1" id="v-3112"/>
<circle class="js-number-connector-4 js-link-connector" fill="none" cx="93.9979559895209" cy="107.99765156242826" r="0.1" id="v-3113"/>
<circle class="js-number-connector-5 js-link-connector" fill="none" cx="93.9979559895209" cy="161.52753400207735" r="0.1" id="v-3114"/>
<circle class="js-number-connector-6 js-link-connector" fill="none" cx="70.29438979720032" cy="215.99530312485652" r="0.1" id="v-3115"/>
<circle class="js-number-connector-7 js-link-connector" fill="none" cx="46.99897799476045" cy="215.99530312485652" r="0.1" id="v-3116"/>
<circle class="js-number-connector-8 js-link-connector" fill="none" cx="23.71377005206758" cy="215.99530312485652" r="0.1" id="v-3117"/>
<circle class="js-number-connector-9 js-link-connector" fill="none" cx="0" cy="161.52753400207735" r="0.1" id="v-3118"/>
<circle class="js-number-connector-10 js-link-connector" fill="none" cx="0" cy="107.99765156242826" r="0.1" id="v-3119"/>
<circle class="js-number-connector-11 js-link-connector" fill="none" cx="0" cy="54.46776912277917" r="0.1" id="v-3120"/>
<circle class="js-number-connector-12 js-link-connector" fill="none" cx="23.71377005206758" cy="0" r="0.1" id="v-3121"/>
</g></g><rect class="ui-number-box" id="v-3101" stroke="none" stroke-width="1" fill="#FFFFFF" x="0" y="0" width="40" height="20" transform="translate(80.19438934326172,-62.06152422855643)"/><path class="ui-number-leadline" id="v-3102" stroke="#000000" fill="none" d="M70.29438781738281,0 C98.38844155793286,-7.596332399081713 66.35713034254019,-34.46519103841834 94.45118408309027 -42.0615234375"/><text class="ui-number-label" id="v-3103" font-family="OpenSansCondensedLight" font-size="14pt" fill="black" transform="translate(80.19438934326172,-62.0615234375)" text-anchor="middle"><tspan x="20" y="16.30001125">604</tspan></text><rect class="ui-label-box" id="v-3104" stroke-width="0" fill="none" width="85.78384828567505" height="196.29968166351318" transform="translate(4.112155437469482,9.847809791564941)"/><text class="ui-label" id="v-3105" font-family="OpenSansCondensedLight" font-size="14pt" fill="black" transform="translate(4.112155437469482,9.847809791564941)" text-anchor="middle"><tspan x="42.89192581176758" y="93.94983380859375">CONTROL</tspan><tspan x="42.89192581176758" y="114.94987130859374">LOGIC</tspan></text><path class="ui-number-underline" id="v-3106" stroke="#000000" fill="none" transform="translate(4.112155437469482,9.847809791564941)" d="M 0 0"/></g><g id="j_118" model-id="6b9dd079-cb3d-441c-a6d2-a187758514b7" class="element tp Element" transform="translate(16.25590419769256,155.00000000000037)"><g class="rotatable" id="v-3122"><g class="scalable" id="v-3132">
<path class="ui-fill ui-stroke js-perimeter" d="M120.99736888012796,0H0v103.99773854159758h120.99736888012796V0L120.99736888012796,0z" id="v-3129" stroke="#000000" stroke-dasharray="none" fill="#FFFFFF"/>
<rect class="ui-interior-label" x="5.293306519614803" y="4.741538231379829" width="110.42389059653016" height="94.51466207883793" id="v-3130" fill="none"/>
<circle class="js-number-connector-1 js-link-connector" fill="none" cx="60.49868444006398" cy="0" r="0.1" id="v-3133"/>
<circle class="js-number-connector-2 js-link-connector" fill="none" cx="90.48533154746" cy="0" r="0.1" id="v-3134"/>
<circle class="js-number-connector-3 js-link-connector" fill="none" cx="120.99736888012796" cy="26.22522217022701" r="0.1" id="v-3131"/>
<circle class="js-number-connector-4 js-link-connector" fill="none" cx="120.99736888012796" cy="51.99886927079879" r="0.1" id="v-3135"/>
<circle class="js-number-connector-5 js-link-connector" fill="none" cx="120.99736888012796" cy="77.77251637137057" r="0.1" id="v-3136"/>
<circle class="js-number-connector-6 js-link-connector" fill="none" cx="90.48533154746" cy="103.99773854159758" r="0.1" id="v-3137"/>
<circle class="js-number-connector-7 js-link-connector" fill="none" cx="60.49868444006398" cy="103.99773854159758" r="0.1" id="v-3138"/>
<circle class="js-number-connector-8 js-link-connector" fill="none" cx="30.52517208829976" cy="103.99773854159758" r="0.1" id="v-3139"/>
<circle class="js-number-connector-9 js-link-connector" fill="none" cx="0" cy="77.77251637137057" r="0.1" id="v-3140"/>
<circle class="js-number-connector-10 js-link-connector" fill="none" cx="0" cy="51.99886927079879" r="0.1" id="v-3141"/>
<circle class="js-number-connector-11 js-link-connector" fill="none" cx="0" cy="26.22522217022701" r="0.1" id="v-3142"/>
<circle class="js-number-connector-12 js-link-connector" fill="none" cx="30.52517208829976" cy="0" r="0.1" id="v-3143"/>
</g></g><rect class="ui-number-box" id="v-3123" stroke="none" stroke-width="1" fill="#FFFFFF" x="0" y="0" width="40" height="20" transform="translate(152.85889361183195,-13.874778747558594)"/><path class="ui-number-leadline" id="v-3124" stroke="#000000" fill="none" d="M120.99736785888672,26.225221633911133 C144.21809509452993,32.39053298364703 132.408419216462,-0.04009009729449353 155.6291464521052 6.125221252441406"/><text class="ui-number-label" id="v-3125" font-family="OpenSansCondensedLight" font-size="14pt" fill="black" transform="translate(152.85888671875,-13.874778747558594)" text-anchor="middle"><tspan x="20" y="16.30001125">606</tspan></text><rect class="ui-label-box" id="v-3126" stroke-width="0" fill="none" width="110.42388725280762" height="94.51466464996338" transform="translate(5.293306350708008,4.741538047790527)"/><text class="ui-label" id="v-3127" font-family="OpenSansCondensedLight" font-size="14pt" fill="black" transform="translate(5.293306350708008,4.741538047790527)" text-anchor="middle"><tspan x="55.211944580078125" y="32.55730559814454">WIRELESS</tspan><tspan x="55.211944580078125" y="53.557343098144536">COMMUNICATION</tspan><tspan x="55.211944580078125" y="74.55738059814453">LOGIC</tspan></text><path class="ui-number-underline" id="v-3128" stroke="#000000" fill="none" transform="translate(5.293306350708008,4.741538047790527)" d="M 0 0"/></g><g id="j_126" model-id="2bfe3d1d-58d6-45b8-9aa0-bdbe28b10f08" class="tp Link link"><path class="connection" stroke="black" id="v-3275" stroke-dasharray="none" d="M 77 51 77 147"/><path class="marker-source" fill="black" stroke="black" id="v-3276" d="" transform="translate(77,51) scale(1,1) rotate(-270)"/><path class="marker-target" fill="black" stroke="black" id="v-3277" d="M 8 0 L 0 4 L 8 8 z" transform="translate(73,155) scale(1,1) rotate(-90)"/><g class="labels" id="v-3279"><g class="js-link-label" id="v-3287" label-idx="0" cursor="move" transform="translate(77, 99)"><rect fill="white" rx="3" ry="3" x="0" y="0" width="0" height="0"/><text class="ui-link-label" text-anchor="middle" font-size="14pt" font-family="OpenSansCondensedLight" id="v-3288" y="0.8em" display="none" xml:space="preserve" transform="translate(0,0)"/></g></g></g><g id="j_131" model-id="ec7427c1-1487-49a8-b816-f94a046b8542" class="tp Link link"><path class="connection" stroke="black" id="v-3348" stroke-dasharray="none" d="M 76 155 76 59"/><path class="marker-source" fill="black" stroke="black" id="v-3349" d="" transform="translate(76,155) scale(1,1) rotate(-90)"/><path class="marker-target" fill="black" stroke="black" id="v-3350" d="M 8 0 L 0 4 L 8 8 z" transform="translate(80,51) scale(1,1) rotate(-270)"/><g class="labels" id="v-3352"><g class="js-link-label" id="v-3360" label-idx="0" cursor="move" transform="translate(76, 107)"><rect fill="white" rx="3" ry="3" x="0" y="0" width="0" height="0"/><text class="ui-link-label" text-anchor="middle" font-size="14pt" font-family="OpenSansCondensedLight" id="v-3361" y="0.8em" display="none" xml:space="preserve" transform="translate(0,0)"/></g></g></g><g id="j_132" model-id="de412374-4bf2-4e3f-b754-c2dbd4cd8f33" class="tp Link link"><path class="connection" stroke="black" id="v-3362" stroke-dasharray="none" d="M 218 207 145 207"/><path class="marker-source" fill="black" stroke="black" id="v-3363" d="" transform="translate(218,207) scale(1,1) rotate(-180)"/><path class="marker-target" fill="black" stroke="black" id="v-3364" d="M 8 0 L 0 4 L 8 8 z" transform="translate(137,203) scale(1,1) rotate(0)"/><g class="labels" id="v-3366"><g class="js-link-label" id="v-3374" label-idx="0" cursor="move" transform="translate(181.5, 207)"><rect fill="white" rx="3" ry="3" x="0" y="0" width="0" height="0"/><text class="ui-link-label" text-anchor="middle" font-size="14pt" font-family="OpenSansCondensedLight" id="v-3375" y="0.8em" display="none" xml:space="preserve" transform="translate(0,0)"/></g></g></g><g id="j_122" model-id="d26981e1-d59e-4088-946b-a7314cc1a5a8" class="element tp Element" transform="translate(402.9999999999998,112.00000000000057)"><g class="rotatable" id="v-3202"><g class="scalable" id="v-3212">
<path class="ui-fill ui-stroke js-perimeter" d="M153.99665130198105,0H0v123.99730364575096h153.99665130198105V0L153.99665130198105,0z" id="v-3209" stroke="#000000" stroke-dasharray="none" fill="#FFFFFF"/>
<rect class="ui-interior-label" x="6.736935570418839" y="5.65337250664518" width="140.53949712285655" height="112.6905586324606" id="v-3210" fill="none"/>
<circle class="js-number-connector-1 js-link-connector" fill="none" cx="76.99832565099052" cy="0" r="0.1" id="v-3213"/>
<circle class="js-number-connector-2 js-link-connector" fill="none" cx="115.1631492422218" cy="0" r="0.1" id="v-3214"/>
<circle class="js-number-connector-3 js-link-connector" fill="none" cx="153.99665130198105" cy="31.268534126039892" r="0.1" id="v-3211"/>
<circle class="js-number-connector-4 js-link-connector" fill="none" cx="153.99665130198105" cy="61.99865182287548" r="0.1" id="v-3215"/>
<circle class="js-number-connector-5 js-link-connector" fill="none" cx="153.99665130198105" cy="92.72876951971107" r="0.1" id="v-3216"/>
<circle class="js-number-connector-6 js-link-connector" fill="none" cx="115.1631492422218" cy="123.99730364575096" r="0.1" id="v-3217"/>
<circle class="js-number-connector-7 js-link-connector" fill="none" cx="76.99832565099052" cy="123.99730364575096" r="0.1" id="v-3218"/>
<circle class="js-number-connector-8 js-link-connector" fill="none" cx="38.85021902147242" cy="123.99730364575096" r="0.1" id="v-3219"/>
<circle class="js-number-connector-9 js-link-connector" fill="none" cx="0" cy="92.72876951971107" r="0.1" id="v-3220"/>
<circle class="js-number-connector-10 js-link-connector" fill="none" cx="0" cy="61.99865182287548" r="0.1" id="v-3221"/>
<circle class="js-number-connector-11 js-link-connector" fill="none" cx="0" cy="31.268534126039892" r="0.1" id="v-3222"/>
<circle class="js-number-connector-12 js-link-connector" fill="none" cx="38.85021902147242" cy="0" r="0.1" id="v-3223"/>
</g></g><rect class="ui-number-box" id="v-3203" stroke="none" stroke-width="1" fill="#FFFFFF" x="0" y="0" width="40" height="20" transform="translate(185.858176448746,-8.831466674804688)"/><path class="ui-number-leadline" id="v-3204" stroke="#000000" fill="none" d="M153.99665069580078,31.26853370666504 C177.217377931444,37.43384505640093 165.40770205337606,5.003221975459413 188.62842928901927 11.168533325195312"/><text class="ui-number-label" id="v-3205" font-family="OpenSansCondensedLight" font-size="14pt" fill="black" transform="translate(185.85816955566406,-8.831466674804688)" text-anchor="middle"><tspan x="20" y="16.30001125">608</tspan></text><rect class="ui-label-box" id="v-3206" stroke-width="0" fill="none" width="140.5394926071167" height="112.6905608177185" transform="translate(6.736935615539551,5.653372287750244)"/><text class="ui-label" id="v-3207" font-family="OpenSansCondensedLight" font-size="14pt" fill="black" transform="translate(6.736935615539551,5.653372287750244)" text-anchor="middle"><tspan x="70.26974487304688" y="62.64529094360352">MEMORY</tspan></text><path class="ui-number-underline" id="v-3208" stroke="#000000" fill="none" transform="translate(6.736935615539551,5.653372287750244)" d="M 0 0"/></g><g id="j_124" model-id="f4284669-3684-4ef0-a420-bc081a8a32a9" class="element tp Element" transform="translate(402.5,314.99999999999983)"><g class="rotatable" id="v-3238"><g class="scalable" id="v-3248">
<path class="ui-fill ui-stroke js-perimeter" d="M154.9966295571887,0H0v64.9985865884985h154.9966295571887V0L154.9966295571887,0z" id="v-3245" stroke="#000000" stroke-dasharray="none" fill="#FFFFFF"/>
<rect class="ui-interior-label" x="6.780681905291689" y="2.963461394612393" width="141.45209126001797" height="59.07166379927371" id="v-3246" fill="none"/>
<circle class="js-number-connector-1 js-link-connector" fill="none" cx="77.49831477859435" cy="0" r="0.1" id="v-3249"/>
<circle class="js-number-connector-2 js-link-connector" fill="none" cx="115.91096189963883" cy="0" r="0.1" id="v-3250"/>
<circle class="js-number-connector-3 js-link-connector" fill="none" cx="154.9966295571887" cy="16.39076385639188" r="0.1" id="v-3247"/>
<circle class="js-number-connector-4 js-link-connector" fill="none" cx="154.9966295571887" cy="32.49929329424925" r="0.1" id="v-3251"/>
<circle class="js-number-connector-5 js-link-connector" fill="none" cx="154.9966295571887" cy="48.60782273210661" r="0.1" id="v-3252"/>
<circle class="js-number-connector-6 js-link-connector" fill="none" cx="115.91096189963883" cy="64.9985865884985" r="0.1" id="v-3253"/>
<circle class="js-number-connector-7 js-link-connector" fill="none" cx="77.49831477859435" cy="64.9985865884985" r="0.1" id="v-3254"/>
<circle class="js-number-connector-8 js-link-connector" fill="none" cx="39.1024931709625" cy="64.9985865884985" r="0.1" id="v-3255"/>
<circle class="js-number-connector-9 js-link-connector" fill="none" cx="0" cy="48.60782273210661" r="0.1" id="v-3256"/>
<circle class="js-number-connector-10 js-link-connector" fill="none" cx="0" cy="32.49929329424925" r="0.1" id="v-3257"/>
<circle class="js-number-connector-11 js-link-connector" fill="none" cx="0" cy="16.39076385639188" r="0.1" id="v-3258"/>
<circle class="js-number-connector-12 js-link-connector" fill="none" cx="39.1024931709625" cy="0" r="0.1" id="v-3259"/>
</g></g><rect class="ui-number-box" id="v-3239" stroke="none" stroke-width="1" fill="#FFFFFF" x="0" y="0" width="40" height="20" transform="translate(186.85814593116788,-23.70923614501953)"/><path class="ui-number-leadline" id="v-3240" stroke="#000000" fill="none" d="M154.99662017822266,16.390764236450195 C178.21734741386587,22.55607558618609 166.40767153579793,-9.874547494755433 189.62839877144114 -3.7092361450195312"/><text class="ui-number-label" id="v-3241" font-family="OpenSansCondensedLight" font-size="14pt" fill="black" transform="translate(186.85813903808594,-23.70923614501953)" text-anchor="middle"><tspan x="20" y="16.30001125">610</tspan></text><rect class="ui-label-box" id="v-3242" stroke-width="0" fill="none" width="141.45209074020386" height="59.071664333343506" transform="translate(6.78068208694458,2.963461399078369)"/><text class="ui-label" id="v-3243" font-family="OpenSansCondensedLight" font-size="14pt" fill="black" transform="translate(6.78068208694458,2.963461399078369)" text-anchor="middle"><tspan x="70.72604370117188" y="25.335823951416018">POWER</tspan><tspan x="70.72604370117188" y="46.335861451416015">MANAGER</tspan></text><path class="ui-number-underline" id="v-3244" stroke="#000000" fill="none" transform="translate(6.78068208694458,2.963461399078369)" d="M 0 0"/></g><g id="j_120" model-id="3079b42a-742a-4e33-ab48-361120ade879" class="element tp Element" transform="translate(506.9972915649414,414.0000000000002)"><g class="rotatable" id="v-3166"><g class="scalable" id="v-3176">
<path class="ui-fill ui-stroke js-perimeter" d="M93.9979559895209,0H0v56.99876054683714h93.9979559895209V0L93.9979559895209,0z" id="v-3173" stroke="#000000" stroke-dasharray="none" fill="#FFFFFF"/>
<rect class="ui-interior-label" x="4.112155478047863" y="2.5987276845062524" width="85.78384889317219" height="51.80130517782464" id="v-3174" fill="none"/>
<circle class="js-number-connector-1 js-link-connector" fill="none" cx="46.99897799476045" cy="0" r="0.1" id="v-3177"/>
<circle class="js-number-connector-2 js-link-connector" fill="none" cx="70.29438979720032" cy="0" r="0.1" id="v-3178"/>
<circle class="js-number-connector-3 js-link-connector" fill="none" cx="93.9979559895209" cy="14.373439074066725" r="0.1" id="v-3179"/>
<circle class="js-number-connector-4 js-link-connector" fill="none" cx="93.9979559895209" cy="28.49938027341857" r="0.1" id="v-3180"/>
<circle class="js-number-connector-5 js-link-connector" fill="none" cx="93.9979559895209" cy="42.62532147277041" r="0.1" id="v-3181"/>
<circle class="js-number-connector-6 js-link-connector" fill="none" cx="70.29438979720032" cy="56.99876054683714" r="0.1" id="v-3182"/>
<circle class="js-number-connector-7 js-link-connector" fill="none" cx="46.99897799476045" cy="56.99876054683714" r="0.1" id="v-3183"/>
<circle class="js-number-connector-8 js-link-connector" fill="none" cx="23.71377005206758" cy="56.99876054683714" r="0.1" id="v-3184"/>
<circle class="js-number-connector-9 js-link-connector" fill="none" cx="0" cy="42.62532147277041" r="0.1" id="v-3175"/>
<circle class="js-number-connector-10 js-link-connector" fill="none" cx="0" cy="28.49938027341857" r="0.1" id="v-3185"/>
<circle class="js-number-connector-11 js-link-connector" fill="none" cx="0" cy="14.373439074066725" r="0.1" id="v-3186"/>
<circle class="js-number-connector-12 js-link-connector" fill="none" cx="23.71377005206758" cy="0" r="0.1" id="v-3187"/>
</g></g><rect class="ui-number-box" id="v-3167" stroke="none" stroke-width="1" fill="#FFFFFF" x="0" y="0" width="40" height="20" transform="translate(-72.06152422855644,62.525321960449226)"/><path class="ui-number-leadline" id="v-3168" stroke="#000000" fill="none" d="M0,42.625322341918945 C-23.143453097998503,36.36757885496739 -11.506189369029741,68.78306544740077 -34.649642467028244 62.52532196044922"/><text class="ui-number-label" id="v-3169" font-family="OpenSansCondensedLight" font-size="14pt" fill="black" transform="translate(-72.0615234375,62.52532196044922)" text-anchor="middle"><tspan x="20" y="16.30001125">612</tspan></text><rect class="ui-label-box" id="v-3170" stroke-width="0" fill="none" width="85.78384828567505" height="51.80130434036255" transform="translate(4.112155437469482,2.5987277030944824)"/><text class="ui-label" id="v-3171" font-family="OpenSansCondensedLight" font-size="14pt" fill="black" transform="translate(4.112155437469482,2.5987277030944824)" text-anchor="middle"><tspan x="42.89192581176758" y="32.20066318176269">BATTERY</tspan></text><path class="ui-number-underline" id="v-3172" stroke="#000000" fill="none" transform="translate(4.112155437469482,2.5987277030944824)" d="M 0 0"/></g><g id="j_130" model-id="0f91dbdc-007f-44e5-8cfa-e644cd8e0e05" class="tp Link link"><path class="connection" stroke="black" id="v-3332" stroke-dasharray="none" d="M 507 440 501 440 443 440 443 388"/><path class="marker-source" fill="black" stroke="black" id="v-3333" d="" transform="translate(507,440) scale(1,1) rotate(-180)"/><path class="marker-target" fill="black" stroke="black" id="v-3334" d="M 8 0 L 0 4 L 8 8 z" transform="translate(447,380) scale(1,1) rotate(-270)"/><g class="labels" id="v-3336"><g class="js-link-label" id="v-3346" label-idx="0" cursor="move" transform="translate(449, 440)"><rect fill="white" rx="3" ry="3" x="0" y="0" width="0" height="0"/><text class="ui-link-label" text-anchor="middle" font-size="14pt" font-family="OpenSansCondensedLight" id="v-3347" y="0.8em" display="none" xml:space="preserve" transform="translate(0,0)"/></g></g></g><g id="j_129" model-id="3a2cab9c-0694-4e02-af5f-0ba4c170b044" class="tp Link link"><path class="connection" stroke="black" id="v-3317" stroke-dasharray="none" d="M 444 380 444 440 499 440"/><path class="marker-source" fill="black" stroke="black" id="v-3318" d="" transform="translate(444,380) scale(1,1) rotate(-270)"/><path class="marker-target" fill="black" stroke="black" id="v-3319" d="M 8 0 L 0 4 L 8 8 z" transform="translate(507,444) scale(1,1) rotate(-180)"/><g class="labels" id="v-3321"><g class="js-link-label" id="v-3330" label-idx="0" cursor="move" transform="translate(444, 437.5)"><rect fill="white" rx="3" ry="3" x="0" y="0" width="0" height="0"/><text class="ui-link-label" text-anchor="middle" font-size="14pt" font-family="OpenSansCondensedLight" id="v-3331" y="0.8em" display="none" xml:space="preserve" transform="translate(0,0)"/></g></g></g><g id="j_128" model-id="46247e97-0411-4273-b8c3-c62f2b1c1dcb" class="tp Link link"><path class="connection" stroke="black" id="v-3303" stroke-dasharray="none" d="M 403 204 320 204"/><path class="marker-source" fill="black" stroke="black" id="v-3304" d="" transform="translate(403,204) scale(1,1) rotate(-180)"/><path class="marker-target" fill="black" stroke="black" id="v-3305" d="M 8 0 L 0 4 L 8 8 z" transform="translate(312,200) scale(1,1) rotate(0)"/><g class="labels" id="v-3307"><g class="js-link-label" id="v-3315" label-idx="0" cursor="move" transform="translate(361.5, 204)"><rect fill="white" rx="3" ry="3" x="0" y="0" width="0" height="0"/><text class="ui-link-label" text-anchor="middle" font-size="14pt" font-family="OpenSansCondensedLight" id="v-3316" y="0.8em" display="none" xml:space="preserve" transform="translate(0,0)"/></g></g></g><g id="j_127" model-id="665c0e49-4e0b-4939-a69f-101cdc1591b6" class="tp Link link"><path class="connection" stroke="black" id="v-3289" stroke-dasharray="none" d="M 312 205 395 205"/><path class="marker-source" fill="black" stroke="black" id="v-3290" d="" transform="translate(312,205) scale(1,1) rotate(0)"/><path class="marker-target" fill="black" stroke="black" id="v-3291" d="M 8 0 L 0 4 L 8 8 z" transform="translate(403,209) scale(1,1) rotate(-180)"/><g class="labels" id="v-3293"><g class="js-link-label" id="v-3301" label-idx="0" cursor="move" transform="translate(353.5, 205)"><rect fill="white" rx="3" ry="3" x="0" y="0" width="0" height="0"/><text class="ui-link-label" text-anchor="middle" font-size="14pt" font-family="OpenSansCondensedLight" id="v-3302" y="0.8em" display="none" xml:space="preserve" transform="translate(0,0)"/></g></g></g><g id="j_119" model-id="d003bcc4-6cce-4bcd-847e-3fbdc6f8d0b8" class="element tp Element" transform="translate(31,288)"><g class="rotatable" id="v-3144"><g class="scalable" id="v-3154">
<path class="ui-fill ui-stroke js-perimeter" d="M94.48613697851009,0H0v94.48613697851009h94.48613697851009V0L94.48613697851009,0z" id="v-3151" stroke="#000000" stroke-dasharray="none" fill="#FFFFFF"/>
<rect class="ui-interior-label" x="4.133512071465432" y="4.307878585646357" width="86.22936968935457" height="85.87037980721738" id="v-3152" fill="none"/>
<circle class="js-number-connector-1 js-link-connector" fill="none" cx="47.243068489255045" cy="0" r="0.1" id="v-3155"/>
<circle class="js-number-connector-2 js-link-connector" fill="none" cx="70.6594656583756" cy="0" r="0.1" id="v-3156"/>
<circle class="js-number-connector-3 js-link-connector" fill="none" cx="94.48613697851009" cy="23.82667132013449" r="0.1" id="v-3157"/>
<circle class="js-number-connector-4 js-link-connector" fill="none" cx="94.48613697851009" cy="47.243068489255045" r="0.1" id="v-3158"/>
<circle class="js-number-connector-5 js-link-connector" fill="none" cx="94.48613697851009" cy="70.6594656583756" r="0.1" id="v-3153"/>
<circle class="js-number-connector-6 js-link-connector" fill="none" cx="70.6594656583756" cy="94.48613697851009" r="0.1" id="v-3159"/>
<circle class="js-number-connector-7 js-link-connector" fill="none" cx="47.243068489255045" cy="94.48613697851009" r="0.1" id="v-3160"/>
<circle class="js-number-connector-8 js-link-connector" fill="none" cx="23.83692817390984" cy="94.48613697851009" r="0.1" id="v-3161"/>
<circle class="js-number-connector-9 js-link-connector" fill="none" cx="0" cy="70.6594656583756" r="0.1" id="v-3162"/>
<circle class="js-number-connector-10 js-link-connector" fill="none" cx="0" cy="47.243068489255045" r="0.1" id="v-3163"/>
<circle class="js-number-connector-11 js-link-connector" fill="none" cx="0" cy="23.82667132013449" r="0.1" id="v-3164"/>
<circle class="js-number-connector-12 js-link-connector" fill="none" cx="23.83692817390984" cy="0" r="0.1" id="v-3165"/>
</g></g><rect class="ui-number-box" id="v-3145" stroke="none" stroke-width="1" fill="#FFFFFF" x="0" y="0" width="40" height="20" transform="translate(126.34766314308193,90.55946350097659)"/><path class="ui-number-leadline" id="v-3146" stroke="#000000" fill="none" d="M94.48613739013672,70.65946197509766 C100.68740637595802,93.74644219040492 122.80140110298123,67.4724832856693 129.00267008880257 90.55946350097656"/><text class="ui-number-label" id="v-3147" font-family="OpenSansCondensedLight" font-size="14pt" fill="black" transform="translate(126.34766387939453,90.55946350097656)" text-anchor="middle"><tspan x="19.999996185302734" y="16.30001125">614</tspan></text><rect class="ui-label-box" id="v-3148" stroke-width="0" fill="none" width="86.22937250137329" height="85.87037467956543" transform="translate(4.133512020111084,4.307878494262695)"/><text class="ui-label" id="v-3149" font-family="OpenSansCondensedLight" font-size="14pt" fill="black" transform="translate(4.133512020111084,4.307878494262695)" text-anchor="middle"><tspan x="43.11468505859375" y="28.235162043457034">USER</tspan><tspan x="43.11468505859375" y="49.235199543457036">INTERFACE</tspan><tspan x="43.11468505859375" y="70.23523704345703">LOGIC</tspan></text><path class="ui-number-underline" id="v-3150" stroke="#000000" fill="none" transform="translate(4.133512020111084,4.307878494262695)" d="M 0 0"/></g><g id="j_125" model-id="32927e96-f26f-4bd7-877e-2ae487fdebe5" class="tp Link link"><path class="connection" stroke="black" id="v-3260" stroke-dasharray="none" d="M 210 310 158 310 133 310"/><path class="marker-source" fill="black" stroke="black" id="v-3261" d="M 8 0 L 0 4 L 8 8 z" transform="translate(218,314) scale(1,1) rotate(-180)"/><path class="marker-target" fill="black" stroke="black" id="v-3262" d="M 8 0 L 0 4 L 8 8 z" transform="translate(125,306) scale(1,1) rotate(0)"/><g class="labels" id="v-3264"><g class="js-link-label" id="v-3273" label-idx="0" cursor="move" transform="translate(171.5, 310)"><rect fill="white" rx="3" ry="3" x="0" y="0" width="0" height="0"/><text class="ui-link-label" text-anchor="middle" font-size="14pt" font-family="OpenSansCondensedLight" id="v-3274" y="0.8em" display="none" xml:space="preserve" transform="translate(0,0)"/></g></g></g><g id="j_123" model-id="468f6156-708f-41e3-ba2b-56b31b3cd2db" class="element tp Element" transform="translate(397.6358299255371,240)"><g class="rotatable" id="v-3224"><g class="scalable" id="v-3234">
<g class="ui-fill" id="v-3232" fill="#FFFFFF">
    <path class="js-perimeter" d="M83.40590439233777,14.999211937772415c-0.24245902439633077,-3.088073046011968,-8.486065853871576,-5.734992799736511,-22.306230244462427,-5.734992799736511H21.578853171273437C7.758688780682585,9.264219138035902,0,6.995430777700579,0,4.033401529485019V0h168.99394000424255v4.033401529485019c0,2.962029248215561,-7.758688780682585,5.230817608550884,-21.82131219566977,5.230817608550884H105.71213463680022C92.1344292706057,9.264219138035902,83.64836341673411,11.848116992862243,83.40590439233777,14.999211937772415" id="v-3235"/>
</g>
<g class="ui-stroke" id="v-3231" stroke="#000000" stroke-dasharray="none">
    <path class="js-perimeter" fill="none" stroke-linejoin="round" d="M168.99394000424255,0v4.033401529485019c0,2.962029248215561,-7.758688780682585,5.230817608550884,-21.82131219566977,5.230817608550884H105.71213463680022c-13.577705366194522,0,-22.063771220066098,2.58389785482634,-22.306230244462427,5.734992799736511" id="v-3236"/>
    <path class="js-perimeter" fill="none" stroke-linejoin="round" d="M83.40590439233777,14.999211937772415c-0.24245902439633077,-3.088073046011968,-8.486065853871576,-5.734992799736511,-22.306230244462427,-5.734992799736511H21.578853171273437C7.758688780682585,9.264219138035902,0,6.995430777700579,0,4.033401529485019V0" id="v-3237"/>
</g>
<rect x="3.6368853659449614" y="1.0083503823712547" fill="none" width="161.72016927235262" height="12.919489274131701" class="ui-interior-label" id="v-3233"/>
<circle fill="none" cx="85.92141677044971" cy="12.328658971961044" r="0.1" id="v-822" class="js-number-connector-1 js-link-connector"/>
<circle fill="none" cx="102.07524927085525" cy="9.327241036934106" r="0.1" id="v-823" class="js-number-connector-2 js-link-connector"/>
<circle fill="none" cx="133.8373814667746" cy="9.264219138035902" r="0.1" id="v-824" class="js-number-connector-3 js-link-connector"/>
<circle fill="none" cx="162.2960094552939" cy="8.003781160071833" r="0.1" id="v-825" class="js-number-connector-4 js-link-connector"/>
<circle fill="none" cx="168.99394000424255" cy="3.726169772356277" r="0.1" id="v-826" class="js-number-connector-5 js-link-connector"/>
<circle fill="none" cx="168.99394000424255" cy="0" r="0.1" id="v-827" class="js-number-connector-6 js-link-connector"/>
<circle fill="none" cx="0" cy="0" r="0.1" id="v-828" class="js-number-connector-7 js-link-connector"/>
<circle fill="none" cx="0" cy="3.726169772356277" r="0.1" id="v-829" class="js-number-connector-8 js-link-connector"/>
<circle fill="none" cx="7.273770731889923" cy="8.12982495786824" r="0.1" id="v-830" class="js-number-connector-9 js-link-connector"/>
<circle fill="none" cx="25.094509025020233" cy="9.28785235012273" r="0.1" id="v-831" class="js-number-connector-10 js-link-connector"/>
<circle fill="none" cx="61.91797335521297" cy="9.248463663311352" r="0.1" id="v-832" class="js-number-connector-11 js-link-connector"/>
<circle fill="none" cx="80.98131414837447" cy="12.368047658772422" r="0.1" id="v-833" class="js-number-connector-12 js-link-connector"/>
</g></g><rect class="ui-number-box" id="v-3225" stroke="none" stroke-width="1" fill="#FFFFFF" x="0" y="0" width="40" height="20" transform="translate(197.62877109618503,20.864787355937356)"/><path class="ui-number-leadline" id="v-3226" stroke="#000000" fill="none" d="M162.2959976196289,8.00378155708313 C171.09305501531102,29.18757478369036 188.83171152521635,1.4178965018318017 197.62876892089844 22.601689728439045"/><text class="ui-number-label" id="v-3227" font-family="OpenSansCondensedLight" font-size="14pt" fill="black" transform="translate(197.62876892089844,20.864788055419922)" text-anchor="middle"><tspan x="20" y="16.30001125">616</tspan></text><rect class="ui-label-box" id="v-3228" stroke-width="0" fill="none" width="507.5817993208766" transform="translate(-169.29392700269818,24.99921226501465)"/><text class="ui-label" id="v-3229" font-family="OpenSansCondensedLight" font-size="14pt" fill="black" transform="translate(-169.29393005371094,24.99921226501465)" text-anchor="middle"><tspan x="253.7908935546875" y="16.80003"> </tspan></text><path class="ui-number-underline" id="v-3230" stroke="#000000" fill="none" transform="translate(-169.29393005371094,24.99921226501465)" d="M 0 0"/></g></g><defs id="v-3035"/></svg>