<svg xmlns="http://www.w3.org/2000/svg" xmlns:xlink="http://www.w3.org/1999/xlink" version="1.1" width="664" height="867"><g><g model-id="fd7e7dbc-ac64-4d3c-a4bc-95b0731ac2f3" transform="translate(-19,51)"><g><g>
<path d="M683,0H0v474h683V0L683,0z" stroke="#000000" stroke-dasharray="none" fill="#FFFFFF"/>
<rect x="29.9" y="21.6" width="623.3" height="430.8" fill="none"/>
<circle fill="none" cx="341.5" cy="0" r="0.1"/>
<circle fill="none" cx="510.8" cy="0" r="0.1"/>
<circle fill="none" cx="683" cy="119.5" r="0.1"/>
<circle fill="none" cx="683" cy="237" r="0.1"/>
<circle fill="none" cx="683" cy="354.5" r="0.1"/>
<circle fill="none" cx="510.8" cy="474" r="0.1"/>
<circle fill="none" cx="341.5" cy="474" r="0.1"/>
<circle fill="none" cx="172.3" cy="474" r="0.1"/>
<circle fill="none" cx="0" cy="354.5" r="0.1"/>
<circle fill="none" cx="0" cy="237" r="0.1"/>
<circle fill="none" cx="0" cy="119.5" r="0.1"/>
<circle fill="none" cx="172.3" cy="0" r="0.1"/>
</g></g><rect stroke="none" stroke-width="0" fill="#FFFFFF" x="0" y="0" width="0" height="0" transform="translate(510.7,-0.1)"/><path stroke="#000000" fill="none" d=""/><text font-family="OpenSansCondensedLight" font-size="14pt" fill="black" transform="translate(510.7,-0.1)"/><rect stroke-width="0" fill="none" width="623.3" height="430.8" transform="translate(29.9,21.6)"/><text font-family="OpenSansCondensedLight" font-size="14pt" fill="black" transform="translate(29.9,21.6)" text-anchor="middle"><tspan x="311.7" y="221.7"> </tspan></text><path stroke="#000000" fill="none" transform="translate(29.9,21.6)" d="M 0 0"/></g><g model-id="a877bef7-b2ee-4fa7-af7e-8edb13fdbeda" transform="translate(572.7,13.3)"><polygon fill="#000000" points="0,0 4.2,11.2 11.8,2" transform="translate(-5.9,19)"/>
<rect fill="none" width="1" height="1" transform="translate(33,-0.5)"/>
<g><g>
<rect x="0" y="0" width="28" height="20" opacity="0"/>
<path fill="none" stroke="#000000" stroke-width="1" d="M28,0C16.5,1.6,6.9,9.4,0,20"/>
</g></g><rect stroke="none" stroke-width="0" fill="#FFFFFF" x="0" y="0" width="0" height="0"/><path stroke="#000000" fill="none"/><text font-family="OpenSansCondensedLight" font-size="14pt" fill="black" transform="translate(0,0)"/><rect stroke-width="0" fill="none" width="1" height="1" transform="translate(33,-0.5)"/><text font-family="OpenSansCondensedLight" font-size="14pt" fill="black" text-decoration="none" transform="translate(33,-0.5)"><tspan x="0" y="6.8">600</tspan></text><path stroke="#000000" fill="none" transform="translate(33,-0.5)"/></g><g model-id="a2a80621-ebb3-47a6-a520-9c24d87f9c9a" transform="translate(67,4)"><g><g>
<g stroke="#000000" stroke-dasharray="none" fill="#FFFFFF">
    <ellipse cx="9.5" cy="5.5" rx="1.2" ry="1.2"/>
    <polygon points="19,43 9.5,47 0,43 9.5,6.7"/>
</g>
<g fill="none" stroke="#000000" stroke-dasharray="none">
    <line x1="9.5" y1="6.7" x2="9.5" y2="47"/>
    <ellipse cx="9.5" cy="5.5" rx="1.2" ry="1.2"/>
    <line x1="9.5" y1="6.7" x2="0" y2="43"/>
    <line x1="9.5" y1="6.7" x2="19" y2="43"/>
    <polygon points="9.5,13.5 7.9,12.8 9.5,12 11,12.8"/>
    <polygon points="9.5,15.5 7.4,14.6 9.5,13.6 11.5,14.6"/>
    <polygon points="9.5,18.1 6.8,16.9 9.5,15.7 12.2,16.9"/>
    <polygon points="9.5,21.3 6,19.9 9.5,18.3 12.9,20"/>
    <polygon points="9.5,25.7 5,23.8 9.5,21.7 13.9,23.8"/>
    <polygon points="9.5,31.1 3.8,28.7 9.5,26.1 15.2,28.6"/>
    <polygon points="9.5,38.1 2.1,35 9.5,31.6 16.9,34.9"/>
    <polygon points="9.5,47 0,43 9.5,38.8 19,43"/>
    <path d="M12.1,10.4c1.8,-1,3.1,-2.8,3.1,-4.9C15.2,2.5,12.6,0,9.5,0S3.7,2.5,3.7,5.5c0,2.1,1.2,4,3.1,4.9"/>
    <path d="M11.7,8.7c1.1,-0.7,1.8,-1.8,1.8,-3.2c0,-2.1,-1.8,-3.8,-4,-3.8S5.5,3.4,5.5,5.5c0,1.4,0.8,2.5,1.8,3.2"/>
    <path d="M11.3,7.1c0.4,-0.4,0.7,-1,0.7,-1.6c0,-1.3,-1.1,-2.3,-2.4,-2.3S7.1,4.2,7.1,5.5c0,0.6,0.2,1.2,0.7,1.7"/>
</g>
<rect x="1.2" y="17.2" width="17.1" height="16" fill="none"/>
<circle fill="none" cx="9.4" cy="0" r="0.1"/>
<circle fill="none" cx="15.2" cy="5.5" r="0.1"/>
<circle fill="none" cx="11.5" cy="14.6" r="0.1"/>
<circle fill="none" cx="13.9" cy="23.8" r="0.1"/>
<circle fill="none" cx="16.9" cy="34.9" r="0.1"/>
<circle fill="none" cx="19" cy="43" r="0.1"/>
<circle fill="none" cx="9.5" cy="47" r="0.1"/>
<circle fill="none" cx="0" cy="43" r="0.1"/>
<circle fill="none" cx="2.1" cy="35" r="0.1"/>
<circle fill="none" cx="5" cy="23.7" r="0.1"/>
<circle fill="none" cx="7.4" cy="14.6" r="0.1"/>
<circle fill="none" cx="3.7" cy="5.5" r="0.1"/>
</g></g><rect stroke="none" stroke-width="1" fill="#FFFFFF" x="0" y="0" width="40" height="20" transform="translate(51.4,4.5)"/><path stroke="#000000" fill="none" d="M11.5,14.6 C28.5,31.5 34.5,-2.4 51.4 14.5"/><text font-family="OpenSansCondensedLight" font-size="14pt" fill="black" transform="translate(51.4,4.5)" text-anchor="middle"><tspan x="20" y="16.3">602</tspan></text><rect stroke-width="0" fill="none" width="57.6" transform="translate(-19.3,57.1)"/><text font-family="OpenSansCondensedLight" font-size="14pt" fill="black" transform="translate(-19.3,57.1)" text-anchor="middle"><tspan x="28.8" y="16.8"> </tspan></text><path stroke="#000000" fill="none" transform="translate(-19.3,57.1)" d="M 0 0"/></g><g model-id="9b551e9d-e83e-4bf3-ad34-521334c89553" transform="translate(218,150)"><g><g>
<path d="M94,0H0v216h94V0L94,0z" stroke="#000000" stroke-dasharray="none" fill="#FFFFFF"/>
<rect x="4.1" y="9.8" width="85.8" height="196.3" fill="none"/>
<circle fill="none" cx="47" cy="0" r="0.1"/>
<circle fill="none" cx="70.3" cy="0" r="0.1"/>
<circle fill="none" cx="94" cy="54.5" r="0.1"/>
<circle fill="none" cx="94" cy="108" r="0.1"/>
<circle fill="none" cx="94" cy="161.5" r="0.1"/>
<circle fill="none" cx="70.3" cy="216" r="0.1"/>
<circle fill="none" cx="47" cy="216" r="0.1"/>
<circle fill="none" cx="23.7" cy="216" r="0.1"/>
<circle fill="none" cx="0" cy="161.5" r="0.1"/>
<circle fill="none" cx="0" cy="108" r="0.1"/>
<circle fill="none" cx="0" cy="54.5" r="0.1"/>
<circle fill="none" cx="23.7" cy="0" r="0.1"/>
</g></g><rect stroke="none" stroke-width="1" fill="#FFFFFF" x="0" y="0" width="40" height="20" transform="translate(80.2,-62.1)"/><path stroke="#000000" fill="none" d="M70.3,0 C98.4,-7.6 66.4,-34.5 94.5 -42.1"/><text font-family="OpenSansCondensedLight" font-size="14pt" fill="black" transform="translate(80.2,-62.1)" text-anchor="middle"><tspan x="20" y="16.3">604</tspan></text><rect stroke-width="0" fill="none" width="85.8" height="196.3" transform="translate(4.1,9.8)"/><text font-family="OpenSansCondensedLight" font-size="14pt" fill="black" transform="translate(4.1,9.8)" text-anchor="middle"><tspan x="42.9" y="93.9">CONTROL</tspan><tspan x="42.9" y="114.9">LOGIC</tspan></text><path stroke="#000000" fill="none" transform="translate(4.1,9.8)" d="M 0 0"/></g><g model-id="6b9dd079-cb3d-441c-a6d2-a187758514b7" transform="translate(16.3,155)"><g><g>
<path d="M121,0H0v104h121V0L121,0z" stroke="#000000" stroke-dasharray="none" fill="#FFFFFF"/>
<rect x="5.3" y="4.7" width="110.4" height="94.5" fill="none"/>
<circle fill="none" cx="60.5" cy="0" r="0.1"/>
<circle fill="none" cx="90.5" cy="0" r="0.1"/>
<circle fill="none" cx="121" cy="26.2" r="0.1"/>
<circle fill="none" cx="121" cy="52" r="0.1"/>
<circle fill="none" cx="121" cy="77.8" r="0.1"/>
<circle fill="none" cx="90.5" cy="104" r="0.1"/>
<circle fill="none" cx="60.5" cy="104" r="0.1"/>
<circle fill="none" cx="30.5" cy="104" r="0.1"/>
<circle fill="none" cx="0" cy="77.8" r="0.1"/>
<circle fill="none" cx="0" cy="52" r="0.1"/>
<circle fill="none" cx="0" cy="26.2" r="0.1"/>
<circle fill="none" cx="30.5" cy="0" r="0.1"/>
</g></g><rect stroke="none" stroke-width="1" fill="#FFFFFF" x="0" y="0" width="40" height="20" transform="translate(152.9,-13.9)"/><path stroke="#000000" fill="none" d="M121,26.2 C144.2,32.4 132.4,-0 155.6 6.1"/><text font-family="OpenSansCondensedLight" font-size="14pt" fill="black" transform="translate(152.9,-13.9)" text-anchor="middle"><tspan x="20" y="16.3">606</tspan></text><rect stroke-width="0" fill="none" width="110.4" height="94.5" transform="translate(5.3,4.7)"/><text font-family="OpenSansCondensedLight" font-size="14pt" fill="black" transform="translate(5.3,4.7)" text-anchor="middle"><tspan x="55.2" y="32.6">WIRELESS</tspan><tspan x="55.2" y="53.6">COMMUNICATION</tspan><tspan x="55.2" y="74.6">LOGIC</tspan></text><path stroke="#000000" fill="none" transform="translate(5.3,4.7)" d="M 0 0"/></g><g model-id="2bfe3d1d-58d6-45b8-9aa0-bdbe28b10f08"><path stroke="black" stroke-dasharray="none" d="M 77 51 77 147"/><path fill="black" stroke="black" d="" transform="translate(77,51) scale(1,1) rotate(-270)"/><path fill="black" stroke="black" d="M 8 0 L 0 4 L 8 8 z" transform="translate(73,155) scale(1,1) rotate(-90)"/><g><g label-idx="0" cursor="move" transform="translate(77, 99)"><rect fill="white" rx="3" ry="3" x="0" y="0" width="0" height="0"/><text text-anchor="middle" font-size="14pt" font-family="OpenSansCondensedLight" y="0.8em" display="none" xml:space="preserve" transform="translate(0,0)"/></g></g></g><g model-id="ec7427c1-1487-49a8-b816-f94a046b8542"><path stroke="black" stroke-dasharray="none" d="M 76 155 76 59"/><path fill="black" stroke="black" d="" transform="translate(76,155) scale(1,1) rotate(-90)"/><path fill="black" stroke="black" d="M 8 0 L 0 4 L 8 8 z" transform="translate(80,51) scale(1,1) rotate(-270)"/><g><g label-idx="0" cursor="move" transform="translate(76, 107)"><rect fill="white" rx="3" ry="3" x="0" y="0" width="0" height="0"/><text text-anchor="middle" font-size="14pt" font-family="OpenSansCondensedLight" y="0.8em" display="none" xml:space="preserve" transform="translate(0,0)"/></g></g></g><g model-id="de412374-4bf2-4e3f-b754-c2dbd4cd8f33"><path stroke="black" stroke-dasharray="none" d="M 218 207 145 207"/><path fill="black" stroke="black" d="" transform="translate(218,207) scale(1,1) rotate(-180)"/><path fill="black" stroke="black" d="M 8 0 L 0 4 L 8 8 z" transform="translate(137,203) scale(1,1) rotate(0)"/><g><g label-idx="0" cursor="move" transform="translate(181.5, 207)"><rect fill="white" rx="3" ry="3" x="0" y="0" width="0" height="0"/><text text-anchor="middle" font-size="14pt" font-family="OpenSansCondensedLight" y="0.8em" display="none" xml:space="preserve" transform="translate(0,0)"/></g></g></g><g model-id="d26981e1-d59e-4088-946b-a7314cc1a5a8" transform="translate(403,112)"><g><g>
<path d="M154,0H0v124h154V0L154,0z" stroke="#000000" stroke-dasharray="none" fill="#FFFFFF"/>
<rect x="6.7" y="5.7" width="140.5" height="112.7" fill="none"/>
<circle fill="none" cx="77" cy="0" r="0.1"/>
<circle fill="none" cx="115.2" cy="0" r="0.1"/>
<circle fill="none" cx="154" cy="31.3" r="0.1"/>
<circle fill="none" cx="154" cy="62" r="0.1"/>
<circle fill="none" cx="154" cy="92.7" r="0.1"/>
<circle fill="none" cx="115.2" cy="124" r="0.1"/>
<circle fill="none" cx="77" cy="124" r="0.1"/>
<circle fill="none" cx="38.9" cy="124" r="0.1"/>
<circle fill="none" cx="0" cy="92.7" r="0.1"/>
<circle fill="none" cx="0" cy="62" r="0.1"/>
<circle fill="none" cx="0" cy="31.3" r="0.1"/>
<circle fill="none" cx="38.9" cy="0" r="0.1"/>
</g></g><rect stroke="none" stroke-width="1" fill="#FFFFFF" x="0" y="0" width="40" height="20" transform="translate(185.9,-8.8)"/><path stroke="#000000" fill="none" d="M154,31.3 C177.2,37.4 165.4,5 188.6 11.2"/><text font-family="OpenSansCondensedLight" font-size="14pt" fill="black" transform="translate(185.9,-8.8)" text-anchor="middle"><tspan x="20" y="16.3">608</tspan></text><rect stroke-width="0" fill="none" width="140.5" height="112.7" transform="translate(6.7,5.7)"/><text font-family="OpenSansCondensedLight" font-size="14pt" fill="black" transform="translate(6.7,5.7)" text-anchor="middle"><tspan x="70.3" y="62.6">MEMORY</tspan></text><path stroke="#000000" fill="none" transform="translate(6.7,5.7)" d="M 0 0"/></g><g model-id="f4284669-3684-4ef0-a420-bc081a8a32a9" transform="translate(402.5,315)"><g><g>
<path d="M155,0H0v65h155V0L155,0z" stroke="#000000" stroke-dasharray="none" fill="#FFFFFF"/>
<rect x="6.8" y="3" width="141.5" height="59.1" fill="none"/>
<circle fill="none" cx="77.5" cy="0" r="0.1"/>
<circle fill="none" cx="115.9" cy="0" r="0.1"/>
<circle fill="none" cx="155" cy="16.4" r="0.1"/>
<circle fill="none" cx="155" cy="32.5" r="0.1"/>
<circle fill="none" cx="155" cy="48.6" r="0.1"/>
<circle fill="none" cx="115.9" cy="65" r="0.1"/>
<circle fill="none" cx="77.5" cy="65" r="0.1"/>
<circle fill="none" cx="39.1" cy="65" r="0.1"/>
<circle fill="none" cx="0" cy="48.6" r="0.1"/>
<circle fill="none" cx="0" cy="32.5" r="0.1"/>
<circle fill="none" cx="0" cy="16.4" r="0.1"/>
<circle fill="none" cx="39.1" cy="0" r="0.1"/>
</g></g><rect stroke="none" stroke-width="1" fill="#FFFFFF" x="0" y="0" width="40" height="20" transform="translate(186.9,-23.7)"/><path stroke="#000000" fill="none" d="M155,16.4 C178.2,22.6 166.4,-9.9 189.6 -3.7"/><text font-family="OpenSansCondensedLight" font-size="14pt" fill="black" transform="translate(186.9,-23.7)" text-anchor="middle"><tspan x="20" y="16.3">610</tspan></text><rect stroke-width="0" fill="none" width="141.5" height="59.1" transform="translate(6.8,3)"/><text font-family="OpenSansCondensedLight" font-size="14pt" fill="black" transform="translate(6.8,3)" text-anchor="middle"><tspan x="70.7" y="25.3">POWER</tspan><tspan x="70.7" y="46.3">MANAGER</tspan></text><path stroke="#000000" fill="none" transform="translate(6.8,3)" d="M 0 0"/></g><g model-id="3079b42a-742a-4e33-ab48-361120ade879" transform="translate(507,414)"><g><g>
<path d="M94,0H0v57h94V0L94,0z" stroke="#000000" stroke-dasharray="none" fill="#FFFFFF"/>
<rect x="4.1" y="2.6" width="85.8" height="51.8" fill="none"/>
<circle fill="none" cx="47" cy="0" r="0.1"/>
<circle fill="none" cx="70.3" cy="0" r="0.1"/>
<circle fill="none" cx="94" cy="14.4" r="0.1"/>
<circle fill="none" cx="94" cy="28.5" r="0.1"/>
<circle fill="none" cx="94" cy="42.6" r="0.1"/>
<circle fill="none" cx="70.3" cy="57" r="0.1"/>
<circle fill="none" cx="47" cy="57" r="0.1"/>
<circle fill="none" cx="23.7" cy="57" r="0.1"/>
<circle fill="none" cx="0" cy="42.6" r="0.1"/>
<circle fill="none" cx="0" cy="28.5" r="0.1"/>
<circle fill="none" cx="0" cy="14.4" r="0.1"/>
<circle fill="none" cx="23.7" cy="0" r="0.1"/>
</g></g><rect stroke="none" stroke-width="1" fill="#FFFFFF" x="0" y="0" width="40" height="20" transform="translate(-72.1,62.5)"/><path stroke="#000000" fill="none" d="M0,42.6 C-23.1,36.4 -11.5,68.8 -34.6 62.5"/><text font-family="OpenSansCondensedLight" font-size="14pt" fill="black" transform="translate(-72.1,62.5)" text-anchor="middle"><tspan x="20" y="16.3">612</tspan></text><rect stroke-width="0" fill="none" width="85.8" height="51.8" transform="translate(4.1,2.6)"/><text font-family="OpenSansCondensedLight" font-size="14pt" fill="black" transform="translate(4.1,2.6)" text-anchor="middle"><tspan x="42.9" y="32.2">BATTERY</tspan></text><path stroke="#000000" fill="none" transform="translate(4.1,2.6)" d="M 0 0"/></g><g model-id="0f91dbdc-007f-44e5-8cfa-e644cd8e0e05"><path stroke="black" stroke-dasharray="none" d="M 507 440 501 440 443 440 443 388"/><path fill="black" stroke="black" d="" transform="translate(507,440) scale(1,1) rotate(-180)"/><path fill="black" stroke="black" d="M 8 0 L 0 4 L 8 8 z" transform="translate(447,380) scale(1,1) rotate(-270)"/><g><g label-idx="0" cursor="move" transform="translate(449, 440)"><rect fill="white" rx="3" ry="3" x="0" y="0" width="0" height="0"/><text text-anchor="middle" font-size="14pt" font-family="OpenSansCondensedLight" y="0.8em" display="none" xml:space="preserve" transform="translate(0,0)"/></g></g></g><g model-id="3a2cab9c-0694-4e02-af5f-0ba4c170b044"><path stroke="black" stroke-dasharray="none" d="M 444 380 444 440 499 440"/><path fill="black" stroke="black" d="" transform="translate(444,380) scale(1,1) rotate(-270)"/><path fill="black" stroke="black" d="M 8 0 L 0 4 L 8 8 z" transform="translate(507,444) scale(1,1) rotate(-180)"/><g><g label-idx="0" cursor="move" transform="translate(444, 437.5)"><rect fill="white" rx="3" ry="3" x="0" y="0" width="0" height="0"/><text text-anchor="middle" font-size="14pt" font-family="OpenSansCondensedLight" y="0.8em" display="none" xml:space="preserve" transform="translate(0,0)"/></g></g></g><g model-id="46247e97-0411-4273-b8c3-c62f2b1c1dcb"><path stroke="black" stroke-dasharray="none" d="M 403 204 320 204"/><path fill="black" stroke="black" d="" transform="translate(403,204) scale(1,1) rotate(-180)"/><path fill="black" stroke="black" d="M 8 0 L 0 4 L 8 8 z" transform="translate(312,200) scale(1,1) rotate(0)"/><g><g label-idx="0" cursor="move" transform="translate(361.5, 204)"><rect fill="white" rx="3" ry="3" x="0" y="0" width="0" height="0"/><text text-anchor="middle" font-size="14pt" font-family="OpenSansCondensedLight" y="0.8em" display="none" xml:space="preserve" transform="translate(0,0)"/></g></g></g><g model-id="665c0e49-4e0b-4939-a69f-101cdc1591b6"><path stroke="black" stroke-dasharray="none" d="M 312 205 395 205"/><path fill="black" stroke="black" d="" transform="translate(312,205) scale(1,1) rotate(0)"/><path fill="black" stroke="black" d="M 8 0 L 0 4 L 8 8 z" transform="translate(403,209) scale(1,1) rotate(-180)"/><g><g label-idx="0" cursor="move" transform="translate(353.5, 205)"><rect fill="white" rx="3" ry="3" x="0" y="0" width="0" height="0"/><text text-anchor="middle" font-size="14pt" font-family="OpenSansCondensedLight" y="0.8em" display="none" xml:space="preserve" transform="translate(0,0)"/></g></g></g><g model-id="d003bcc4-6cce-4bcd-847e-3fbdc6f8d0b8" transform="translate(31,288)"><g><g>
<path d="M94.5,0H0v94.5h94.5V0L94.5,0z" stroke="#000000" stroke-dasharray="none" fill="#FFFFFF"/>
<rect x="4.1" y="4.3" width="86.2" height="85.9" fill="none"/>
<circle fill="none" cx="47.2" cy="0" r="0.1"/>
<circle fill="none" cx="70.7" cy="0" r="0.1"/>
<circle fill="none" cx="94.5" cy="23.8" r="0.1"/>
<circle fill="none" cx="94.5" cy="47.2" r="0.1"/>
<circle fill="none" cx="94.5" cy="70.7" r="0.1"/>
<circle fill="none" cx="70.7" cy="94.5" r="0.1"/>
<circle fill="none" cx="47.2" cy="94.5" r="0.1"/>
<circle fill="none" cx="23.8" cy="94.5" r="0.1"/>
<circle fill="none" cx="0" cy="70.7" r="0.1"/>
<circle fill="none" cx="0" cy="47.2" r="0.1"/>
<circle fill="none" cx="0" cy="23.8" r="0.1"/>
<circle fill="none" cx="23.8" cy="0" r="0.1"/>
</g></g><rect stroke="none" stroke-width="1" fill="#FFFFFF" x="0" y="0" width="40" height="20" transform="translate(126.3,90.6)"/><path stroke="#000000" fill="none" d="M94.5,70.7 C100.7,93.7 122.8,67.5 129 90.6"/><text font-family="OpenSansCondensedLight" font-size="14pt" fill="black" transform="translate(126.3,90.6)" text-anchor="middle"><tspan x="20" y="16.3">614</tspan></text><rect stroke-width="0" fill="none" width="86.2" height="85.9" transform="translate(4.1,4.3)"/><text font-family="OpenSansCondensedLight" font-size="14pt" fill="black" transform="translate(4.1,4.3)" text-anchor="middle"><tspan x="43.1" y="28.2">USER</tspan><tspan x="43.1" y="49.2">INTERFACE</tspan><tspan x="43.1" y="70.2">LOGIC</tspan></text><path stroke="#000000" fill="none" transform="translate(4.1,4.3)" d="M 0 0"/></g><g model-id="32927e96-f26f-4bd7-877e-2ae487fdebe5"><path stroke="black" stroke-dasharray="none" d="M 210 310 158 310 133 310"/><path fill="black" stroke="black" d="M 8 0 L 0 4 L 8 8 z" transform="translate(218,314) scale(1,1) rotate(-180)"/><path fill="black" stroke="black" d="M 8 0 L 0 4 L 8 8 z" transform="translate(125,306) scale(1,1) rotate(0)"/><g><g label-idx="0" cursor="move" transform="translate(171.5, 310)"><rect fill="white" rx="3" ry="3" x="0" y="0" width="0" height="0"/><text text-anchor="middle" font-size="14pt" font-family="OpenSansCondensedLight" y="0.8em" display="none" xml:space="preserve" transform="translate(0,0)"/></g></g></g><g model-id="468f6156-708f-41e3-ba2b-56b31b3cd2db" transform="translate(397.6,240)"><g><g>
<g fill="#FFFFFF">
    <path d="M83.4,15c-0.2,-3.1,-8.5,-5.7,-22.3,-5.7H21.6C7.8,9.3,0,7,0,4V0h169v4c0,3,-7.8,5.2,-21.8,5.2H105.7C92.1,9.3,83.6,11.8,83.4,15"/>
</g>
<g stroke="#000000" stroke-dasharray="none">
    <path fill="none" stroke-linejoin="round" d="M169,0v4c0,3,-7.8,5.2,-21.8,5.2H105.7c-13.6,0,-22.1,2.6,-22.3,5.7"/>
    <path fill="none" stroke-linejoin="round" d="M83.4,15c-0.2,-3.1,-8.5,-5.7,-22.3,-5.7H21.6C7.8,9.3,0,7,0,4V0"/>
</g>
<rect x="3.6" y="1" fill="none" width="161.7" height="12.9"/>
<circle fill="none" cx="85.9" cy="12.3" r="0.1"/>
<circle fill="none" cx="102.1" cy="9.3" r="0.1"/>
<circle fill="none" cx="133.8" cy="9.3" r="0.1"/>
<circle fill="none" cx="162.3" cy="8" r="0.1"/>
<circle fill="none" cx="169" cy="3.7" r="0.1"/>
<circle fill="none" cx="169" cy="0" r="0.1"/>
<circle fill="none" cx="0" cy="0" r="0.1"/>
<circle fill="none" cx="0" cy="3.7" r="0.1"/>
<circle fill="none" cx="7.3" cy="8.1" r="0.1"/>
<circle fill="none" cx="25.1" cy="9.3" r="0.1"/>
<circle fill="none" cx="61.9" cy="9.2" r="0.1"/>
<circle fill="none" cx="81" cy="12.4" r="0.1"/>
</g></g><rect stroke="none" stroke-width="1" fill="#FFFFFF" x="0" y="0" width="40" height="20" transform="translate(197.6,20.9)"/><path stroke="#000000" fill="none" d="M162.3,8 C171.1,29.2 188.8,1.4 197.6 22.6"/><text font-family="OpenSansCondensedLight" font-size="14pt" fill="black" transform="translate(197.6,20.9)" text-anchor="middle"><tspan x="20" y="16.3">616</tspan></text><rect stroke-width="0" fill="none" width="507.6" transform="translate(-169.3,25)"/><text font-family="OpenSansCondensedLight" font-size="14pt" fill="black" transform="translate(-169.3,25)" text-anchor="middle"><tspan x="253.8" y="16.8"> </tspan></text><path stroke="#000000" fill="none" transform="translate(-169.3,25)" d="M 0 0"/></g></g><defs/></svg>